<?xml version="1.0" encoding="utf-8"?>
<!-- Generator: Adobe Illustrator 22.0.0, SVG Export Plug-In . SVG Version: 6.00 Build 0)  -->
<svg version="1.1" id="图层_1" xmlns="http://www.w3.org/2000/svg" xmlns:xlink="http://www.w3.org/1999/xlink" x="0px" y="0px"
	 viewBox="0 0 1024 1024" style="enable-background:new 0 0 1024 1024;" xml:space="preserve">
<style type="text/css">
	.st0{fill:#00B1FF;}
</style>
<g>
	<path class="st0" d="M952.8,316.4c0,0,0-0.1,0-0.1c-0.6-5.4-2.8-10.3-6.4-13.9l-135-172.2c-4.1-5.5-11-8.7-17.9-8.7H219.3
		c-7.3,0-14.2,3.2-18.3,9.2L72.6,304.9c-2.6,3.4-4.1,7.5-4.5,12.1c0,0,0,0,0,0c0,0.6-0.2,1.2-0.2,1.8v564.1
		c0,12.8,10.1,22.9,22.9,22.9h839.3c12.8,0,22.9-10.1,22.9-22.9V318.8C953.1,318,952.9,317.2,952.8,316.4z M230.7,167.4H782
		l100.9,128.4H136.2L230.7,167.4z M907.2,860H113.8V341.7h793.4V860z"/>
	<path class="st0" d="M260.5,671.9h34.6c3.3,19.3,10.9,37,21.7,52.4L292.2,749c-9.2,9.2-9.2,23.4,0,32.6c4.1,4.6,10.1,6.9,16.1,6.9
		s11.9-2.3,16.5-6.9l24.8-24.8c15.6,10.7,33.7,18.1,53.2,21.2v36.2c0,12.8,10.1,22.9,22.9,22.9c12.8,0,22.9-10.1,22.9-22.9v-36.9
		c18.2-3.6,34.9-10.9,49.5-21.2l22.9,24.1c4.6,5,10.5,7.3,16.5,7.3c5.5,0,11.5-2.3,16.1-6.4c9.2-8.7,9.6-23.4,0.9-32.6l-23.9-25.2
		c10.4-15.1,17.7-32.6,20.9-51.4h34.6c12.8,0,22.9-10.1,22.9-22.9c0-12.8-10.1-22.9-22.9-22.9h-34.8c-3.5-19.1-11.1-36.7-21.9-52
		l23.6-23.2c9.2-9.2,9.2-23.4,0.5-32.6c-9.2-9.2-23.4-9.2-32.6-0.5l-24.4,24c-15.5-10.6-33.4-17.7-52.7-20.8v-32.5
		c0-12.8-10.1-22.9-22.9-22.9c-12.8,0-22.9,10.1-22.9,22.9v33.2c-18.5,3.6-35.5,11.2-50.2,21.7l-25.4-24.2
		c-9.2-8.7-23.8-8.3-32.6,0.9c-8.7,9.2-8.3,23.8,0.9,32.6l24.8,23.6c-10,14.7-17,31.6-20.3,49.8h-34.8c-12.8,0-22.9,10.1-22.9,22.9
		C237.6,661.8,247.7,671.9,260.5,671.9z M423.4,565.1c46.3,0,84.4,38.1,84.4,84.4s-38.1,84.4-84.4,84.4c-46.3,0-84.4-38.1-84.4-84.4
		S377,565.1,423.4,565.1z"/>
	<path class="st0" d="M595.3,525.2h15.1c2.1,7.7,5.2,15,9.2,21.7l-10.6,10.8c-8.7,9.2-8.7,23.8,0.5,32.6c4.6,4.1,10.1,6.4,16.1,6.4
		c6,0,11.9-2.3,16.5-6.9l10.4-10.7c6.5,3.7,13.5,6.5,20.8,8.5v15.5c0,12.8,10.1,22.9,22.9,22.9s22.9-10.1,22.9-22.9v-15.5
		c7.9-2.1,15.4-5.3,22.2-9.3l10.3,10.6c4.6,4.6,10.5,6.9,16.5,6.9c6,0,11.5-2.3,16.1-6.4c9.2-9.2,9.2-23.4,0.5-32.6l-11.1-11.4
		c3.6-6.3,6.4-13.1,8.3-20.3h15.1c12.8,0,22.9-10.1,22.9-22.9c0-12.8-10.1-22.9-22.9-22.9h-14.9c-2-7.6-4.9-14.9-8.8-21.6l10.8-11.4
		c8.7-9.2,8.3-23.8-0.9-32.6c-9.2-8.7-23.8-8.3-32.6,0.9L741,425c-6.8-4-14.1-7-21.8-9.1v-14.6c0-12.8-10.1-22.9-22.9-22.9
		s-22.9,10.1-22.9,22.9v14.6c-7.8,2.1-15.1,5.2-21.9,9.1l-10.2-9.9c-9.2-8.7-23.8-8.7-32.6,0.5c-8.7,9.2-8.7,23.8,0.5,32.6l9.9,9.6
		c-3.8,6.7-6.8,13.9-8.8,21.5h-14.9c-12.8,0-22.9,10.1-22.9,22.9C572.4,515.1,582.5,525.2,595.3,525.2z M696.2,458.7
		c23.8,0,43.1,19.3,43.1,43.1c0,23.8-19.3,43.1-43.1,43.1c-23.8,0-43.1-19.3-43.1-43.1C653.1,477.9,672.4,458.7,696.2,458.7z"/>
</g>
</svg>
