<?xml version="1.0" encoding="utf-8"?>
<!-- Generator: Adobe Illustrator 22.0.0, SVG Export Plug-In . SVG Version: 6.00 Build 0)  -->
<svg version="1.1" id="图层_1" xmlns="http://www.w3.org/2000/svg" xmlns:xlink="http://www.w3.org/1999/xlink" x="0px" y="0px"
	 viewBox="0 0 1024 1024" style="enable-background:new 0 0 1024 1024;" xml:space="preserve">
<style type="text/css">
	.st0{fill:#00B1FF;}
</style>
<g>
	<path class="st0" d="M941.3,782.2c-21.5-18.1-32.3-35.1-32.4-50.5c0-15.4,10.9-32.4,32.4-50.6c7.7-6.5,10.7-17.1,7.5-26.7
		l-34.3-104.2c-3.5-10.8-13.9-17.8-25.1-17c-4.7,0.3-9.3,0.5-13.6,0.5V290.2c0-41-33.4-74.4-74.4-74.4h-24.8v-70.3
		c0-43.3-35.2-78.5-78.4-78.5H160.9c-43.3,0-78.5,35.2-78.6,78.5v537.2c0,43.3,35.3,78.5,78.6,78.5h20.7v74.4
		c0,41,33.4,74.4,74.4,74.4h356.2c6,8.3,10.9,18.9,14.7,31.8c3.1,10.5,12.8,17.8,23.8,17.8h102.9c11,0,20.6-7.2,23.8-17.8
		c7.2-24.4,18.3-40.6,33-48.1c17-8.8,41.4-7.7,72.5,3c11.9,4.1,25-1.4,30.4-12.7l34.4-72.1C952.6,801.7,949.9,789.5,941.3,782.2z
		 M160.9,711.6c-16,0-29-13-29-28.9V145.5c0-16,13-28.9,29-28.9H698c16,0,28.9,13,28.9,28.9v70.3H256c-41,0-74.4,33.4-74.4,74.4
		v421.5H160.9z M231.2,835.6V290.2c0-13.7,11.1-24.8,24.8-24.8h545.4c13.7,0,24.8,11.1,24.8,24.8v236c-29.1-10.8-42.3-31-49.9-47.9
		c-4-8.9-12.9-14.6-22.6-14.6H650.7c-9.8,0-18.6,5.7-22.7,14.6c-11.7,26-36.1,60.2-113.1,54.9c-11.2-0.5-21.5,6.4-25.1,17
		l-34.4,104.2c-3.1,9.6-0.1,20.2,7.6,26.7c21.5,18.1,32.4,35.2,32.4,50.6c0,15.4-10.9,32.4-32.4,50.5c-8.6,7.3-11.3,19.5-6.4,29.7
		l23.1,48.5H256C242.3,860.4,231.2,849.3,231.2,835.6z M895.1,807l-17.4,36.5c-35.1-8.6-65.4-6.6-90,6.1
		c-22.7,11.7-40,31.9-51.6,60.3h-67.8c-11.6-28.4-28.9-48.6-51.6-60.3c-24.6-12.7-54.9-14.7-90-6.1L509.3,807
		c23.8-24.1,35.8-49.3,35.8-75.3c0-26.6-12.6-52.4-37.4-77l23.5-71.5c75.1-0.6,114.3-35.2,134.6-70h72.8
		c20.3,34.9,59.5,69.4,134.6,70l23.5,71.5c-24.8,24.6-37.3,50.4-37.3,77C859.4,757.7,871.4,782.9,895.1,807z"/>
	<path class="st0" d="M702.2,612.5c-54.7,0-99.2,44.5-99.2,99.2s44.5,99.2,99.2,99.2s99.2-44.5,99.2-99.2S756.9,612.5,702.2,612.5z
		 M702.2,761.2c-27.4,0-49.6-22.2-49.6-49.6c0-27.4,22.2-49.6,49.6-49.6c27.4,0,49.6,22.2,49.6,49.6
		C751.8,739,729.6,761.2,702.2,761.2z"/>
</g>
</svg>
