<?xml version="1.0" encoding="utf-8"?>
<!-- Generator: Adobe Illustrator 22.0.0, SVG Export Plug-In . SVG Version: 6.00 Build 0)  -->
<svg version="1.1" id="图层_1" xmlns="http://www.w3.org/2000/svg" xmlns:xlink="http://www.w3.org/1999/xlink" x="0px" y="0px"
	 viewBox="0 0 1024 1024" style="enable-background:new 0 0 1024 1024;" xml:space="preserve">
<style type="text/css">
	.st0{fill:#00B1FF;}
</style>
<g>
	<path class="st0" d="M790.3,480.5H404c-11.7,0-21.2,9.6-21.2,21.3c0,11.7,9.5,21.2,21.2,21.2h386.2c11.7,0,21.2-9.5,21.2-21.2
		C811.5,490.1,801.9,480.5,790.3,480.5z"/>
	<path class="st0" d="M790.3,658.7H404c-11.7,0-21.2,9.6-21.2,21.3c0,11.7,9.5,21.2,21.2,21.2h386.2c11.7,0,21.2-9.5,21.2-21.2
		C811.5,668.3,801.9,658.7,790.3,658.7z"/>
	<path class="st0" d="M901.7,248.1H625l-4.9-13.7c-33.2-91.9-96.5-113.6-143.6-115.6H118.3c-30.3,0-54.9,24.4-54.9,54.3v679.3
		c0,30,24.7,54.3,54.9,54.3h783.5c30.3,0,54.9-24.4,54.9-54.3V302.5C956.7,272.5,932,248.1,901.7,248.1z M104.3,199.1
		c0-42.2,15.4-36.3,79.2-36.3h228.2c96.7,0,121.9,20.8,140.5,53.2l13.9,32.2H104.4L104.3,199.1z M912,367.3v420.4l0,10.9
		c0,63.4-22.3,64.1-75.6,64.1H183.5c-65.2,0-75.6-5.4-75.6-75.1V292.2h742.1C919.1,292.2,912,319.3,912,367.3z"/>
	<rect x="206.6" y="465.2" class="st0" width="69.2" height="69.2"/>
	<rect x="206.6" y="645.1" class="st0" width="69.2" height="69.2"/>
</g>
</svg>
