<?xml version="1.0" encoding="utf-8"?>
<!-- Generator: Adobe Illustrator 22.0.0, SVG Export Plug-In . SVG Version: 6.00 Build 0)  -->
<svg version="1.1" id="图层_1" xmlns="http://www.w3.org/2000/svg" xmlns:xlink="http://www.w3.org/1999/xlink" x="0px" y="0px"
	 viewBox="0 0 1024 1024" style="enable-background:new 0 0 1024 1024;" xml:space="preserve">
<style type="text/css">
	.st0{fill:#00B1FF;}
</style>
<g>
	<path class="st0" d="M602.4,472.2c-76.9,0-139.5,62.6-139.5,139.5c0,76.9,62.6,139.5,139.5,139.5c76.9,0,139.5-62.6,139.5-139.5
		C741.9,534.7,679.3,472.2,602.4,472.2z M602.4,695.8c-46.4,0-84.1-37.7-84.1-84.1c0-46.4,37.7-84.1,84.1-84.1
		c46.4,0,84.1,37.7,84.1,84.1C686.5,658.1,648.8,695.8,602.4,695.8z"/>
	<path class="st0" d="M602.4,695.8c-117.7,0-213.4,95.7-213.4,213.4c0,15.3,12.4,27.7,27.7,27.7c15.3,0,27.7-12.4,27.7-27.7
		c0-87.1,70.9-158,158-158c87.1,0,158,70.9,158,158c0,15.3,12.4,27.7,27.7,27.7c15.3,0,27.7-12.4,27.7-27.7
		C815.8,791.5,720,695.8,602.4,695.8z"/>
	<path class="st0" d="M792.7,505.4c-13.6,0-26.9,2.4-39.5,7.2c-6.9,2.6-12.4,7.8-15.4,14.5c-3,6.8-3.3,14.3-0.6,21.2
		c2.6,6.9,7.8,12.4,14.5,15.4c6.8,3,14.3,3.2,21.2,0.6c6.6-2.4,13.3-3.6,20-3.6c30.9,0,56,25.1,56,56c0,30.9-25.1,56-56,56
		c-15.3,0-27.7,12.4-27.7,27.7s12.4,27.7,27.7,27.7c29.8,0,57.8-11.6,78.9-32.8c21-21.1,32.5-49,32.4-78.6
		C904.1,555.4,854.1,505.4,792.7,505.4z"/>
	<path class="st0" d="M792.8,672.9c-15.3,0-27.7,12.4-27.7,27.7s12.4,27.7,27.7,27.7c61.4,0,111.4,50,111.4,111.4
		c0,15.3,12.4,27.7,27.7,27.7c15.3,0,27.7-12.4,27.7-27.7C959.6,747.7,884.7,672.9,792.8,672.9z"/>
	<path class="st0" d="M715.1,219.5H234.9c-15.3,0-27.7,12.4-27.7,27.7s12.4,27.7,27.7,27.7h480.2c15.3,0,27.7-12.4,27.7-27.7
		S730.4,219.5,715.1,219.5z"/>
	<path class="st0" d="M482.8,359.2H234.9c-15.3,0-27.7,12.4-27.7,27.7c0,15.3,12.4,27.7,27.7,27.7h247.9c15.3,0,27.7-12.4,27.7-27.7
		C510.5,371.6,498.1,359.2,482.8,359.2z"/>
	<path class="st0" d="M374.3,499.1H234.9c-15.3,0-27.7,12.4-27.7,27.7c0,15.3,12.4,27.7,27.7,27.7h139.4c15.3,0,27.7-12.4,27.7-27.7
		C402,511.5,389.6,499.1,374.3,499.1z"/>
	<path class="st0" d="M782.2,64.6H167.9c-55.1,0-100,44.9-100,100v691.7c0,55.1,44.9,100,100,100h253c15.3,0,27.7-12.4,27.7-27.7
		c0-15.3-12.4-27.7-27.7-27.7h-253c-24.6,0-44.5-20-44.5-44.5V164.6c0-24.6,20-44.5,44.5-44.5h614.4c24.6,0,44.5,20,44.5,44.5v222
		c0,15.3,12.4,27.7,27.7,27.7c15.3,0,27.7-12.4,27.7-27.7v-222C882.2,109.4,837.3,64.6,782.2,64.6z"/>
</g>
</svg>
