<?xml version="1.0" encoding="utf-8"?>
<!-- Generator: Adobe Illustrator 22.0.0, SVG Export Plug-In . SVG Version: 6.00 Build 0)  -->
<svg version="1.1" id="图层_1" xmlns="http://www.w3.org/2000/svg" xmlns:xlink="http://www.w3.org/1999/xlink" x="0px" y="0px"
	 viewBox="0 0 1024 1024" style="enable-background:new 0 0 1024 1024;" xml:space="preserve">
<style type="text/css">
	.st0{fill:#00B1FF;}
</style>
<g>
	<path class="st0" d="M382.6,516.7c47.7,0,95.3,2.1,143,0c2,0,2-2.1,6.2-2.1c53.5-14.6,75.3-81.2,41.6-126.9
		c-11.9-16.5-27.8-26.9-47.7-31.1H386.6c-4,0-10.1,2.1-15.9,2.1c-37.8,8.3-65.6,45.7-61.6,85.2C311.1,483.5,342.8,516.7,382.6,516.7
		z M388.6,387.7h111.1c27.8,0,49.7,22.9,47.7,52c0,25-21.8,45.7-43.6,45.7h-55.5h-53.5c-25.8,0-45.6-20.7-47.7-45.7
		C345,412.6,362.8,389.8,388.6,387.7z"/>
	<path class="st0" d="M488,331.6c17.9-10.4,29.9-27.1,35.7-45.7c5.9-18.8,5.9-37.4-2-54c0,0-2-2.1-2-4.2
		c-11.9-31.3-35.7-49.9-69.5-52c-49.7-2.1-89.3,41.5-83.4,95.6C374.9,329.5,438.3,362.7,488,331.6z M446.2,206.8
		c27.9,0,49.7,22.9,49.7,52c0,29.2-21.8,52-49.7,52c-27.8,0-49.7-22.9-49.7-52C396.5,229.7,418.4,206.8,446.2,206.8z"/>
	<path class="st0" d="M938.4,431.4c-21.8-18.8-51.7-16.7-59.6-16.7H855V146.5c0-37.4-29.7-66.6-67.5-66.6H239.6
		c-37.8,0-67.5,31.3-67.5,66.6v268.2h-23.8c-33.7,0-57.6,8.4-71.5,27.1C63,460.5,63,481.4,65,489.6V866c0,20.9,9.9,39.5,25.8,54.1
		c15.9,14.6,35.7,20.7,57.6,20.7H879c21.8,0,41.8-8.3,55.4-16.5c15.9-14.6,25.8-33.4,25.8-54.1V479.3
		C958.2,458.5,952.3,441.8,938.4,431.4z M922.4,479.3v389c0,6.8-3.4,13.2-8.9,18.5L551.4,654l368.6-186
		C921.5,470.5,922.4,474.1,922.4,479.3z M515.6,679.3l341,220.1H174.7L515.6,679.3z M239.8,121.6h547.7c15.9,0,27.9,12.5,27.9,25
		v327.9L515.9,625.8L212,472.2V146.5C212,131.9,223.9,121.6,239.8,121.6z M104.6,483.5c0,0,0-8.4,4-14.6c0.4-0.6,1-1.1,1.5-1.7
		L479.9,654L116.2,889c-7.2-5.6-11.6-12.9-11.6-20.8V483.5z"/>
	<path class="st0" d="M579.3,265h119.1c9.9,0,17.8-8.3,17.8-18.6c0-10.4-7.9-18.6-17.8-18.6H579.3c-9.9,0-17.8,8.3-17.8,18.6
		C561.5,256.7,569.4,265,579.3,265z"/>
	<path class="st0" d="M698.4,331.8H613c-9.9,0-17.8,8.3-17.8,18.6c0,10.4,7.9,18.6,17.8,18.6h85.4c9.9,0,17.8-8.3,17.8-18.6
		C716.2,340,708.3,331.8,698.4,331.8z"/>
	<path class="st0" d="M698.4,435.7h-67.5c-9.9,0-17.8,8.3-17.8,18.6c0,10.4,7.9,18.6,17.8,18.6h67.5c9.9,0,17.8-8.3,17.8-18.6
		C716.2,443.9,708.3,435.7,698.4,435.7z"/>
</g>
</svg>
