<?xml version="1.0" encoding="utf-8"?>
<!-- Generator: Adobe Illustrator 22.0.0, SVG Export Plug-In . SVG Version: 6.00 Build 0)  -->
<svg version="1.1" id="图层_1" xmlns="http://www.w3.org/2000/svg" xmlns:xlink="http://www.w3.org/1999/xlink" x="0px" y="0px"
	 viewBox="0 0 1024 1024" style="enable-background:new 0 0 1024 1024;" xml:space="preserve">
<style type="text/css">
	.st0{fill:#00B1FF;}
</style>
<g>
	<polygon class="st0" points="803.4,903.4 118.7,903.4 118.7,116.4 803.4,116.4 803.4,415.9 849.9,415.9 849.9,69.9 72.2,69.9 
		72.2,949.8 849.9,949.8 849.9,822.2 803.4,822.2 	"/>
	<rect x="226.2" y="527.3" class="st0" width="215.2" height="49.2"/>
	<rect x="590.4" y="615.9" class="st0" width="293.8" height="49.2"/>
	<rect x="226.2" y="379.7" class="st0" width="293.8" height="49.2"/>
	<rect x="226.2" y="232.1" class="st0" width="458.4" height="49.2"/>
	<path class="st0" d="M849.4,488.1v-35.3h-49.2v35.3H662.3v-35.3h-49.2v35.3H513v301.2h438.9V488.1H849.4z M902.7,740.1H562.3V537.3
		h50.9v21.6h49.2v-21.6h137.8v21.6h49.2v-21.6h53.4V740.1z"/>
</g>
</svg>
