<?xml version="1.0" encoding="utf-8"?>
<!-- Generator: Adobe Illustrator 22.0.0, SVG Export Plug-In . SVG Version: 6.00 Build 0)  -->
<svg version="1.1" id="图层_1" xmlns="http://www.w3.org/2000/svg" xmlns:xlink="http://www.w3.org/1999/xlink" x="0px" y="0px"
	 viewBox="0 0 1024 1024" style="enable-background:new 0 0 1024 1024;" xml:space="preserve">
<style type="text/css">
	.st0{fill:#00B1FF;}
</style>
<g>
	<path class="st0" d="M714.7,699.3c11.2-10.8,29-10.5,39.7,0.7c10.6,10.9,10.6,28.1-0.1,39.1l-49,49.1l152.7-0.8
		c15.3,0.1,27.6,12.3,27.9,27.6c0.3,15.5-12.1,28.3-27.7,28.6l-151.4,0.8l47.6,47.6c10.6,11,10.6,28.1,0,39.1
		c-5.5,5.7-12.8,8.5-20.2,8.5c-7.1,0-14.1-2.6-19.6-8l-84.7-84.7c-8.4-8.4-13-19.6-13-31.4c0-11.9,4.6-23,13-31.4L714.7,699.3z"/>
	<path class="st0" d="M924.9,380L561.3,80.7c-27.4-22.6-67.2-22.6-94.6,0L103.1,380c-5.7,4.9-9.1,11.7-9.7,19.2
		c-0.6,7.5,1.8,14.7,6.7,20.4c9.8,11.5,26.9,13.1,38.7,3.8l11.2-8.8h-0.5l12.9-10.6v507.1c0,15.5,12.6,28.1,28.1,28.1h198.8
		c15.5,0,28.1-12.6,28.1-28.1c0-7.5-2.9-14.6-8.2-19.9c-5.3-5.3-12.4-8.2-19.9-8.2H218.6l-0.1-525.2l283.9-233.7
		c6.7-5.5,16.4-5.5,23.1,0l276.3,227.4c3.3,4.6,14,13.7,45.5,37.5l41.9,34.5c12.2,9.5,30,7.2,39.5-5
		C937.8,406.7,936.2,389.8,924.9,380z"/>
	<path class="st0" d="M533.2,727.2h-222c-15.3,0-27.7,13.2-27.7,29.4s12.4,29.4,27.7,29.4h222c15.3,0,27.7-13.2,27.7-29.4
		S548.5,727.2,533.2,727.2z"/>
	<path class="st0" d="M311.3,448.2H778c15.3,0,27.7-13.2,27.7-29.4c0-16.2-12.4-29.4-27.7-29.4H311.3c-15.3,0-27.7,13.2-27.7,29.4
		C283.5,435,296,448.2,311.3,448.2z"/>
	<path class="st0" d="M311.3,624.5H778c15.3,0,27.7-13.2,27.7-29.4c0-16.2-12.4-29.4-27.7-29.4H311.3c-15.3,0-27.7,13.2-27.7,29.4
		C283.5,611.3,296,624.5,311.3,624.5z"/>
</g>
</svg>
