<?xml version="1.0" encoding="utf-8"?>
<!-- Generator: Adobe Illustrator 22.0.0, SVG Export Plug-In . SVG Version: 6.00 Build 0)  -->
<svg version="1.1" id="图层_1" xmlns="http://www.w3.org/2000/svg" xmlns:xlink="http://www.w3.org/1999/xlink" x="0px" y="0px"
	 viewBox="0 0 1024 1024" style="enable-background:new 0 0 1024 1024;" xml:space="preserve">
<style type="text/css">
	.st0{fill:#00B1FF;}
</style>
<g>
	<path class="st0" d="M794.4,713.2c-11.2-10.9-29.2-10.6-40.1,0.7c-10.7,11-10.7,28.3,0.1,39.4l49.4,49.5l-154-0.8
		c-15.5,0.1-27.8,12.4-28.1,27.8c-0.3,15.6,12.2,28.6,27.9,28.9l152.7,0.8l-48,48c-10.7,11.1-10.7,28.4,0,39.4
		c5.5,5.7,12.9,8.6,20.3,8.6c7.1,0,14.3-2.7,19.8-8l85.5-85.4c8.5-8.5,13.1-19.7,13.1-31.7s-4.7-23.2-13.1-31.7L794.4,713.2z"/>
	<path class="st0" d="M932.3,391.2L565.7,89.3c-27.6-22.8-67.8-22.8-95.4,0L103.5,391.3c-5.7,4.9-9.2,11.8-9.8,19.4
		c-0.6,7.5,1.8,14.9,6.8,20.6c9.9,11.6,27.1,13.2,39,3.8l11.3-8.9h-0.5l13-10.7v511.4c0,15.6,12.7,28.3,28.3,28.4h200.5
		c15.6,0,28.4-12.7,28.4-28.3c0-7.6-2.9-14.7-8.3-20c-5.4-5.4-12.5-8.3-20-8.3H220L220,368.8l286.3-235.7c6.8-5.6,16.6-5.5,23.3,0
		l278.6,229.4c3.3,4.6,14.1,13.8,45.9,37.8l42.3,34.8c12.4,9.6,30.2,7.3,39.8-5.1C945.4,418.1,943.7,401.1,932.3,391.2z"/>
	<path class="st0" d="M537.3,741.4H313.5c-15.4,0-28,13.3-28,29.7s12.6,29.7,28,29.7h223.9c15.4,0,28-13.3,28-29.7
		S552.8,741.4,537.3,741.4z"/>
	<path class="st0" d="M313.5,460h470.7c15.4,0,28-13.3,28-29.7c0-16.4-12.6-29.7-28-29.7H313.5c-15.4,0-28,13.3-28,29.7
		C285.5,446.7,298,460,313.5,460z"/>
	<path class="st0" d="M313.5,637.8h470.7c15.4,0,28-13.3,28-29.7c0-16.4-12.6-29.7-28-29.7H313.5c-15.4,0-28,13.3-28,29.7
		C285.5,624.5,298,637.8,313.5,637.8z"/>
</g>
</svg>
