<?xml version="1.0" encoding="utf-8"?>
<!-- Generator: Adobe Illustrator 22.0.0, SVG Export Plug-In . SVG Version: 6.00 Build 0)  -->
<svg version="1.1" id="图层_1" xmlns="http://www.w3.org/2000/svg" xmlns:xlink="http://www.w3.org/1999/xlink" x="0px" y="0px"
	 viewBox="0 0 1024 1024" style="enable-background:new 0 0 1024 1024;" xml:space="preserve">
<style type="text/css">
	.st0{fill:#00B1FF;}
</style>
<g>
	<path class="st0" d="M806.8,68.8H223.7c-86.2,0-87.2,86.3-87.2,87.2v712.6c0,0.9,1,87.2,91.2,87.2h475.8l186.1-149.6V156
		C889.6,155.1,888.6,68.8,806.8,68.8z M243.7,909.5c-60.1-3.7-60.9-58.4-60.9-60.8V176.3c0-2.5,0.8-60.8,60.8-60.8l538.9,0
		c60.1,3.3,60.9,58.4,60.9,60.8v606.7L677.1,909.5L243.7,909.5z"/>
	<path class="st0" d="M269.5,254.2H484c6.7,0,13-2.6,17.8-7.4c4.7-4.7,7.4-11.1,7.4-17.8s-2.6-13-7.4-17.8
		c-4.7-4.7-11.1-7.4-17.8-7.4H269.5c-13.9,0-25.1,11.3-25.1,25.1S255.6,254.2,269.5,254.2z"/>
	<path class="st0" d="M718.3,708.8l-189,0.7l46.5-46.5c9-9.3,9-23.9,0-33.2c-4.4-4.6-10.4-7.2-16.8-7.3c-6.3-0.1-12.4,2.3-17.1,6.8
		l-76.2,76.2c-7.3,7.3-11.3,17-11.3,27.3s4,20,11.3,27.3l76.2,76.2c4.7,4.5,10.6,6.7,16.5,6.7c6.1,0,12.2-2.4,16.9-7
		c9.3-9.3,9.5-23.9,0.4-33.4l-45.1-45.1l187.9-0.7c13-0.2,23.5-11,23.5-24C742,719.6,731.4,708.9,718.3,708.8z"/>
	<path class="st0" d="M720.4,349.3h-451c-8.9,0-17.3,4.8-21.8,12.6c-4.5,7.7-4.5,17.4,0,25.1c4.5,7.7,12.8,12.6,21.8,12.6h451
		c6.7,0,13-2.6,17.8-7.4c4.7-4.7,7.4-11.1,7.4-17.8c0-6.7-2.6-13-7.4-17.8C733.5,351.9,727.2,349.3,720.4,349.3z"/>
	<path class="st0" d="M720.4,507.9h-451c-8.9,0-17.3,4.8-21.8,12.6c-4.5,7.7-4.5,17.4,0,25.1c4.5,7.7,12.8,12.6,21.8,12.6h451
		c6.7,0,13-2.6,17.8-7.4c4.7-4.7,7.4-11.1,7.4-17.8C745.6,519.1,734.3,507.9,720.4,507.9z"/>
</g>
</svg>
