<?xml version="1.0" encoding="utf-8"?>
<!-- Generator: Adobe Illustrator 22.0.0, SVG Export Plug-In . SVG Version: 6.00 Build 0)  -->
<svg version="1.1" id="图层_1" xmlns="http://www.w3.org/2000/svg" xmlns:xlink="http://www.w3.org/1999/xlink" x="0px" y="0px"
	 viewBox="0 0 1024 1024" style="enable-background:new 0 0 1024 1024;" xml:space="preserve">
<style type="text/css">
	.st0{fill:#00B1FF;}
</style>
<g>
	<path class="st0" d="M808.6,63.9H222c-86.7,0-87.7,86.9-87.7,87.7v716.8c0,0.9,1,87.7,91.7,87.7h478.7l187.2-150.5V151.7
		C891.9,150.8,891,63.9,808.6,63.9z M242.2,909.7c-60.5-3.8-61.3-58.8-61.3-61.1V172.1c0-2.5,0.8-61.1,61.1-61.1l542.1,0
		c60.5,3.3,61.3,58.8,61.3,61.1v610.3L678.2,909.7L242.2,909.7z"/>
	<path class="st0" d="M268.1,250.5h215.8c6.8,0,13.1-2.6,17.9-7.4c4.8-4.8,7.4-11.1,7.4-17.9s-2.6-13.1-7.4-17.9
		c-4.8-4.8-11.1-7.4-17.9-7.4H268.1c-13.9,0-25.3,11.3-25.3,25.3S254.2,250.5,268.1,250.5z"/>
	<path class="st0" d="M478.1,707.8l190.1,0.7l-46.7-46.7c-9.1-9.4-9.1-24.1,0-33.4c4.5-4.6,10.5-7.2,16.9-7.4
		c6.4-0.1,12.5,2.3,17.2,6.8l76.7,76.6c7.3,7.3,11.4,17.1,11.4,27.5s-4,20.1-11.4,27.5L655.5,836c-4.7,4.5-10.7,6.7-16.6,6.7
		c-6.1,0-12.3-2.4-17-7.1c-9.3-9.3-9.5-24.1-0.4-33.6l45.4-45.4l-189-0.7c-13.1-0.2-23.7-11.1-23.6-24.2
		C454.2,718.7,465,707.9,478.1,707.8z"/>
	<path class="st0" d="M721.8,346.2H268.1c-9,0-17.4,4.8-21.9,12.6c-4.5,7.8-4.5,17.5,0,25.3c4.5,7.8,12.9,12.6,21.9,12.6h453.7
		c6.8,0,13.1-2.6,17.9-7.4c4.8-4.8,7.4-11.1,7.4-17.9s-2.6-13.1-7.4-17.9C734.9,348.8,728.5,346.2,721.8,346.2z"/>
	<path class="st0" d="M721.8,505.7H268.1c-9,0-17.4,4.8-21.9,12.6c-4.5,7.8-4.5,17.5,0,25.3c4.5,7.8,12.9,12.6,21.9,12.6h453.7
		c6.8,0,13.1-2.6,17.9-7.4c4.8-4.8,7.4-11.1,7.4-17.9C747.1,517,735.7,505.7,721.8,505.7z"/>
</g>
</svg>
