<?xml version="1.0" encoding="utf-8"?>
<!-- Generator: Adobe Illustrator 22.0.0, SVG Export Plug-In . SVG Version: 6.00 Build 0)  -->
<svg version="1.1" id="图层_1" xmlns="http://www.w3.org/2000/svg" xmlns:xlink="http://www.w3.org/1999/xlink" x="0px" y="0px"
	 viewBox="0 0 1024 1024" style="enable-background:new 0 0 1024 1024;" xml:space="preserve">
<style type="text/css">
	.st0{fill:#00B1FF;}
</style>
<g>
	<path class="st0" d="M936.2,592c-12-12.2-27.9-18.9-44.8-18.9h-42.8c-4.6-26.5-17.8-50.7-37.5-68.8c-18.9-19.4-49.6-31.4-80.2-31.4
		c-58.3,0-107.6,42.6-117.7,100.2h-42.8c-34.9,0-63.3,28.9-63.3,64.3v218.6c0,35.5,28.4,64.3,63.3,64.3h320.9
		c34.9,0,63.3-28.9,63.3-64.3V637.5C954.7,620.3,948.2,604.2,936.2,592z M730.9,510.2c39.5,0.3,69,30.7,78,62.9H653.1
		C663,538.4,697.3,510,730.9,510.2z M891.4,881.2H570.5c-11,0-24.6-13.9-24.6-25.2v-86.5c14.1,8.1,30.8,13,45.4,13h279.4
		c15.6,0,32-4.1,45.4-11.1l0,84.6C916.1,867.4,902.5,881.2,891.4,881.2z M903.4,731.2L903.4,731.2c-7,7.1-20.7,12.2-32.8,12.2H591.3
		c-11.7,0-26-5.4-33.1-12.6c-7.2-7.3-12.7-14.3-12.3-33.2v-60.1c0-11.3,13.6-25.2,24.6-25.2h320.9c11,0,24.6,13.9,24.6,25.2l0,60
		C915.7,717.3,910.8,723.7,903.4,731.2z"/>
	<path class="st0" d="M731,626.1c-29.7,0-53.9,24.6-53.9,54.8c0,30.2,24.2,54.8,53.9,54.8s53.9-24.6,53.9-54.8
		C784.9,650.7,760.7,626.1,731,626.1z M731,696.4l-0.8,0c-7.9-0.4-14.2-7.2-14.2-15.4c0-8.5,6.7-15.4,15-15.4s15,6.9,15,15.4
		C745.9,689.4,739.2,696.4,731,696.4z"/>
	<path class="st0" d="M442.9,859.6H165.3c-25.5,0-46.3-20.8-46.3-46.3V199.7c0-25.5,20.8-46.3,46.3-46.3h574
		c25.5,0,46.3,20.8,46.3,46.3v199.3h50V199.7c0-53.1-43.2-96.3-96.3-96.3h-574c-53.1,0-96.3,43.2-96.3,96.3v613.7
		c0,53.1,43.2,96.3,96.3,96.3h277.7l0,0V859.6z"/>
	<rect x="195" y="336.7" class="st0" width="496.8" height="50"/>
	<rect x="195" y="467.5" class="st0" width="320.3" height="50"/>
	<polygon class="st0" points="195,616 195,666 431.9,666 431.9,616 195,616 	"/>
</g>
</svg>
