<?xml version="1.0" encoding="utf-8"?>
<!-- Generator: Adobe Illustrator 22.0.0, SVG Export Plug-In . SVG Version: 6.00 Build 0)  -->
<svg version="1.1" id="图层_1" xmlns="http://www.w3.org/2000/svg" xmlns:xlink="http://www.w3.org/1999/xlink" x="0px" y="0px"
	 viewBox="0 0 1024 1024" style="enable-background:new 0 0 1024 1024;" xml:space="preserve">
<style type="text/css">
	.st0{fill:#00B1FF;}
</style>
<g>
	<path class="st0" d="M841,274.6H737.1c-6.5-58.7-33.8-110-74.4-147.1C628.4,92,571,67.7,509.9,67.7
		c-117.4,0-214.4,90.6-227.2,206.9h-104c-62.1,0-112.6,51.5-112.6,114.7v451.2c0,63.2,50.5,114.7,112.6,114.7H841
		c62.1,0,112.6-51.5,112.6-114.7V389.3C953.6,326.1,903.1,274.6,841,274.6z M509.9,108.7c96,0.8,170.6,79.9,183.1,165.9H326.8
		C339.2,188.6,422.1,108,509.9,108.7z M841,910.5H178.7c-32.5,0-68.9-36.9-68.9-70V627.1c27.3,24,72.8,43.5,111.8,43.5h576.6
		c38.9,0,84.5-14.5,111.8-38.5l0,208.4C909.9,873.6,873.6,910.5,841,910.5z M878.6,595.5c-19.2,19.5-53.3,30.5-80.4,30.5H221.6
		c-27.1,0-61.7-11.8-81-31.3c-19.3-19.5-31.4-38.8-30.7-81.2V389.3c0-33.1,36.4-70,68.9-70H841c32.5,0,68.9,36.9,68.9,70l0,124.1
		C909.2,558.3,897.9,576,878.6,595.5z"/>
	<path class="st0" d="M509.9,384c-51.4,0-93.3,42.6-93.3,95.1s41.8,95.1,93.3,95.1c51.4,0,93.3-42.6,93.3-95.1S561.3,384,509.9,384z
		 M509.9,528.9L509.9,528.9c-27,0-49-22.3-49-49.9c0-27.5,22-49.9,49-49.9s49,22.4,49,49.9C558.8,506.6,536.9,528.9,509.9,528.9z"/>
</g>
</svg>
