<?xml version="1.0" encoding="utf-8"?>
<!-- Generator: Adobe Illustrator 22.0.0, SVG Export Plug-In . SVG Version: 6.00 Build 0)  -->
<svg version="1.1" id="图层_1" xmlns="http://www.w3.org/2000/svg" xmlns:xlink="http://www.w3.org/1999/xlink" x="0px" y="0px"
	 viewBox="0 0 1024 1024" style="enable-background:new 0 0 1024 1024;" xml:space="preserve">
<style type="text/css">
	.st0{fill:#FFFFFF;}
</style>
<path class="st0" d="M513.2,77.9L71.1,294v432.3l442.1,216.2l442.1-216.2V294L513.2,77.9z M889.6,304.7l-130.4,63.8l-246-120.3
	l-246,120.3l-130.4-63.8l376.4-184L889.6,304.7z M289.1,422l202.2,98.9v197.7l-202.2-98.9L289.1,422L289.1,422z M535.1,520.9
	L737.3,422v197.7l-202.2,98.9V520.9z M513.2,488.7L311,389.9L513.2,291l202.2,98.9L513.2,488.7z M114.9,336.8l130.4,63.8v240.5
	l246,120.3v127.5l-376.4-184C114.9,704.9,114.9,336.8,114.9,336.8z M535.1,888.9V761.4l246-120.3V400.6l130.4-63.8v368.1
	L535.1,888.9z"/>
</svg>
