<?xml version="1.0" encoding="utf-8"?>
<!-- Generator: Adobe Illustrator 22.0.0, SVG Export Plug-In . SVG Version: 6.00 Build 0)  -->
<svg version="1.1" id="图层_1" xmlns="http://www.w3.org/2000/svg" xmlns:xlink="http://www.w3.org/1999/xlink" x="0px" y="0px"
	 viewBox="0 0 1024 1024" style="enable-background:new 0 0 1024 1024;" xml:space="preserve">
<style type="text/css">
	.st0{fill:#00B1FF;}
</style>
<g>
	<path class="st0" d="M623.2,620.8c0,13.4,10.9,24.4,24.4,24.4h212.7c13.4,0,24.4-10.9,24.4-24.4c0-13.4-10.9-24.4-24.4-24.4H647.6
		C634.1,596.4,623.2,607.4,623.2,620.8z"/>
	<path class="st0" d="M647.6,745.3c-13.5,0-24.4,10.9-24.4,24.4c0,13.4,10.9,24.4,24.4,24.4h233.9c13.4,0,24.4-10.9,24.4-24.4
		c0-13.4-10.9-24.4-24.4-24.4H647.6z"/>
	<path class="st0" d="M915.5,894.2l-285-0.4c-13.5,0-24.4,10.9-24.4,24.4c0,13.4,10.9,24.4,24.4,24.4l285,0.4
		c13.4,0,24.4-10.9,24.4-24.4C939.9,905.1,929,894.2,915.5,894.2z"/>
	<path class="st0" d="M536.9,594.9c-1.6-12-12-21.1-24.1-21.1h-58.8c-12.1,0-22.5,9.1-24.1,21.1l-22,163.9c-1,7.6,1.6,15.3,7.1,20.6
		c33.8,33.1,56.3,49.2,68.9,49.2c12.6,0,35-16.1,68.6-49.2c5.5-5.4,8.1-13.1,7.1-20.7L536.9,594.9z M509.5,753.2
		c-9.9,9.4-18.5,16.8-25.7,22.2c-9.1-6.9-17.8-14.4-26-22.3l17.5-130.5h16.2L509.5,753.2z"/>
	<path class="st0" d="M152.2,894c-17-3.2-20.4-8.2-20.4-14.8c0-153.9,99.5-297.4,242.2-349.4c95.7,53.9,218.4,34.1,292.2-47.5
		c87.7-96.9,80.2-247.1-16.8-334.8c-47-42.5-107.7-64.1-170.9-61c-63.2,3.2-121.5,30.8-163.9,77.7c-42.5,47-64.1,107.7-61,170.9
		c3.1,61.6,29.4,118.5,74.2,160.7C181.2,562.7,83,715.2,83,876.9c0,33,21.4,55.1,60.2,62.4c12.6,2.3,22.9,2.8,37.6,2.8h312.6v-46.1
		H180.8C168.9,895.9,160.9,895.6,152.2,894z M301.9,323.1c0-103.8,84.5-188.3,188.3-188.3c103.8,0,188.3,84.5,188.3,188.3
		c0,103.8-84.5,188.3-188.3,188.3C386.4,511.4,301.9,426.9,301.9,323.1z"/>
</g>
</svg>
