<?xml version="1.0" encoding="utf-8"?>
<!-- Generator: Adobe Illustrator 22.0.0, SVG Export Plug-In . SVG Version: 6.00 Build 0)  -->
<svg version="1.1" id="图层_1" xmlns="http://www.w3.org/2000/svg" xmlns:xlink="http://www.w3.org/1999/xlink" x="0px" y="0px"
	 viewBox="0 0 1024 1024" style="enable-background:new 0 0 1024 1024;" xml:space="preserve">
<style type="text/css">
	.st0{fill:#00B1FF;}
</style>
<g>
	<path class="st0" d="M878,258.1c-0.7-31.1-12.2-56.1-40.5-72.4c-18.4-10.6-38.1-12.5-58.3-12.5c-177.7-0.2-355.3-0.2-533,0
		c-10.5,0-20.7-1.9-31.1-2.4c-5.2-0.3-7.4-2.9-7.9-8.2c-2.2-25.3,7.7-39.3,35.2-39.3c197.5,0.1,394.9,0.2,592.3,0.2
		c5,0,10.1,0.2,15.1-0.4c15-1.9,27.5-17.2,26.4-32c-1.1-15.4-12.7-26.5-28.3-26.5c-209,0-417.9,0-626.9,0
		c-8.3-0.2-16.5,1.7-23.9,5.5c-30.8,16.5-49,40.8-48.9,77.3c0.3,121.2,0.1,242.4,0.1,363.6c0,70.1,0,140.2,0,210.4
		c0,53.2,0.8,106.5-0.1,159.7c-0.6,39.3,43.2,78.9,79.3,78.6c189.5-1.3,379.1-0.7,568.6-0.5c26.2,0,45-12.9,60.7-31.6
		c16.5-19.7,21.2-43.6,21.2-68.6V328.2C878,304.8,878.4,281.5,878,258.1z M815.6,699v165.1c0,6.1-0.2,12.2-2.1,18.1
		c-3,9.7-9.7,14.9-19.6,15.9c-3.9,0.3-7.9,0.3-11.9,0.2H239.5c-24.1,0-32.2-8-32.2-32.3V557.4v-0.1c0-102.8,0-205.6,0-308.4
		c0-14.6,0-14.5,14.7-13.5c7.2,0.5,14.4,0.4,21.6,0.4h532.9c4.7,0,9.3-0.1,14,0c19.5,0.3,25.1,5.9,25.1,25.1V699z"/>
	<path class="st0" d="M622.4,588c-8-4.9-10.2-8-2.5-15.8c15.9-15.9,26.7-36.2,30.9-58.3c9.4-49.8-4-93.2-42-127.8
		c-24.8-22.5-54.9-33.7-87.7-33.2c-37.8,0.6-70.4,15.5-96,44.3c-31.4,35.3-39.7,76.1-29.3,121.3c4.4,19.2,13.7,36.1,26.8,50.9
		c4.1,4.7,6.6,9.1-1.5,12.3c-11.9,4.7-21.5,13.1-31,21.2c-42.7,36.3-66.6,82.6-70.6,138.7l0,0c-0.3,4.3-0.7,8.6-0.8,12.9
		c-0.4,13.6,7.4,21.9,18.4,28.1c9.6,5.4,18.9,3.5,27.4-2.3c10.1-7,15.7-16.8,15.2-29.3c-0.7-17.7,4-34,10.7-50
		c30.3-73.2,116.9-104.5,186.3-70.1c48.8,24.2,76,64.2,77.3,120c0.4,15.6,10.3,29.8,22.9,33.3c21.4,6.1,40-9.8,39.2-34.2
		c-0.6-18.7-3.2-37.3-9.5-55C690.7,650,663.8,613.2,622.4,588z M523,555.3c-43.4-0.7-72.1-35.2-71.2-70.9
		c1-37.9,28.6-68.2,70.3-69.6c31.2-1,72.4,26.3,69.3,70.5l0,0C595.1,524.9,556.4,555.9,523,555.3z"/>
</g>
</svg>
