<?xml version="1.0" encoding="utf-8"?>
<!-- Generator: Adobe Illustrator 22.0.0, SVG Export Plug-In . SVG Version: 6.00 Build 0)  -->
<svg version="1.1" id="图层_1" xmlns="http://www.w3.org/2000/svg" xmlns:xlink="http://www.w3.org/1999/xlink" x="0px" y="0px"
	 viewBox="0 0 1024 1024" style="enable-background:new 0 0 1024 1024;" xml:space="preserve">
<style type="text/css">
	.st0{fill:#00B1FF;}
</style>
<g>
	<path class="st0" d="M126,814.7V125.9h567.2c45,0,80.3,38.1,80.3,86.7v233.5h57.1V193.4c0-69.9-51.9-124.6-118.2-124.6H68.8v765.1
		c0,69.9,51.9,124.6,118.2,124.6h259.1v-57.1H206.3C161.2,901.5,126,863.4,126,814.7z"/>
	<path class="st0" d="M834,520.7c-121.1,0-121.1,64.5-121.1,95.5v51.5l-10.8-7.2c-17.5-11.6-35.4-11.6-60.2-11.6
		c-121.2,0-121.2,64.5-121.2,95.5v115.3c0,26.1,0,95.5,121.2,95.5c48.3,0,78.5-15.3,92.2-24.5l3.9-2.6l3.9,2.6
		c13.7,9.1,43.9,24.5,92.2,24.5c121.1,0,121.1-69.4,121.1-95.5V616.2C955.1,590.1,955.1,520.7,834,520.7z M641.8,898.6
		c-40.5,0-71-14-71-32.6v-74.4l11.9,11.9c11.9,11.9,30.1,17.2,59.1,17.2c29.7,0,60.1-18.1,60.4-18.2l10.5-6.3l0,69.9
		C712.8,884.6,682.3,898.6,641.8,898.6z M641.8,776.9c-43.1,0-71-15.3-71-39c0-7.6,3.1-14.8,9-20.7c11.8-11.8,33.8-18.3,62-18.3
		c43.1,0,71,15.3,71,39C712.8,761.6,685,776.9,641.8,776.9z M905,866c0,18.6-30.5,32.6-71,32.6c-40.5,0-71-14-71-32.6v-74.4
		l11.9,11.9c11.9,11.9,30.1,17.2,59.1,17.2c29.8,0,60.1-18.1,60.5-18.2L905,796V866z M905,744.3c0,12.9-31.8,32.6-71,32.6
		c-40.5,0-71-14-71-32.6v-74.4l11.9,11.9c11.9,11.9,30.1,17.2,59.1,17.2c29.8,0,60.1-18.1,60.5-18.2l10.5-6.3V744.3z M834,648.8
		c-43.1,0-71-15.3-71-39c0-7.6,3.1-14.8,9-20.7c11.8-11.8,33.8-18.3,62-18.3c43.1,0,71,15.3,71,39C905,633.5,877.1,648.8,834,648.8z
		"/>
	<path class="st0" d="M702.4,321.6c0-17.4-11.3-28.6-28.6-28.6H225.5c-17.4,0-28.6,11.2-28.6,28.6c0,17.4,11.2,28.6,28.6,28.6h448.4
		C691.2,350.1,702.4,338.9,702.4,321.6z"/>
	<path class="st0" d="M417.7,677.3H225.5c-17.4,0-28.6,11.2-28.6,28.6s11.2,28.6,28.6,28.6h192.1c17.4,0,28.6-11.2,28.6-28.6
		S435,677.3,417.7,677.3z"/>
	<path class="st0" d="M225.5,485.2c-17.4,0-28.6,11.2-28.6,28.6c0,17.4,11.2,28.6,28.6,28.6h352.3c17.4,0,28.6-11.2,28.6-28.6
		c0-17.3-11.3-28.6-28.6-28.6H225.5z"/>
</g>
</svg>
