<?xml version="1.0" encoding="utf-8"?>
<!-- Generator: Adobe Illustrator 22.0.0, SVG Export Plug-In . SVG Version: 6.00 Build 0)  -->
<svg version="1.1" id="图层_1" xmlns="http://www.w3.org/2000/svg" xmlns:xlink="http://www.w3.org/1999/xlink" x="0px" y="0px"
	 viewBox="0 0 1024 1024" style="enable-background:new 0 0 1024 1024;" xml:space="preserve">
<style type="text/css">
	.st0{fill:#FFFFFF;}
</style>
<g>
	<g>
		<path class="st0" d="M942.6,483.8L539.4,80.6c-11.3-11.3-31.4-11.3-42.7,0L93.8,483.5c-13.7,13.7-10.1,31.6,0.5,42.2
			c10.6,10.6,28.5,14.2,42.1,0.5L518,144.6l381.8,381.9c5.8,5.8,13,8.9,20.5,8.9c2.4,0,4.9-0.3,7.3-1c10.9-2.9,19.9-11.9,22.8-22.8
			C953.1,501.6,950.3,491.5,942.6,483.8z"/>
		<path class="st0" d="M784,891.7H251.7c-16.8,0-19.9-12-19.9-35.6V532c0-38.6-60.3-38.6-60.3,0v326c0,24.5,3.5,55.3,30.8,76.8
			c20,15.8,42.9,17.1,62.7,17.1h519c19.3,0,29.4-15.2,29.4-30.2C813.4,906.8,803.3,891.7,784,891.7z"/>
		<path class="st0" d="M803.5,532v275.2c0,19.3,15.2,29.4,30.2,29.4s30.2-10.1,30.2-29.4V532C863.8,493.3,803.5,493.3,803.5,532z"/>
	</g>
	<path class="st0" d="M418.8,604.1H307.5l22.6,22.6V515.4L307.5,538h111.3l-22.6-22.6v111.3c0,29.1,45.1,29.1,45.1,0V515.4
		c0-12.3-10.3-22.6-22.6-22.6H307.5c-12.3,0-22.6,10.3-22.6,22.6v111.3c0,12.3,10.3,22.6,22.6,22.6h111.3
		C447.9,649.2,447.9,604.1,418.8,604.1z M613.5,801.8H502.2l22.6,22.6V713.1l-22.6,22.6h111.3l-22.6-22.6v111.3
		c0,29.1,45.1,29.1,45.1,0V713.1c0-12.3-10.3-22.6-22.6-22.6H502.2c-12.3,0-22.6,10.3-22.6,22.6v111.3c0,12.3,10.3,22.6,22.6,22.6
		h111.3C642.6,847,642.6,801.8,613.5,801.8L613.5,801.8z M418.8,800.6H307.5l22.6,22.6V711.8l-22.6,22.6h111.3l-22.6-22.6v111.3
		c0,29.1,45.1,29.1,45.1,0V711.8c0-12.3-10.3-22.6-22.6-22.6H307.5c-12.3,0-22.6,10.3-22.6,22.6v111.3c0,12.3,10.3,22.6,22.6,22.6
		h111.3C447.9,845.7,447.9,800.6,418.8,800.6L418.8,800.6z"/>
</g>
</svg>
