<?xml version="1.0" encoding="utf-8"?>
<!-- Generator: Adobe Illustrator 22.0.0, SVG Export Plug-In . SVG Version: 6.00 Build 0)  -->
<svg version="1.1" id="图层_1" xmlns="http://www.w3.org/2000/svg" xmlns:xlink="http://www.w3.org/1999/xlink" x="0px" y="0px"
	 viewBox="0 0 1024 1024" style="enable-background:new 0 0 1024 1024;" xml:space="preserve">
<style type="text/css">
	.st0{fill:#00B1FF;}
	.st1{fill:#231815;}
</style>
<g>
	<path class="st0" d="M945.8,389.4l-386.5-301c-28.2-21.9-69.1-21.9-97.2,0L75.4,389.5c-11.2,9.1-12.6,25.2-3.3,35.9
		c9.3,10.7,26.4,12.5,37.9,3.9l5.9-4.4h-0.3l23.7-18.4v515.4c0,6.9,2.8,13.4,8,18.2c5.2,4.9,12,7.5,19.3,7.5H378
		c9.7,0,18.8-4.9,23.6-12.9c4.9-8,4.9-17.8,0-25.8c-4.8-8-13.9-12.9-23.6-12.9H193.9V364l302.8-235.8c8.1-6.3,19.8-6.3,27.9,0
		l293,228.2c-0.7,2.3-1.1,4.6-1.1,7v71.9c0,6.9,2.9,13.4,8,18.2c5.1,4.9,12,7.5,19.2,7.5c0,0,0,0,0,0c15,0,27.2-11.6,27.2-25.8V398
		l40.2,31.3c11.7,8.6,28.3,6.8,37.7-4C958.4,414.4,957,398.7,945.8,389.4z"/>
	<path class="st0" d="M267.4,720.1H352c9.4,0,14.1,4.7,14.1,14.1v84.6c0,9.4-4.7,14.1-14.1,14.1h-84.6c-9.4,0-14.1-4.7-14.1-14.1
		v-84.6C253.3,724.8,258,720.1,267.4,720.1z"/>
	<path class="st0" d="M444.3,720.1h84.6c9.4,0,14.1,4.7,14.1,14.1v84.6c0,9.4-4.7,14.1-14.1,14.1h-84.6c-9.4,0-14.1-4.7-14.1-14.1
		v-84.6C430.2,724.8,434.9,720.1,444.3,720.1z"/>
	<path class="st0" d="M267.4,569.9H352c9.4,0,14.1,4.7,14.1,14.1v84.6c0,9.4-4.7,14.1-14.1,14.1h-84.6c-9.4,0-14.1-4.7-14.1-14.1
		V584C253.3,574.6,258,569.9,267.4,569.9z"/>
	<path class="st0" d="M267.4,420.2H352c9.4,0,14.1,4.7,14.1,14.1v84.6c0,9.4-4.7,14.1-14.1,14.1h-84.6c-9.4,0-14.1-4.7-14.1-14.1
		v-84.6C253.3,424.9,258,420.2,267.4,420.2z"/>
	<path class="st0" d="M444.3,569.9h84.6c9.4,0,14.1,4.7,14.1,14.1v84.6c0,9.4-4.7,14.1-14.1,14.1h-84.6c-9.4,0-14.1-4.7-14.1-14.1
		V584C430.2,574.6,434.9,569.9,444.3,569.9z"/>
	<path class="st0" d="M621.1,720.1h84.6c9.4,0,14.1,4.7,14.1,14.1v84.6c0,9.4-4.7,14.1-14.1,14.1h-84.6c-9.4,0-14.1-4.7-14.1-14.1
		v-84.6C607,724.8,611.7,720.1,621.1,720.1z"/>
	<g>
		<line class="st1" x1="178.8" y1="921.9" x2="804.8" y2="921.9"/>
		<path class="st0" d="M804.8,948h-626c-14.4,0-26-11.7-26-26s11.7-26,26-26h626c14.4,0,26,11.7,26,26S819.2,948,804.8,948z"/>
	</g>
	<g>
		<line class="st1" x1="844" y1="368.1" x2="844" y2="627.7"/>
		<path class="st0" d="M844,653.7c-15,0-27.1-11.7-27.1-26V368.1c0-14.4,12.1-26,27.1-26s27.1,11.7,27.1,26v259.6
			C871.1,642.1,858.9,653.7,844,653.7z"/>
	</g>
</g>
</svg>
