<?xml version="1.0" encoding="utf-8"?>
<!-- Generator: Adobe Illustrator 22.0.0, SVG Export Plug-In . SVG Version: 6.00 Build 0)  -->
<svg version="1.1" id="图层_1" xmlns="http://www.w3.org/2000/svg" xmlns:xlink="http://www.w3.org/1999/xlink" x="0px" y="0px"
	 viewBox="0 0 1024 1024" style="enable-background:new 0 0 1024 1024;" xml:space="preserve">
<style type="text/css">
	.st0{fill:#00B1FF;}
</style>
<g>
	<path class="st0" d="M269.4,242.8h251c13.5-1.5,23.5-13.2,22.8-26.7c1.3-14-8.9-26.4-22.8-27.8h-251c-13.9,1.5-24.1,13.9-22.8,27.8
		C245.9,229.7,255.9,241.4,269.4,242.8z"/>
	<path class="st0" d="M246.6,328c0,13.5,6.2,25.2,14.8,27.8h281.1c8.6-2.7,14.8-14.3,14.8-27.8c0-13.5-6.2-25.2-14.8-27.8H261.3
		C252.7,302.8,246.6,314.5,246.6,328z"/>
	<path class="st0" d="M241.3,444c0,13.5,11.2,25.2,26.7,27.8h507.3c15.5-2.7,26.7-14.3,26.7-27.8c0-13.5-11.2-25.2-26.7-27.8H268
		C252.5,418.8,241.3,430.4,241.3,444z"/>
	<path class="st0" d="M715.1,64.4H231.3c-61.5,0-111.3,49.8-111.3,111.3v668c0,61.5,49.8,111.3,111.3,111.3H788
		c61.5,0,111.3-49.8,111.3-111.3l6.1-583.4L715.1,64.4z M843.7,843.7c0,30.7-24.9,55.7-55.7,55.7H231.3c-30.7,0-55.7-24.9-55.7-55.7
		v-668c0-30.7,24.9-55.7,55.7-55.7H621v167c0,30.7,24.9,55.7,55.7,55.7h167V843.7z M703.9,287.1c-7.2,0-14.2-2.9-19.3-8
		c-5.1-5.1-8-12.1-8-19.3V120.1l167,167H703.9z"/>
	<path class="st0" d="M616.7,566.1L616.7,566.1c-31.5-31.5-73.3-49.1-117.7-49.6c-0.5,0-1.1,0-1.6,0c-44,0-85.2,17-116.3,48
		l-1.4,1.4c-32.1,30.4-50.4,73.6-50.4,118.6c0,43.4,18.3,86.6,50.2,118.5c29.9,31.6,74.3,50.4,118.7,50.4
		c43.3,0,86.5-18.3,118.4-50.2c32-30.4,50.4-73.7,50.4-118.7C667.1,641.2,648.7,598,616.7,566.1z M409.1,598.6l1.5-1.6
		c18.1-18.1,40.5-30,63.5-33.8v121.4c0,8.9,4.7,15.8,13.6,20.3L591.5,765c-2.1,2.9-4.4,5.9-7.3,8.8c-23.1,23-55,36.2-87.6,36.2
		c-33.5,0-63.8-12.5-87.6-36.2c-23.7-23.7-36.3-54-36.3-87.6C372.8,652.5,385.3,622.3,409.1,598.6z M622,684.6
		c0,14.5-2.2,27.7-7,41.3l-94.3-53.7V563.5c24.4,5.2,46.8,16.7,65,33.5l1.5,1.6C609.7,622.5,622,653.1,622,684.6z"/>
</g>
</svg>
