<?xml version="1.0" encoding="utf-8"?>
<!-- Generator: Adobe Illustrator 22.0.0, SVG Export Plug-In . SVG Version: 6.00 Build 0)  -->
<svg version="1.1" id="图层_1" xmlns="http://www.w3.org/2000/svg" xmlns:xlink="http://www.w3.org/1999/xlink" x="0px" y="0px"
	 viewBox="0 0 1024 1024" style="enable-background:new 0 0 1024 1024;" xml:space="preserve">
<style type="text/css">
	.st0{fill:#00B1FF;}
</style>
<g>
	<path class="st0" d="M391.4,861.6H170.5c-10,0-17.7-8.5-17.7-17.7v-705c0-10,8.5-17.7,17.7-17.7h619.5c10,0,17.7,8.5,17.7,17.7V436
		c0,14.6,12.3,26.9,26.9,26.9c14.6,0,26.9-12.3,26.9-26.9V138.9c0-39.3-32.3-71.6-71.6-71.6H170.5c-39.3,0-71.6,32.3-71.6,71.6v705
		c0,39.3,32.3,71.6,71.6,71.6h220.9c14.6,0,26.9-12.3,26.9-26.9C418.3,873.9,406,861.6,391.4,861.6z"/>
	<path class="st0" d="M905.5,533.7c-35.4-35.4-93.1-35.4-128.5,0l-264,264c-3.8,3.8-6.2,7.7-6.9,13.1l-26.2,114.7
		c-2.3,9.2,0.8,18.5,6.9,24.6c5.4,5.4,12.3,8.5,19.2,8.5c1.5,0,3.8,0,5.4-0.8l117-23.9c5.4-0.8,10-3.8,13.9-7.7l263.2-264
		c16.9-16.9,26.9-40,26.9-64.6C932.4,573,922.4,550.7,905.5,533.7z M867.8,624.5L610,882.4l-68.5,13.9l15.4-66.2l257.8-258.6
		c14.6-14.6,38.5-14.6,52.3,0c6.9,6.9,10.8,16.2,10.8,26.2S874.7,617.6,867.8,624.5z"/>
	<path class="st0" d="M712.3,191.2H239.8c-14.6,0-26.9,12.3-26.9,26.9c0,14.6,12.3,26.9,26.9,26.9h473.3c14.6,0,26.9-12.3,26.9-26.9
		C740,203.6,727.7,191.2,712.3,191.2z"/>
	<path class="st0" d="M739.3,349c0-14.6-12.3-26.9-26.9-26.9H239.8c-14.6,0-26.9,12.3-26.9,26.9c0,14.6,12.3,26.9,26.9,26.9h473.3
		C727.7,376,739.3,363.6,739.3,349z"/>
	<path class="st0" d="M213.6,486.8c0,10.4,5.6,20.1,14.6,25.3c9,5.2,20.2,5.2,29.2,0c9-5.2,14.6-14.9,14.6-25.3
		c0-16.2-13.1-29.2-29.2-29.2C226.7,457.5,213.6,470.6,213.6,486.8z"/>
	<path class="st0" d="M330.6,461.5c-9.1,5.2-14.6,14.9-14.6,25.3c0,10.4,5.6,20.1,14.6,25.3c9,5.2,20.2,5.2,29.2,0
		c9-5.2,14.6-14.9,14.6-25.3c0-10.5-5.6-20.1-14.6-25.3C350.8,456.2,339.6,456.2,330.6,461.5z"/>
	<path class="st0" d="M462.2,461.5c-9-5.2-20.2-5.2-29.3,0c-9,5.2-14.6,14.9-14.6,25.3c0,10.4,5.6,20.1,14.6,25.3
		c9.1,5.2,20.2,5.2,29.3,0c9-5.2,14.6-14.9,14.6-25.3C476.8,476.3,471.2,466.7,462.2,461.5z"/>
</g>
</svg>
