<?xml version="1.0" encoding="utf-8"?>
<!-- Generator: Adobe Illustrator 22.0.0, SVG Export Plug-In . SVG Version: 6.00 Build 0)  -->
<svg version="1.1" id="图层_1" xmlns="http://www.w3.org/2000/svg" xmlns:xlink="http://www.w3.org/1999/xlink" x="0px" y="0px"
	 viewBox="0 0 1024 1024" style="enable-background:new 0 0 1024 1024;" xml:space="preserve">
<style type="text/css">
	.st0{fill:#00B1FF;}
</style>
<g>
	<path class="st0" d="M191.5,798.5c-15.6,0-27.7,12.2-27.7,27.7c0,15.6,12.2,27.7,27.7,27.7h731.6c15.6,0,27.7-12.2,27.7-27.7
		c0-15.6-12.2-27.7-27.7-27.7H191.5z"/>
	<path class="st0" d="M925.4,72.4H103c-15.6,0-27.7,12.2-27.7,27.7v691.4l0.1,0.6c-3,11-4.6,22.3-4.6,33.7
		c0,65.6,49,118.9,111.8,121.3h740.6c15.6,0,27.7-12.2,27.7-27.7c0-15.6-12.2-27.7-27.7-27.7h-739c-32.4-1.3-57.8-30.1-57.8-65.8
		c0-34.5,24.6-64.8,55.4-68.9h673.5v0.9h5.2c51.2,0,92.8-41.6,92.8-92.8v-565C953.2,84.6,941,72.4,925.4,72.4z M867.5,701.7
		c-1.2-0.1-2.4-0.2-3.6-0.2l-686.4,0c-16.4,1.8-32.4,7.3-46.6,16.1V128h766.9l-0.1,537.1C897.6,683.5,885.2,698.4,867.5,701.7z"/>
	<path class="st0" d="M685.9,386.9h-34.1c-3.8-17.5-11-34.5-21.1-49.4l24-24c5.3-5.3,8.3-12.3,8.3-19.7c0-7.4-2.9-14.4-8.3-19.7
		c-11.1-11.1-28.4-11.1-39.4,0l-24.2,24.2c-15.3-10-32.6-17.1-50.5-20.6v-33.5c0-15.6-12.2-27.7-27.7-27.7
		c-15.6,0-27.7,12.2-27.7,27.7v34.1c-17.9,3.8-34.5,10.9-49.7,21.3L412.2,276c-10.9-10.9-28.2-11.1-39.4-0.4
		c-10.9,10.9-11.1,28.2-0.5,39.4l24.1,24.5c-9.9,15.2-16.9,32.4-20.4,50.3h-33.6c-15.6,0-27.7,12.2-27.7,27.7s12.2,27.7,27.7,27.7
		h34.1c3.8,17.6,11,34.5,21,49.4l-23.9,23.5c-10.9,10.9-11.1,28.2-0.4,39.4c10.4,10.4,27.4,11.2,39.4,0.5l24.7-24.3
		c15.3,10.1,32.7,17.1,50.6,20.6v33.5c0,15.6,12.2,27.7,27.7,27.7c15.6,0,27.7-12.2,27.7-27.7v-34.1c17.6-3.7,34.5-11,49.4-21
		l23.5,23.9c10.4,10.4,27.3,11.2,39.4,0.5c10.9-10.9,11.1-28.2,0.5-39.4L631.9,493c10.1-15.3,17.1-32.7,20.6-50.6h33.5
		c15.6,0,27.7-12.2,27.7-27.7C713.7,399.1,701.5,386.9,685.9,386.9z M599.4,416c0,47-38.2,85.2-85.2,85.2c-47,0-85.2-38.2-85.2-85.2
		s38.2-85.2,85.2-85.2C561.2,330.9,599.4,369.1,599.4,416z"/>
</g>
</svg>
