<?xml version="1.0" encoding="utf-8"?>
<!-- Generator: Adobe Illustrator 22.0.0, SVG Export Plug-In . SVG Version: 6.00 Build 0)  -->
<svg version="1.1" id="图层_1" xmlns="http://www.w3.org/2000/svg" xmlns:xlink="http://www.w3.org/1999/xlink" x="0px" y="0px"
	 viewBox="0 0 1024 1024" style="enable-background:new 0 0 1024 1024;" xml:space="preserve">
<style type="text/css">
	.st0{fill:#00B1FF;}
</style>
<g>
	<path class="st0" d="M242.2,630.4h214.4c16.6,0,30-13.5,30-30.1s-13.5-30.1-30-30.1H242.2c-16.6,0-30.1,13.5-30.1,30.1
		S225.6,630.4,242.2,630.4z"/>
	<path class="st0" d="M569.3,630.4h214.4c16.6,0,30-13.5,30-30.1s-13.5-30.1-30-30.1H569.3c-16.6,0-30.1,13.5-30.1,30.1
		S552.7,630.4,569.3,630.4z"/>
	<path class="st0" d="M242.2,774.9h214.4c16.6,0,30-13.5,30-30.1s-13.5-30.1-30-30.1H242.2c-16.6,0-30.1,13.5-30.1,30.1
		S225.6,774.9,242.2,774.9z"/>
	<path class="st0" d="M569.3,774.9h214.4c16.6,0,30-13.5,30-30.1s-13.5-30.1-30-30.1H569.3c-16.6,0-30.1,13.5-30.1,30.1
		S552.7,774.9,569.3,774.9z"/>
	<path class="st0" d="M876.4,173H774.9V91.6c0-15.2-12.4-27.6-27.6-27.6c-15.2,0-27.6,12.4-27.6,27.6V173H305.9V91.4
		c0-15.2-12.3-27.5-27.5-27.5S251,76.3,251,91.4V173H149.5c-44.2,0-80.2,36-80.2,80.2V871c0,44.2,36,80.2,80.2,80.2h726.9
		c44.2,0,80.2-36,80.2-80.2V253.2C956.6,209,920.6,173,876.4,173z M900,257.2V391H125.8V257.2c0-15.6,12.7-28.4,28.3-28.4h717.5
		C887.3,228.9,900,241.6,900,257.2z M900,446.5V867c0,15.6-12.7,28.3-28.4,28.3H154.2c-15.6,0-28.3-12.7-28.3-28.3V446.5H900z"/>
</g>
</svg>
