<?xml version="1.0" encoding="utf-8"?>
<!-- Generator: Adobe Illustrator 22.0.0, SVG Export Plug-In . SVG Version: 6.00 Build 0)  -->
<svg version="1.1" id="图层_1" xmlns="http://www.w3.org/2000/svg" xmlns:xlink="http://www.w3.org/1999/xlink" x="0px" y="0px"
	 viewBox="0 0 1024 1024" style="enable-background:new 0 0 1024 1024;" xml:space="preserve">
<style type="text/css">
	.st0{fill:#00B1FF;}
</style>
<g>
	<path class="st0" d="M281.7,429.3H531c13.4-1.4,23.3-13.1,22.7-26.5c1.3-13.9-8.8-26.2-22.7-27.6H281.7
		c-13.9,1.5-24,13.8-22.7,27.6C258.4,416.2,268.3,427.8,281.7,429.3z"/>
	<path class="st0" d="M712.4,660.4H281.7c-13.2,2.6-22.6,14.2-22.6,27.6s9.5,25,22.6,27.6h430.6C725.5,713,735,701.4,735,688
		S725.5,663,712.4,660.4z"/>
	<path class="st0" d="M259.1,544.8c0,13.4,9.5,25,22.6,27.6h430.6c13.2-2.6,22.6-14.2,22.6-27.6c0-13.4-9.5-25-22.6-27.6H281.7
		C268.6,519.8,259.1,531.4,259.1,544.8z"/>
	<path class="st0" d="M714,71.1H233.6c-61.1,0-110.6,49.5-110.6,110.6V845c0,61.1,49.5,110.6,110.6,110.6h552.8
		c61.1,0,110.6-49.5,110.6-110.6l6.1-579.4L714,71.1z M841.7,845c0,30.5-24.8,55.3-55.3,55.3H233.6c-30.5,0-55.3-24.7-55.3-55.3
		V181.6c0-30.5,24.7-55.3,55.3-55.3h387v165.8c0,30.5,24.7,55.3,55.3,55.3h165.8V845z M703,292.2c-7.2,0-14.1-2.9-19.2-7.9
		c-5.1-5.1-7.9-12-7.9-19.2V126.3l165.8,165.8H703z"/>
</g>
</svg>
