<?xml version="1.0" encoding="utf-8"?>
<!-- Generator: Adobe Illustrator 22.0.0, SVG Export Plug-In . SVG Version: 6.00 Build 0)  -->
<svg version="1.1" id="图层_1" xmlns="http://www.w3.org/2000/svg" xmlns:xlink="http://www.w3.org/1999/xlink" x="0px" y="0px"
	 viewBox="0 0 1024 1024" style="enable-background:new 0 0 1024 1024;" xml:space="preserve">
<style type="text/css">
	.st0{fill:#00B1FF;stroke:#00B1FF;stroke-width:4.3999;stroke-miterlimit:10;}
</style>
<g>
	<path class="st0" d="M787.9,775.5v-613c0-26.3-21.3-47.6-47.6-47.6h-91.4v51.4l87.6,0l0.1,582.9c0,11.1,0,18.1,0.2,22.5l-562,0
		l0-605.4h87.6v-51.4h-91.4c-26.2,0-47.6,21.4-47.6,47.6v613c0,26.3,21.3,47.6,47.4,47.6h569.7C766.6,823.1,787.9,801.7,787.9,775.5
		z M740.5,775.5C740.5,775.5,740.5,775.6,740.5,775.5L740.5,775.5L740.5,775.5L740.5,775.5z"/>
	<path class="st0" d="M871.6,246.3h-47.6v51.4h43.8c0,28.7,0,215.5,0,374.8l0,230.6l-561.7,0v-43.8h-51.4v47.6
		c-0.1,12.5,5,24.8,13.8,33.7c8.8,8.9,21.1,13.9,33.6,13.9c0,0,0,0,0,0h569.7c26.2-0.1,47.4-21.5,47.4-47.6v-613
		C919.3,267.6,897.9,246.3,871.6,246.3z"/>
	<path class="st0" d="M346.2,210.1C346.3,210.1,346.3,210.1,346.2,210.1H565c0,0,0.1,0,0.1,0c12.5,0,24.7-5.1,33.6-13.9
		c8.9-8.9,14-21.1,14-33.7v-43.9c0-26.2-21.4-47.6-47.7-47.6H346.3c-26.3,0-47.7,21.3-47.7,47.6v43.9
		C298.6,188.8,320,210.1,346.2,210.1z M350,158.7l0.1-36.2l211.2,0l-0.1,36.2L350,158.7z"/>
	<rect x="298.6" y="465.2" class="st0" width="226.6" height="51.4"/>
	<rect x="298.6" y="333.9" class="st0" width="314.2" height="51.4"/>
</g>
</svg>
