<?xml version="1.0" encoding="utf-8"?>
<!-- Generator: Adobe Illustrator 22.0.0, SVG Export Plug-In . SVG Version: 6.00 Build 0)  -->
<svg version="1.1" id="图层_1" xmlns="http://www.w3.org/2000/svg" xmlns:xlink="http://www.w3.org/1999/xlink" x="0px" y="0px"
	 viewBox="0 0 1024 1024" style="enable-background:new 0 0 1024 1024;" xml:space="preserve">
<style type="text/css">
	.st0{fill:#00B1FF;}
</style>
<g>
	<path class="st0" d="M798.5,395.4H337.3V261.3c0-73.9,59.1-134.1,131.8-134.1h74.4c72.6,0,131.8,60.2,131.8,134.1v78.5l0.5,1.1
		c0.3,0.8,7.8,18.8,28.6,18.8c17.4,0,24.7-13,26.2-19.9l0.1-78.6c0-104.8-83.9-190.1-187.1-190.1H469
		C365.9,71.2,282,156.5,282,261.3v134.1h-57.3c-0.1,0-0.2,0-0.2,0c-18.7,0-36.3,7.4-49.5,20.8c-13.1,13.2-20.5,31.6-20.5,50.3
		l0.1,411.1c-0.2,38.9,31.2,70.7,70.2,71.1h573.8c0.1,0,0.2,0,0.2,0c18.7,0,36.2-7.4,49.5-20.8c13-13.2,20.5-31.5,20.5-50.3v-411
		C868.6,427.3,837.1,395.4,798.5,395.4z M813.4,466.5v411c0,8.4-6.5,15-14.9,15H224.7c-8.1,0-14.8-6.8-14.9-15v-411
		c0-3.9,1.5-7.8,4.3-10.6c2.8-2.8,6.6-4.4,10.5-4.4c0,0,0,0,0.1,0h573.8C806.7,451.5,813.4,458.3,813.4,466.5z"/>
	<path class="st0" d="M522.9,536.6L522.9,536.6c-15.4,0.2-27.8,12.7-27.6,28v203.6c0,15.4,12.4,28,27.6,28c15.3,0,27.7-12.6,27.7-28
		V564.6C550.6,549.2,538.2,536.6,522.9,536.6z"/>
</g>
</svg>
