<?xml version="1.0" encoding="utf-8"?>
<!-- Generator: Adobe Illustrator 22.0.0, SVG Export Plug-In . SVG Version: 6.00 Build 0)  -->
<svg version="1.1" id="图层_1" xmlns="http://www.w3.org/2000/svg" xmlns:xlink="http://www.w3.org/1999/xlink" x="0px" y="0px"
	 viewBox="0 0 1024 1024" style="enable-background:new 0 0 1024 1024;" xml:space="preserve">
<style type="text/css">
	.st0{fill:#00B1FF;}
</style>
<g>
	<path class="st0" d="M918.6,78.3H755.3c-19.8,0-25.8,6-25.8,25.8v817c0,20.1,14.3,34.4,34.4,34.4H910c20.1,0,34.4-14.3,34.4-34.4
		v-817C944.4,84.3,938.4,78.3,918.6,78.3z M900.1,911.2H773.4V122.7h126.7V911.2z"/>
	<path class="st0" d="M657.9,78.4H494.6c-19.8,0-25.9,6-25.9,25.8v5.3c-0.8-0.2-1.5-0.5-2.3-0.7L308.5,67
		c-19.2-5.1-26.5-0.8-31.6,18.3L67.8,875.1c-5.2,19.5,5,36.9,24.5,42.1l141.3,37.4c19.5,5.2,36.9-5,42.1-24.5l193.1-729.2v720.3
		c0,20.1,14.3,34.4,34.5,34.4h146.1c20.1,0,34.4-14.2,34.4-34.4v-817C683.7,84.3,677.7,78.4,657.9,78.4z M235.3,909.2l-122.5-32.4
		l201.8-762.3L437.1,147L235.3,909.2z M639.4,911.3H512.7V122.8h126.7V911.3z"/>
	<path class="st0" d="M559,276.9h34.4c14.1,0,25.8-6.7,25.8-22.2c0-15.6-11.7-22.2-25.8-22.2H559c-14.1,0-25.8,6.6-25.8,22.2
		C533.2,270.3,545,276.9,559,276.9z"/>
	<path class="st0" d="M559,363h34.4c14.1,0,25.8-6.7,25.8-22.3c0-15.6-11.7-22.2-25.8-22.2H559c-14.1,0-25.8,6.6-25.8,22.2
		C533.2,356.4,545,363,559,363z"/>
	<path class="st0" d="M559,448.9h34.4c14.1,0,25.8-6.7,25.8-22.2c0-15.6-11.7-22.2-25.8-22.2H559c-14.1,0-25.8,6.7-25.8,22.2
		C533.2,442.3,545,448.9,559,448.9z"/>
	<path class="st0" d="M816.8,530.5h34.4c14.1,0,25.8-6.7,25.8-22.2c0-15.6-11.7-22.2-25.8-22.2h-34.4c-14.1,0-25.8,6.6-25.8,22.2
		C790.9,523.8,802.7,530.5,816.8,530.5z"/>
	<path class="st0" d="M559,530.5h34.4c14.1,0,25.8-6.7,25.8-22.2c0-15.6-11.7-22.2-25.8-22.2H559c-14.1,0-25.8,6.6-25.8,22.2
		C533.2,523.8,545,530.5,559,530.5z"/>
	<path class="st0" d="M816.8,363h34.4c14.1,0,25.8-6.7,25.8-22.3c0-15.6-11.7-22.2-25.8-22.2h-34.4c-14.1,0-25.8,6.6-25.8,22.2
		C790.9,356.4,802.7,363,816.8,363z"/>
	<path class="st0" d="M816.8,448.9h34.4c14.1,0,25.8-6.7,25.8-22.2c0-15.6-11.7-22.2-25.8-22.2h-34.4c-14.1,0-25.8,6.7-25.8,22.2
		C790.9,442.3,802.7,448.9,816.8,448.9z"/>
	<path class="st0" d="M816.8,276.9h34.4c14.1,0,25.8-6.7,25.8-22.2c0-15.6-11.7-22.2-25.8-22.2h-34.4c-14.1,0-25.8,6.6-25.8,22.2
		C790.9,270.3,802.7,276.9,816.8,276.9z"/>
	<path class="st0" d="M320.6,407.5l-33.2-8.8c-13.6-3.6-26.7-0.2-30.6,14.9c-4,15.1,5.7,24.5,19.3,28.1l33.2,8.8
		c13.6,3.6,26.7,0.2,30.6-14.9C343.8,420.6,334.2,411.1,320.6,407.5z"/>
	<path class="st0" d="M299.7,486.5l-33.2-8.8c-13.6-3.6-26.7-0.2-30.7,14.9c-4,15,5.7,24.5,19.3,28.1l33.2,8.8
		c13.6,3.6,26.7,0.1,30.6-14.8C322.9,499.5,313.3,490.1,299.7,486.5z"/>
	<path class="st0" d="M300.7,247.3c-4,15.1,5.7,24.5,19.3,28.1l33.2,8.8c13.6,3.6,26.7,0.2,30.6-14.9c4-15-5.6-24.5-19.3-28.1
		l-33.2-8.8C317.8,228.8,304.7,232.2,300.7,247.3z"/>
	<path class="st0" d="M342.6,324.4l-33.2-8.8c-13.6-3.6-26.7-0.2-30.7,14.9c-4,15.1,5.7,24.6,19.3,28.2l33.2,8.8
		c13.6,3.6,26.7,0.2,30.7-15C365.9,337.4,356.2,328,342.6,324.4z"/>
</g>
</svg>
