<?xml version="1.0" encoding="utf-8"?>
<!-- Generator: Adobe Illustrator 22.0.0, SVG Export Plug-In . SVG Version: 6.00 Build 0)  -->
<svg version="1.1" id="图层_1" xmlns="http://www.w3.org/2000/svg" xmlns:xlink="http://www.w3.org/1999/xlink" x="0px" y="0px"
	 viewBox="0 0 1024 1024" style="enable-background:new 0 0 1024 1024;" xml:space="preserve">
<style type="text/css">
	.st0{fill:#00B1FF;}
</style>
<g>
	<path class="st0" d="M175.6,385.1h-0.9c-6.2,0-12.1,2.4-16.5,6.7c-4.4,4.3-6.8,10.2-6.8,16.3v260.6c0,6.1,2.5,11.9,6.8,16.3
		c4.4,4.3,10.3,6.7,16.5,6.7h0.9c6.2,0,12.1-2.4,16.5-6.7c4.4-4.3,6.8-10.2,6.8-16.3V408.1c0-6.1-2.5-11.9-6.8-16.3
		C187.7,387.5,181.8,385.1,175.6,385.1L175.6,385.1z"/>
	<path class="st0" d="M175.6,385.1"/>
	<path class="st0" d="M938.4,401.1c-12.9,0-23.2,9.7-23.2,21.6v266.7l-391,205V516.6c0-1.7-0.3-3.3-0.6-4.9l399-210
		c7.4-3.6,12-11.2,11.8-19.4c-0.2-8.2-5.2-15.4-12.8-18.7L511.3,73.3c-6.6-3-14.2-3-20.8,0L80.3,263.7c-10.1,4.3-15,15.5-11.7,25.6
		c-0.7,2-1.1,4.2-1.1,6.3V702c0,7.6,4.3,14.6,11.2,18.5l409.9,229.2c1.5,0.9,3.1,1.6,4.8,2.1c6.3,2.1,13.1,1.5,19-1.5l437.5-229.4
		c7.2-3.6,11.7-10.9,11.8-18.8V422.7C961.6,410.8,951.2,401.1,938.4,401.1z M477.6,516.6v376.5L113.9,689.8V320l364.3,191.7
		C477.9,513.3,477.6,514.9,477.6,516.6z M500.9,474L140.2,284.2l360.7-167.5l360.7,167.5L500.9,474z"/>
	<path class="st0" d="M500.9,116.7"/>
	<path class="st0" d="M365.8,604.8h-0.9c-6.2,0-12.1,2.4-16.5,6.7c-4.4,4.3-6.8,10.2-6.8,16.3v154.8c0,6.1,2.5,11.9,6.8,16.3
		c4.4,4.3,10.3,6.7,16.5,6.7h0.9c6.2,0,12.1-2.4,16.5-6.7c4.4-4.3,6.8-10.2,6.8-16.3V627.7c0-6.1-2.5-11.9-6.8-16.3
		C377.9,607.2,372,604.8,365.8,604.8L365.8,604.8z"/>
	<path class="st0" d="M638.9,609.1l0.4,0.8c6,11.2,20.1,15.5,31.5,9.6l138.9-72.3c11.4-5.9,15.7-19.8,9.7-31.1l-0.4-0.8
		c-6-11.2-20.1-15.5-31.5-9.6L648.6,578C637.2,584,632.9,597.9,638.9,609.1L638.9,609.1z"/>
	<path class="st0" d="M275.6,512h-0.9c-6.2,0-12.1,2.4-16.5,6.7c-4.4,4.3-6.8,10.2-6.8,16.3v195.5c0,6.1,2.5,11.9,6.8,16.3
		c4.4,4.3,10.3,6.7,16.5,6.7h0.9c6.2,0,12.1-2.4,16.5-6.7c4.4-4.3,6.8-10.2,6.8-16.3V535c0-6.1-2.5-11.9-6.8-16.3
		C287.7,514.4,281.8,512,275.6,512L275.6,512z"/>
	<path class="st0" d="M275.6,512"/>
</g>
</svg>
