<?xml version="1.0" encoding="utf-8"?>
<!-- Generator: Adobe Illustrator 22.0.0, SVG Export Plug-In . SVG Version: 6.00 Build 0)  -->
<svg version="1.1" id="图层_1" xmlns="http://www.w3.org/2000/svg" xmlns:xlink="http://www.w3.org/1999/xlink" x="0px" y="0px"
	 viewBox="0 0 1024 1024" style="enable-background:new 0 0 1024 1024;" xml:space="preserve">
<style type="text/css">
	.st0{fill:#00B1FF;}
</style>
<g>
	<path class="st0" d="M485.6,67.6H428c-15.7,0-28.1,13.1-28.1,29.7c0,16.5,12.4,29.7,28.1,29.7h171c15.7,0,28.1-13.1,28.1-29.7
		c0-16.5-12.4-29.7-28.1-29.7h-57.6 M281.8,324.4c0,16.5,12.4,29.7,28.1,29.7H716c15.7,0,28.1-13.1,28.1-29.7
		c0-16.5-12.4-29.7-28.1-29.7H309.5C294.3,294.7,281.8,307.8,281.8,324.4L281.8,324.4z M309.5,513.5h406.1
		c15.7,0,28.1-13.1,28.1-29.7c0-16.5-12.4-29.7-28.1-29.7H309.5c-15.7,0-28.1,13.1-28.1,29.7C281.8,500.4,294.3,513.5,309.5,513.5
		L309.5,513.5z M309.5,513.5"/>
	<path class="st0" d="M923,772l-0.5-586.5c-0.9-17-5.1-32.6-11.5-47.2c-12.9-30.6-33.6-48.1-51.2-58.4c-27.2-15.6-53.5-16-56.2-16
		h-49.3c-15.2,0-27.7,13.1-28.1,29.2c0,16.5,12.4,29.7,27.7,29.7h49.3c1.4,0,16.6,1,31.8,10.2c18.4,11.2,29,30.1,32.3,57.4
		l0.5,632.2c0,42.8-31.3,77.3-69.6,77.3H547.8v0.5H228.4c-38.3,0-69.6-34.5-69.6-77.3c0,0,0-629.3,0.5-632.2
		c2.8-27.2,13.4-46.2,32.3-57.4c15.2-9.2,30.4-10.2,31.8-10.2h49.3c15.7,0,27.7-13.1,27.7-29.7c0-16-12.4-29.2-28.1-29.2h-49.3
		c-2.8,0-28.6,0.5-56.2,16.5c-26.3,15.1-58.5,46.2-63.1,110.4v632.2c0,75.4,56.2,136.2,125.4,136.2l569.2-0.5
		c69.1,0,125.4-60.8,125.4-135.7L923,772z M923,772"/>
	<path class="st0" d="M306.7,666.2H586c13.8,0,25.3-12.2,25.3-26.7c0-14.6-11.5-26.7-25.3-26.7H306.7c-13.8,0-25.4,12.2-25.4,26.7
		C281.4,654,292.9,666.2,306.7,666.2L306.7,666.2z M580.5,834.6c4.6,4.9,11.1,7.8,17.5,7.8c6.5,0,12.9-2.4,17.5-7.3l155.8-160
		c10.1-10.2,10.1-27.2,0.5-37.4c-9.7-10.7-25.8-10.7-36-0.5L598,779.2l-39.2-41.3c-10.1-10.2-25.8-10.2-35.5,0.5
		c-9.7,10.7-9.7,27.2,0.5,37.4L580.5,834.6z M580.5,818.9"/>
</g>
</svg>
