<?xml version="1.0" encoding="utf-8"?>
<!-- Generator: Adobe Illustrator 22.0.0, SVG Export Plug-In . SVG Version: 6.00 Build 0)  -->
<svg version="1.1" id="图层_1" xmlns="http://www.w3.org/2000/svg" xmlns:xlink="http://www.w3.org/1999/xlink" x="0px" y="0px"
	 viewBox="0 0 1024 1024" style="enable-background:new 0 0 1024 1024;" xml:space="preserve">
<style type="text/css">
	.st0{fill:#FFFFFF;}
</style>
<g>
	<path class="st0" d="M672.1,391.1L544.9,526.6L444.3,437c-4.6-4.1-10.6-6.4-16.5-6c-6.4,0.5-11.9,3.2-16.1,7.8L285.9,582.1
		c-8.3,9.6-7.3,24.3,2.3,32.6c4.6,3.7,9.6,5.5,15.2,5.5c6.4,0,12.9-2.8,17-7.8L431,486.6l100.1,89.1c9.6,8.3,23.4,7.8,32.1-1.4
		l142.4-151.5c8.7-9.2,8.3-23.9-0.9-32.6C695.5,381.4,680.8,381.9,672.1,391.1z"/>
	<path class="st0" d="M930.2,88.5H94.4c-12.9,0-23,10.1-23,23v177.7V916c0,12.9,10.1,23,23,23h835.8c12.9,0,23-10.1,23-23V289.1
		V111.4C953.1,98.6,943,88.5,930.2,88.5z M117.3,134.4h789.9v131.8H117.3C117.3,228.3,117.3,134.4,117.3,134.4z M117.3,893
		c0,0,0-372.5,0-580.9h789.9V893H117.3z"/>
	<path class="st0" d="M347.9,712.1c-18.8,0-34,15.2-34,34l0,0c0,18.8,15.2,34,34,34s34-15.2,34-34l0,0
		C381.8,727.3,366.6,712.1,347.9,712.1z"/>
	<path class="st0" d="M508.6,712.1c-18.8,0-34,15.2-34,34l0,0c0,18.8,15.2,34,34,34c18.8,0,34-15.2,34-34l0,0
		C542.6,727.3,527.4,712.1,508.6,712.1z"/>
	<path class="st0" d="M668.9,712.1c-18.8,0-34,15.2-34,34l0,0c0,18.8,15.2,34,34,34s34-15.2,34-34l0,0
		C702.8,727.3,687.6,712.1,668.9,712.1z"/>
</g>
</svg>
