<?xml version="1.0" encoding="utf-8"?>
<!-- Generator: Adobe Illustrator 22.0.0, SVG Export Plug-In . SVG Version: 6.00 Build 0)  -->
<svg version="1.1" id="图层_1" xmlns="http://www.w3.org/2000/svg" xmlns:xlink="http://www.w3.org/1999/xlink" x="0px" y="0px"
	 viewBox="0 0 1024 1024" style="enable-background:new 0 0 1024 1024;" xml:space="preserve">
<style type="text/css">
	.st0{fill:#00B1FF;}
</style>
<g>
	<path class="st0" d="M252.5,461h377.3c15.7,0,28-12.3,28-28c0-15.7-12.3-28-28-28H252.5c-15.7,0-28,12.3-28,28
		C224.5,448.7,236.8,461,252.5,461z"/>
	<path class="st0" d="M252.5,287h377.3c15.7,0,28-12.3,28-28c0-15.7-12.3-28-28-28H252.5c-15.7,0-28,12.3-28,28
		C224.5,274.7,236.8,287,252.5,287z"/>
	<path class="st0" d="M599.1,655.5H366l53.5-54.1c5.5-5.5,8.5-12.7,8.4-20.4c-0.1-7.4-3.1-14.3-8.4-19.3c-5.5-5.5-12.4-8.2-20.4-8.4
		c-7.4,0.1-14.3,3.1-19.3,8.4L278.6,663.9c-10.6,10.6-10.6,28.6,0,39.2l101,101.5c4.9,5.4,12.1,8.5,19.8,8.5c6.9,0,14-2.6,20.2-7.5
		c10.5-11.1,10.5-28.4-0.1-39.6l-54.2-54.5h233.8c15.7,0,28-12.3,28-28S614.8,655.5,599.1,655.5z"/>
	<path class="st0" d="M903.6,68.1c-15.7,0-28,12.3-28,28v829.7c0,15.7,12.3,28,28,28c15.7,0,28-12.3,28-28V96
		C931.6,80.3,919.3,68.1,903.6,68.1z"/>
	<path class="st0" d="M766.7,68.1H116c-15.7,0-28,12.3-28,28v830.2c0,15.7,12.3,28,28,28h650.7c15.7,0,28-12.3,28-28V96
		C794.7,80.3,782.4,68.1,766.7,68.1z M738.7,124v774.2H144V124H738.7z"/>
</g>
</svg>
