<?xml version="1.0" encoding="utf-8"?>
<!-- Generator: Adobe Illustrator 22.0.0, SVG Export Plug-In . SVG Version: 6.00 Build 0)  -->
<svg version="1.1" id="图层_1" xmlns="http://www.w3.org/2000/svg" xmlns:xlink="http://www.w3.org/1999/xlink" x="0px" y="0px"
	 viewBox="0 0 1024 1024" style="enable-background:new 0 0 1024 1024;" xml:space="preserve">
<style type="text/css">
	.st0{fill:#00B1FF;}
</style>
<g>
	<path class="st0" d="M851.7,178.7h-55.6v-55.6c0-30.7-24.9-55.6-55.6-55.6H184.1c-30.7,0-55.6,24.9-55.6,55.6v667.6
		c0,30.7,24.9,55.6,55.6,55.6h55.6v55.6c0,30.7,24.9,55.6,55.6,55.6h556.3c30.7,0,55.6-24.9,55.6-55.6V234.3
		C907.4,203.6,882.4,178.7,851.7,178.7z M184.1,790.7V123.1h556.3v55.6H295.4c-30.7,0-55.6,24.9-55.6,55.6v556.3H184.1z
		 M851.7,901.9H295.4v-55.6v-612h500.7h55.6V901.9z"/>
	<path class="st0" d="M713.5,373.4H435.4c-15.4,0-27.8,12.4-27.8,27.8S420,429,435.4,429h278.2c15.3,0,27.8-12.4,27.8-27.8
		S728.9,373.4,713.5,373.4z"/>
	<path class="st0" d="M713.5,707.2H435.4c-15.4,0-27.8,12.4-27.8,27.8c0,15.4,12.4,27.8,27.8,27.8h278.2c15.3,0,27.8-12.4,27.8-27.8
		C741.4,719.6,728.9,707.2,713.5,707.2z"/>
	<path class="st0" d="M713.5,540.3H435.4c-15.4,0-27.8,12.4-27.8,27.8c0,15.4,12.4,27.8,27.8,27.8h278.2c15.3,0,27.8-12.4,27.8-27.8
		C741.4,552.7,728.9,540.3,713.5,540.3z"/>
</g>
</svg>
