<?xml version="1.0" encoding="utf-8"?>
<!-- Generator: Adobe Illustrator 22.0.0, SVG Export Plug-In . SVG Version: 6.00 Build 0)  -->
<svg version="1.1" id="图层_1" xmlns="http://www.w3.org/2000/svg" xmlns:xlink="http://www.w3.org/1999/xlink" x="0px" y="0px"
	 viewBox="0 0 1024 1024" style="enable-background:new 0 0 1024 1024;" xml:space="preserve">
<style type="text/css">
	.st0{fill:#00B1FF;}
</style>
<g>
	<path class="st0" d="M439.3,534.4c-12.6,0-22.5-9.9-22.5-22.5V252.3c0-12.6,9.9-22.5,22.5-22.5c12.6,0,22.5,9.9,22.5,22.5v259.6
		C461.8,524.5,451.9,534.4,439.3,534.4L439.3,534.4z"/>
	<path class="st0" d="M274.3,676.2c-12.6,0-22.5-9.9-22.5-22.5V232.4c0-12.6,9.9-22.5,22.5-22.5c12.6,0,22.5,9.9,22.5,22.5v421.3
		C296.8,666.3,286.9,676.2,274.3,676.2L274.3,676.2z"/>
	<path d="M446.8,761.3"/>
	<path class="st0" d="M344.4,940.1H99.6c-12.6,0-22.5-9.9-22.5-22.5V89.8c0-12.6,9.9-22.5,22.5-22.5h643.7
		c12.6,0,22.5,9.9,22.5,22.5v243c0,12.6-9.9,22.5-22.5,22.5c-12.6,0-22.5-9.9-22.5-22.5V112.3H122.1v782.9h222.3
		c12.6,0,22.5,9.9,22.5,22.5C366.9,930.2,357,940.1,344.4,940.1L344.4,940.1z M344.4,940.1"/>
	<g>
		<path class="st0" d="M552.4,680.8c-45.2,0-81.9,38-81.9,84.7c0,46.7,36.7,84.6,81.9,84.6c45.2,0,81.9-38,81.9-84.6
			C634.3,718.8,597.6,680.8,552.4,680.8z M602.6,765.5c0,28.8-22.5,52.2-50.2,52.2c-27.7,0-50.2-23.4-50.2-52.2
			c0-28.8,22.5-52.2,50.2-52.2C580.1,713.3,602.6,736.7,602.6,765.5z"/>
		<path class="st0" d="M847.9,496.2c-13-11.4-29.5-16.8-46.5-15.3c-17,1.5-32.4,9.8-43.3,23.3c-11,13.4-16.2,30.4-14.7,47.9
			c1.5,17.5,9.4,33.4,22.4,44.7c11.5,10,26,15.5,41,15.5c1.8,0,3.7-0.1,5.6-0.2c17-1.5,32.4-9.8,43.3-23.3
			c11-13.4,16.2-30.4,14.7-47.9C868.8,523.4,860.8,507.5,847.9,496.2z M838.6,543.7c0.8,8.9-1.9,17.6-7.5,24.4
			c-5.4,6.7-13.1,10.9-21.7,11.7c-8.5,0.7-16.8-2-23.3-7.7c-6.5-5.7-10.6-13.7-11.3-22.7c-0.8-8.9,1.9-17.5,7.5-24.4
			c5.4-6.7,13.1-10.9,21.7-11.7c0.9-0.1,1.9-0.1,2.8-0.1c7.6,0,14.7,2.7,20.5,7.8C833.9,526.6,837.9,534.7,838.6,543.7z"/>
		<path class="st0" d="M945.4,522.8c-0.5-6.6-3.5-12.6-8.4-16.9c-5-4.3-11.2-6.4-17.7-5.8l-10.6,1l-7.4-14.9l7-8.6
			c4.1-5.1,6-11.5,5.5-18c-0.6-6.6-3.6-12.6-8.5-16.8l-16.6-14.4c-5-4.3-11.2-6.3-17.6-5.7c-6.5,0.6-12.3,3.7-16.5,8.8l-6.9,8.5
			l-15.2-5l-1-11.2c-0.5-6.6-3.5-12.6-8.4-16.8c-4.8-4.3-11.3-6.4-17.7-5.9l-21.6,1.9c-6.5,0.6-12.3,3.8-16.4,8.9
			c-4.1,5.1-6,11.5-5.5,18l1,11.3l-14.2,7.5l-8.2-7.1c-5-4.3-11.3-6.3-17.7-5.8c-6.5,0.6-12.3,3.7-16.5,8.8l-13.9,17.1
			c-4.1,5-6,11.4-5.5,18c0.5,6.6,3.5,12.6,8.4,16.9l8.3,7.2l-4.9,16.1l-10.7,0.9c-6.5,0.6-12.3,3.7-16.5,8.8
			c-4.1,5.1-6.1,11.5-5.6,18.1l1.9,22.4c0.6,6.6,3.6,12.6,8.5,16.9c5,4.3,11.3,6.3,17.7,5.7l10.6-1l7.5,15l-7,8.6
			c-4.1,5.1-6.1,11.5-5.6,18.1c0.6,6.6,3.6,12.6,8.5,16.8l16.6,14.5c5,4.3,11.2,6.3,17.6,5.7c6.5-0.6,12.3-3.7,16.5-8.8l6.8-8.4
			l15.2,4.9l1,11.3c0.5,6.6,3.5,12.6,8.5,16.9c4.4,3.8,9.9,5.8,15.5,5.8c0.8,0,1.6-0.1,2-0.1l21.5-1.9c6.5-0.6,12.3-3.7,16.5-8.8
			c4.1-5.1,6.1-11.5,5.6-18.1l-1-11.2l14.2-7.6l8,7c5,4.3,11.3,6.4,17.7,5.8c6.5-0.6,12.3-3.7,16.5-8.8l14-17.1
			c4.1-5.1,6.1-11.5,5.6-18.1c-0.5-6.6-3.5-12.6-8.4-16.9l-8.3-7.2l4.9-16l10.7-1c6.5-0.6,12.3-3.7,16.5-8.8
			c4.1-5.1,6.1-11.5,5.6-18.1L945.4,522.8z M884.5,563.2l-4.8,16c-4.4,11.5-1,25.6,8.1,33.4l4.2,3.7l-4.4,5.4l-4-3.5
			c-9.2-8-23.4-9.1-33.3-2.7l-14.4,7.7c-11,5.1-18.2,17.6-17.1,29.7l0.5,5.5l-6.6,0.6l-0.5-5.5c-1-12.2-10.1-23.1-21.6-26.2l-15.4-5
			c-11.2-4.6-25-1-32.7,8.5l-3.3,4.1l-5.2-4.5l3.5-4.3c7.6-9.4,8.7-23.8,2.7-34.1l-7.4-14.9c-4.8-11.3-16.9-18.8-28.9-17.8l-5.2,0.5
			l-0.6-7.1l5.2-0.5c11.9-1.1,22.7-10.6,25.4-22.3l4.8-15.9c4.4-11.5,1-25.6-8.1-33.4l-4.2-3.7l4.4-5.4l4,3.4
			c9.2,8,23.3,9.1,33.4,2.8l14.4-7.7c10.9-5,18.1-17.6,17.1-29.7l-0.5-5.6l6.6-0.6l0.5,5.6c1,12.3,10.2,23.3,21.5,26.2l15.4,5
			c11.3,4.6,25,1,32.7-8.5l3.3-4.1l5.2,4.5l-3.5,4.4c-7.6,9.4-8.7,23.8-2.7,34l7.4,14.9c4.9,11.4,17.1,18.8,28.9,17.7l5.2-0.5
			l0.6,7.2l-5.2,0.5C898.1,542,887.4,551.5,884.5,563.2z M831.8,434.8l-1.4,4.4h0l0.6-4.8C831.3,434.6,831.6,434.7,831.8,434.8z
			 M914.5,572.4l-4.5-1.4l0,0l4.8,0.5C914.8,571.9,914.7,572.2,914.5,572.4z"/>
		<path class="st0" d="M712.7,721.8l-17.4,0c-0.6-0.1-1.9-1.1-2.2-1.9l-9.7-24.6l-0.4-0.8c-0.2-0.6,0-2.3,0.3-2.8l12.5-12.9
			c5.1-5.3,8-12.4,8-19.9c0-7.5-2.8-14.5-8-19.9l-21.1-21.9c-5.1-5.4-12-8.3-19.4-8.3c-7.3,0-14.2,3-19.4,8.3L623.6,630
			c-0.5,0.3-1.9,0.6-2.4,0.4l-23.9-10.3l-0.8-0.2c-0.6-0.3-1.6-1.7-1.7-2.3v-18.2c0-7.5-2.8-14.5-8-19.8c-5.2-5.4-12.1-8.3-19.4-8.3
			h-29.9c-7.3,0-14.2,3-19.4,8.3c-5.1,5.3-8,12.4-8,19.8l0,18.2c-0.1,0.7-1.1,2.1-1.7,2.4L484.7,630l-0.8,0.4c-0.5,0.2-2,0-2.3-0.3
			l-12.5-12.9c-5.2-5.4-12.1-8.3-19.4-8.3c-7.3,0-14.2,3-19.4,8.3L409.2,639c-5.1,5.3-8,12.4-8,19.9s2.8,14.5,8,19.8l12.3,12.8
			c0.4,0.6,0.6,2.3,0.4,2.9l-9.9,24.8l-0.2,0.8c-0.3,0.6-1.5,1.6-2,1.7h-17.6c-7.3,0-14.2,3-19.4,8.3c-5.1,5.3-8,12.4-8,19.8v30.9
			c0,7.5,2.8,14.5,8,19.9c5.2,5.3,12.1,8.2,19.4,8.2l17.4,0c0.6,0.1,1.9,1.2,2.2,1.9l9.7,24.6l0.4,0.8c0.2,0.7,0,2.4-0.3,2.9
			L409.1,852c-5.1,5.3-8,12.4-8,19.9c0,7.5,2.8,14.5,8,19.9l21.2,21.9c5.2,5.4,12.1,8.3,19.4,8.3c7.4,0,14.3-3,19.4-8.3l12.4-12.8
			c0.4-0.3,1.8-0.6,2.1-0.5l24.2,10.4l0.7,0.2c0.6,0.3,1.6,1.7,1.7,2.3v18.2c0,7.5,2.8,14.5,8,19.8c5.1,5.3,12,8.3,19.3,8.3h29.8
			c7.2,0,14.1-2.9,19.4-8.3c5.1-5.3,8-12.4,8-19.9l0-18.1c0.1-0.7,1.1-2.1,1.4-2.3l24.1-10.2l0.8-0.5c0.6-0.2,2,0,2.3,0.3l12.4,12.8
			c5.2,5.4,12.1,8.4,19.5,8.4c7.4,0,14.3-3,19.3-8.3l21.1-21.9c5.1-5.3,8-12.4,8-19.9c0-7.5-2.8-14.5-8-19.9l-12.3-12.7
			c-0.4-0.6-0.6-2.3-0.4-3l10.1-24.7l0.2-0.8c0.3-0.6,1.5-1.6,2-1.7h17.5c7.3,0,14.2-3,19.4-8.3c5.1-5.3,8-12.4,8-19.9V750
			c0-7.5-2.8-14.5-8-19.8C727,724.8,720.1,721.8,712.7,721.8z M663.1,800l-8.6,21.8c-6.3,13-3.7,29.8,6.2,40.1l9.6,9.9l-15.1,15.7
			l-9.3-9.7c-10-10.4-26.5-13-38.8-6.5l-21,9c-13.4,4.7-23.1,18.5-23.1,33v13.8h-21.2v-13.8c0-14.5-9.6-28.3-22.9-33l-20.9-8.8
			c-12.6-6.7-29.1-4-39.1,6.3l-9.3,9.6l-15.1-15.6l9.6-9.9c9.9-10.2,12.5-27.1,6.3-39.7l-8.7-21.8c-4.5-13.8-18-23.9-32.1-23.9
			h-13.2v-22.3h13.2c14.2,0,27.6-10,32-23.6l8.6-21.7c6.4-12.9,3.8-29.8-6.2-40.1l-9.6-9.9l15.1-15.6l9.4,9.6
			c9.9,10.4,26.4,13.1,38.7,6.6l21-9c13.4-4.6,23.1-18.5,23.1-33v-13.9H563v13.9c0,14.5,9.7,28.4,22.8,32.9l20.9,8.9
			c12.6,6.7,29.1,4,39.2-6.4l9.3-9.8l15.1,15.6l-9.6,9.9c-9.9,10.3-12.4,27.1-6.3,39.7l8.7,21.8c4.5,13.8,18,23.9,32.1,23.9h13.2
			v22.3H695C681,776.5,667.5,786.5,663.1,800z"/>
	</g>
</g>
</svg>
