<?xml version="1.0" encoding="utf-8"?>
<!-- Generator: Adobe Illustrator 22.0.0, SVG Export Plug-In . SVG Version: 6.00 Build 0)  -->
<svg version="1.1" id="图层_1" xmlns="http://www.w3.org/2000/svg" xmlns:xlink="http://www.w3.org/1999/xlink" x="0px" y="0px"
	 viewBox="0 0 1024 1024" style="enable-background:new 0 0 1024 1024;" xml:space="preserve">
<style type="text/css">
	.st0{fill:#00B1FF;}
</style>
<g>
	<path class="st0" d="M254.9,462.7h380.1c15.8,0,28.2-12.4,28.2-28.2c0-15.8-12.4-28.2-28.2-28.2H254.9c-15.8,0-28.2,12.4-28.2,28.2
		C226.8,450.3,239.1,462.7,254.9,462.7z"/>
	<path class="st0" d="M254.9,287.4h380.1c15.8,0,28.2-12.4,28.2-28.2S650.9,231,635.1,231H254.9c-15.8,0-28.2,12.4-28.2,28.2
		S239.1,287.4,254.9,287.4z"/>
	<path class="st0" d="M301.5,714.6h234.8l-53.9,54.5c-5.5,5.5-8.5,12.8-8.4,20.5c0.1,7.5,3.1,14.4,8.4,19.5
		c5.5,5.5,12.5,8.3,20.5,8.4c7.5-0.1,14.4-3.1,19.5-8.4l101.9-102.9c10.7-10.7,10.7-28.8,0-39.5L522.6,564.4
		c-4.9-5.5-12.2-8.6-20-8.6c-6.9,0-14.1,2.6-20.3,7.6c-10.6,11.2-10.6,28.6,0.1,39.9l54.6,54.9H301.5c-15.8,0-28.2,12.4-28.2,28.2
		S285.7,714.6,301.5,714.6z"/>
	<path class="st0" d="M911,66.8c-15.8,0-28.2,12.4-28.2,28.2v835.9c0,15.8,12.4,28.2,28.2,28.2s28.2-12.4,28.2-28.2V95
		C939.2,79.2,926.8,66.8,911,66.8z"/>
	<path class="st0" d="M773,66.8H117.5c-15.8,0-28.2,12.4-28.2,28.2v836.4c0,15.8,12.4,28.2,28.2,28.2H773
		c15.8,0,28.2-12.4,28.2-28.2V95C801.2,79.2,788.8,66.8,773,66.8z M744.8,123.2v780H145.7v-780H744.8z"/>
</g>
</svg>
