<?xml version="1.0" encoding="utf-8"?>
<!-- Generator: Adobe Illustrator 22.0.0, SVG Export Plug-In . SVG Version: 6.00 Build 0)  -->
<svg version="1.1" id="图层_1" xmlns="http://www.w3.org/2000/svg" xmlns:xlink="http://www.w3.org/1999/xlink" x="0px" y="0px"
	 viewBox="0 0 1024 1024" style="enable-background:new 0 0 1024 1024;" xml:space="preserve">
<style type="text/css">
	.st0{fill:#00B1FF;}
</style>
<g>
	<path class="st0" d="M929.3,90.3c-15.2,0-27,11.9-27,27v779.1c0,15.2,11.9,27,27,27s27-11.9,27-27V117.3
		C956.4,102.2,944.5,90.3,929.3,90.3z"/>
	<path class="st0" d="M833.4,271.1c-0.5-4.9-2.3-9.6-5.2-13.4L712.1,101.2c-4.7-6.8-12.8-10.9-21.7-10.9H202.7
		c-9,0-17.5,4.6-22.2,11.9L72.1,258.6c-3.1,4.5-4.7,9.9-4.7,15.4v625.7c0,15.2,11.9,27,27,27h712.2c15.2,0,27-11.9,27-27V274
		c0-0.6-0.1-1.1-0.2-2.3L833.4,271.1z M676.8,144.4L752.6,247H145.8l71-102.6H676.8z M779.6,301v571.6H121.4V301H779.6z"/>
	<path class="st0" d="M528.9,451.2c-4.7-5.2-11.6-8.2-19-8.2c-7.2,0-14.1,2.8-19,7.7c-10.2,10.7-10.2,27.5,0.1,38.3l64.8,65.1H290.5
		c-15.2,0-27,11.9-27,27c0,15.2,11.9,27,27,27h265.3l-65.3,65.6c-5.3,5.3-8.2,12.3-8.1,19.7c0.1,7.2,3,13.8,8.1,18.7
		c5.3,5.3,12.5,8.6,19.7,8.1c7.2-0.1,13.8-3,18.7-8.1l110.6-112c5-5,7.7-11.7,7.7-18.9c0-7.2-2.7-14-7.7-18.9L528.9,451.2z"/>
</g>
</svg>
