<?xml version="1.0" encoding="utf-8"?>
<!-- Generator: Adobe Illustrator 22.0.0, SVG Export Plug-In . SVG Version: 6.00 Build 0)  -->
<svg version="1.1" id="图层_1" xmlns="http://www.w3.org/2000/svg" xmlns:xlink="http://www.w3.org/1999/xlink" x="0px" y="0px"
	 viewBox="0 0 1024 1024" style="enable-background:new 0 0 1024 1024;" xml:space="preserve">
<style type="text/css">
	.st0{fill:#00B1FF;}
	.st1{fill:#00B1FF;stroke:#00B1FF;stroke-width:3.8959;stroke-miterlimit:10;}
</style>
<g>
	<g>
		<path class="st0" d="M183.9,254.6c0,16,12,28.7,27.2,28.7h392.2c15.1,0,27.2-12.7,27.2-28.7c0-16-12-28.7-27.2-28.7H210.6
			C195.9,225.9,183.9,238.6,183.9,254.6L183.9,254.6z"/>
		<path class="st0" d="M201,453.3h247.4c9.5,0,17.1-12.7,17.1-28.7s-7.6-28.7-17.1-28.7H201c-9.5,0-17.1,12.7-17.1,28.7
			C184.2,440.6,191.7,453.3,201,453.3L201,453.3z"/>
		<path class="st0" d="M183.9,393.9"/>
		<path class="st0" d="M197.4,615.2h149c7.4,0,13.5-11.7,13.5-25.8c0-14.1-6.1-25.8-13.5-25.8h-149c-7.4,0-13.5,11.7-13.5,25.8
			C183.9,603.5,190,615.2,197.4,615.2L197.4,615.2z"/>
	</g>
	<path class="st1" d="M352.4,954.6H92.2c-13.4,0-23.9-10-23.9-22.8V93.3c0-12.7,10.5-22.7,23.9-22.7h684.2c13.4,0,23.9,10,23.9,22.7
		v246.1c0,12.7-10.5,22.7-23.9,22.7c-13.4,0-23.9-10-23.9-22.7V116H116.1v793h236.3c13.4,0,23.9,10,23.9,22.7
		C376.3,944.6,365.8,954.6,352.4,954.6L352.4,954.6z"/>
	<g>
		<path class="st0" d="M953.8,561.3l0-0.4c-0.4-3.8-1.8-7.5-4.1-10.4l-68.4-92.2c-3.8-5.4-10.1-8.7-17.1-8.7H576.5
			c-7,0-13.7,3.6-17.3,9.2l-64,92.3c-2.4,3.5-3.7,7.7-3.7,12v369.2c0,11.8,9.3,21.1,21.1,21.1h420.2c11.8,0,21.1-9.3,21.1-21.1
			V563.2C953.9,562.7,953.9,562.3,953.8,561.3z M552.8,542.1l34.7-50.2h266.1l37.1,50.2H552.8z M533.7,911.3v-327h378v327H533.7z"/>
		<path class="st0" d="M771.8,665.1c-6.9-7.6-20.7-7.7-28.1-0.3c-7.4,7.8-7.4,20.1,0.1,28l31.7,31.8H628.3
			c-11.1,0-19.8,8.7-19.8,19.8c0,11.1,8.7,19.8,19.8,19.8h147.2l-31.9,32.1c-3.9,3.9-6,9-5.9,14.4c0.1,5.3,2.2,10.2,5.9,13.7
			c3.8,3.8,8.7,6,13.3,6c0.4,0,0.7,0,1.1,0c5.3-0.1,10.2-2.2,13.7-5.9l65.3-66.1c3.7-3.7,5.7-8.6,5.7-13.9c0-5.3-2-10.2-5.7-13.9
			L771.8,665.1z"/>
	</g>
</g>
</svg>
