<?xml version="1.0" encoding="utf-8"?>
<!-- Generator: Adobe Illustrator 22.0.0, SVG Export Plug-In . SVG Version: 6.00 Build 0)  -->
<svg version="1.1" id="图层_1" xmlns="http://www.w3.org/2000/svg" xmlns:xlink="http://www.w3.org/1999/xlink" x="0px" y="0px"
	 viewBox="0 0 1024 1024" style="enable-background:new 0 0 1024 1024;" xml:space="preserve">
<style type="text/css">
	.st0{fill:#00B1FF;}
</style>
<g>
	<path class="st0" d="M908.7,215.5c-32.4-44.6-64.8-89.2-96.8-134.1c-8.7-12.2-19.1-18.5-34.6-18.4c-140.5,0.3-281,0.3-421.6,0.1
		c-15.2,0-26.3,5.2-34.8,18c-30.2,45.2-60.9,90.1-91.3,135.2c-4.4,6.5-5.9,13.8-5.9,21.8c0.2,186.6,0.1,373.2,0.4,559.8
		c0,31.3,6.4,37,38.3,37.1c102.1,0.1,204.2,0,306.4,0c101.4,0,202.7,0,304.1,0c37.6,0,42-4.4,42-42.5c0.1-183.5,0-367,0.2-550.5
		C914.9,232.4,914.6,223.6,908.7,215.5z M351.4,118.2c5.5-8.7,13-9,21.7-9c128.8,0.1,257.6,0.1,386.4,0c8.6,0,16.2,0.1,21.9,8.6
		c19.5,29,39.7,57.6,61.4,89c-183.6,0-364.1,0-548.8,0C314.3,175.6,333.2,147.1,351.4,118.2z M869.3,761.7
		c0.1,18.6-5.7,22.8-23.2,22.7c-184.3-0.6-368.7-0.5-553-0.1c-16.9,0-23.8-3.1-23.7-22.4c0.8-161.3,0.8-322.6,0-483.9
		c-0.1-19.1,6.3-22.4,23.4-22.2c92.2,0.8,184.3,0.4,276.5,0.4c92.2,0,184.3,0.4,276.5-0.3c16.8-0.1,23.7,2.4,23.6,21.9
		C868.5,439.1,868.5,600.4,869.3,761.7z"/>
	<path class="st0" d="M879.6,915.5c-5.4,0.1-10.7,0-16.1,0c-227.3,0-454.5,0.1-681.8-0.1c-32.5,0-29.9,5.2-29.9-28.9
		c-0.2-212.7-0.2-425.3-0.3-638c0-6.9,0.1-13.9-1-20.6c-1.9-11.4-9.5-17.2-20.8-17.7c-11.4-0.4-19.3,5.2-22.1,16.2
		c-1.7,6.6-2.1,13.7-2.1,20.5c-0.1,226.5-0.2,452.9,0,679.4c0,28.7,6.9,35.1,35.4,35.1c123.6,0.1,247.2,0,370.8,0
		c122.8,0,245.7-0.1,368.5,0.1c16.6,0,33-1.5,33.4-22.1C914.1,917.5,896.9,915.1,879.6,915.5z"/>
	<path class="st0" d="M677.7,372c-81.4,0-162.8-0.1-244.2,0.1c-17.4,0.1-33.7,14.5-32.3,28.6c1.9,18.8,15.3,22.3,31.6,22.1
		c40.7-0.4,81.4-0.1,122.1-0.1c41.5,0,82.9-0.2,124.4,0.1c16.9,0.1,33.1-3,31.8-23.6C709.8,381,696.2,372,677.7,372z"/>
</g>
</svg>
