<?xml version="1.0" encoding="utf-8"?>
<!-- Generator: Adobe Illustrator 22.0.0, SVG Export Plug-In . SVG Version: 6.00 Build 0)  -->
<svg version="1.1" id="图层_1" xmlns="http://www.w3.org/2000/svg" xmlns:xlink="http://www.w3.org/1999/xlink" x="0px" y="0px"
	 viewBox="0 0 1024 1024" style="enable-background:new 0 0 1024 1024;" xml:space="preserve">
<style type="text/css">
	.st0{fill:#00B1FF;}
</style>
<path class="st0" d="M839.2,962.1H187.9c-67.7-0.9-122-56.4-121.2-124.2V189.4c-0.8-67.7,53.4-123.2,121-124.2h651.3
	c67.7,0.9,121.8,56.5,121,124.2v648.4C961,905.5,906.9,961.1,839.2,962.1z M903.3,189.4c0.4-35.8-28.3-65.1-64-65.6H187.9
	c-35.8,0.5-64.4,29.9-64,65.6v648.4c-0.4,35.8,28.3,65.1,64,65.6h651.3c35.8-0.5,64.4-29.9,64-65.6V189.4L903.3,189.4z M512.6,284.3
	h26.7c105.4,1.5,189.6,88,188.4,193.3V505h-215V284.3z M565.9,450.3h105.7c-10.3-54.1-51.9-96.8-105.7-108.6V450.3z M510.7,689.9
	c75.1-1.1,139.6-53.8,155.6-127.2l50.4,11.6c-20.1,97.9-106.1,168.3-206,168.8c-118.1-1.7-212.6-98.6-211.2-216.7
	c-0.6-86.2,50.1-164.6,129-199.5l20.2,48.9c-82.9,36.9-120.1,134-83.3,216.8C391.1,650.2,447.6,688.1,510.7,689.9L510.7,689.9z"/>
</svg>
