<?xml version="1.0" encoding="utf-8"?>
<!-- Generator: Adobe Illustrator 22.0.0, SVG Export Plug-In . SVG Version: 6.00 Build 0)  -->
<svg version="1.1" id="图层_1" xmlns="http://www.w3.org/2000/svg" xmlns:xlink="http://www.w3.org/1999/xlink" x="0px" y="0px"
	 viewBox="0 0 1024 1024" style="enable-background:new 0 0 1024 1024;" xml:space="preserve">
<style type="text/css">
	.st0{fill:#00B1FF;stroke:#00B1FF;stroke-width:0.8718;stroke-miterlimit:10;}
</style>
<g>
	<path class="st0" d="M724.1,596.9c-57.4,0-104.1,46.7-104.1,104.1c0,57.4,46.7,104.1,104.1,104.1c57.4,0,104.1-46.7,104.1-104.1
		C828.2,643.5,781.5,596.9,724.1,596.9L724.1,596.9z M724.1,760.1c-32.7,0-59.2-26.5-59.2-59.2c0-32.7,26.6-59.2,59.2-59.2
		c32.7,0,59.2,26.5,59.2,59.2C783.3,733.6,756.7,760.1,724.1,760.1L724.1,760.1z M724.1,760.1"/>
	<path class="st0" d="M958.8,764.2c-1.5-5.8-5.2-10.7-10.4-13.7l-41.8-24.4c2.1-15.5,2.3-31.2,0.5-46.7l40.9-24.3
		c5.1-3,8.8-8,10.3-13.8c1.5-5.8,0.6-11.9-2.5-17l-50.1-84.2c-3.1-5.2-8.1-8.9-13.9-10.3c-5.8-1.4-12-0.5-17.1,2.7L838,555
		c-12.6-9.4-25.8-16.8-36.7-22v-38.5c0-5.9-2.4-11.7-6.6-15.9c-4.2-4.2-9.9-6.6-15.9-6.6H671.2c-5.9,0-11.7,2.4-15.9,6.6
		c-4.2,4.2-6.6,9.9-6.6,15.9v35c-16,6.3-28.3,14.7-39.7,24.2l-33.2-20.1c-5.2-3.1-11.4-4-17.2-2.5c-5.8,1.5-10.8,5.3-13.8,10.5
		l-48.6,84.6c-6.2,10.7-2.5,24.4,8.2,30.6l36.5,21.1c-0.9,7.6-1.3,15.3-1.3,23c0,9.8,0.8,19.7,2.4,29.6l-36.5,21.7
		c-5.1,3-8.8,8-10.3,13.7c-1.5,5.8-0.6,11.9,2.5,17l50.1,84.2c3.1,5.2,8.2,9,14.1,10.4c5.9,1.4,12.1,0.4,17.2-2.9l35.2-22.4
		c9.5,7.7,19.9,14.8,34.5,20.4v52.5c0,6,2.4,11.7,6.6,15.9c4.2,4.2,9.9,6.6,15.9,6.6h107.7c5.9,0,11.7-2.4,15.9-6.6
		c4.2-4.2,6.6-9.9,6.6-15.9v-56.1c11.9-5.6,23.2-12.3,33.9-20l40.9,24.6c5.1,3.1,11.3,4,17.1,2.5c5.8-1.5,10.8-5.2,13.8-10.4
		l49.4-84.6C959.5,776,960.3,769.9,958.8,764.2L958.8,764.2z M879.8,823.5l-34.9-21c-8.4-5.1-19.2-4.1-26.5,2.5
		c-12.4,11-29.8,21.4-47.8,28.4c-8.6,3.4-14.2,11.7-14.2,20.9v48.4h-62.8v-46.6c0-10.4-7.1-19.4-17.2-21.8
		c-19.8-4.7-28.2-11.9-42.2-23.9l-3.6-3c-7.5-6.3-18.2-7.1-26.5-1.8l-29.6,18.8l-26.8-45.1l31-18.5c8.6-5.1,12.7-15.3,10.2-24.9
		c-3-11.4-4.5-23.2-4.5-35c0-10.6,1-20.6,3-29.8c2.1-9.5-2.2-19.3-10.7-24.2l-30.5-17.7l26-45.3l27.6,16.7
		c8.5,5.2,19.4,4.1,26.7-2.6c16.6-15.1,28.2-24.8,50.3-30.6c9.9-2.6,16.7-11.5,16.7-21.7V517h62.8v30.5c0,9.1,5.5,17.3,13.8,20.7
		c20,8.3,38.4,19.5,50.5,30.7c7.4,6.9,18.4,8,27,2.7l31.1-19.1l27,45.4l-34.7,20.6c-8.2,4.9-12.4,14.5-10.5,23.8
		c4.1,19.8,3.9,40.3-0.7,60c-2.2,9.6,2.1,19.5,10.5,24.4l36,21L879.8,823.5z M879.8,823.5"/>
	<path class="st0" d="M573.5,898.5c-32.3,2.8-65.9,4.2-99.7,4.2c-219.1,0-358.9-57.1-358.9-96.4c0-5-1.7-9.6-4.5-13.3V674.2
		c69.1,50.1,216.8,76,363.3,76c12.4,0,22.4-10,22.4-22.4c0-12.4-10-22.4-22.4-22.4c-219.1,0-358.9-57.1-358.9-96.4
		c0-4.8-1.6-9.5-4.5-13.3V476.8c69.1,50.1,216.8,76,363.3,76c6.1,0,12.1,0,18.1-0.1c12.1-0.4,21.7-10.4,21.6-22.5
		c-0.1-12.1-9.8-22-21.9-22.2h-0.3c-5.8,0-11.6,0.1-17.5,0.1c-219.1,0-358.9-57.2-358.9-96.5c0-4.8-1.6-9.5-4.5-13.3V279.5
		c69.1,50.1,216.8,76,363.3,76c140.5,0,282-23.8,354.4-69.9v204.5c0,12.4,10,22.4,22.4,22.4c12.4,0,22.4-10,22.4-22.4V237.1
		c2.9-7.3,4.5-15,4.5-23c0-92.8-203.1-141.3-403.7-141.3c-195.3,0-393,46-403.2,134.1c-3.2,3.9-5,8.9-5,13.9V813
		c0,7.7,3.9,14.6,9.9,18.6c33.3,76.3,216.8,116,398.3,116c35.1,0,70-1.5,103.6-4.4c12.3-1.1,21.5-11.9,20.4-24.3
		C596.7,906.6,585.9,897.6,573.5,898.5L573.5,898.5z M473.8,117.8c200.8,0,334.9,48,355.9,86.3c-1,2.5-1.5,5.2-1.5,7.9v14.9
		c-25.3,37.8-157.9,83.8-354.4,83.8c-219.1,0-358.9-57.1-358.9-96.4C115,174.9,254.8,117.8,473.8,117.8L473.8,117.8z M473.8,117.8"
		/>
</g>
</svg>
