<?xml version="1.0" encoding="utf-8"?>
<!-- Generator: Adobe Illustrator 22.0.0, SVG Export Plug-In . SVG Version: 6.00 Build 0)  -->
<svg version="1.1" id="图层_1" xmlns="http://www.w3.org/2000/svg" xmlns:xlink="http://www.w3.org/1999/xlink" x="0px" y="0px"
	 viewBox="0 0 1024 1024" style="enable-background:new 0 0 1024 1024;" xml:space="preserve">
<style type="text/css">
	.st0{fill:#00B1FF;}
	.st1{fill:#00B1FF;stroke:#00B1FF;stroke-width:4.4009;stroke-miterlimit:10;}
	.st2{fill:#00B1FF;stroke:#00B1FF;stroke-width:3.8915;stroke-miterlimit:10;}
</style>
<g>
	<g>
		<path class="st0" d="M181.6,274.2c0,16,12,28.6,27.1,28.6h391.8c15.1,0,27.1-12.7,27.1-28.6c0-16-12-28.6-27.1-28.6H208.3
			C193.6,245.6,181.6,258.3,181.6,274.2L181.6,274.2z"/>
		<path class="st0" d="M202.3,472.7h299.1c11.5,0,20.7-12.7,20.7-28.6s-9.2-28.6-20.7-28.6H202.3c-11.5,0-20.7,12.7-20.7,28.6
			C181.9,460,191.1,472.7,202.3,472.7L202.3,472.7z"/>
		<path class="st0" d="M181.6,413.4"/>
		<path class="st0" d="M200.9,634.4h212.3c10.5,0,19.3-11.7,19.3-25.8c0-14.1-8.8-25.8-19.3-25.8H200.9c-10.5,0-19.3,11.7-19.3,25.8
			C181.6,622.7,190.3,634.4,200.9,634.4L200.9,634.4z"/>
	</g>
	<path class="st1" d="M933.6,581.7H543.1c-15.1,0-27,11.3-27,25.7v326.9c0,14.4,11.9,25.7,27,25.7h390.5c15.1,0,27-11.3,27-25.7
		V607.4C960.6,593,948.7,581.7,933.6,581.7z M906.6,908.6H570.1V633.1h336.5V908.6z"/>
	<path class="st2" d="M624.6,882.5"/>
	<path class="st1" d="M955.2,592l-63.1-81.7c-4.9-6.2-12.9-10.3-21.6-10.3H603c-8.6,0-17.3,4.1-22.1,10.8L521,592.5
		c-5.4,8.2-5.9,18-1.6,26.7c4.3,8.7,13.5,13.9,23.7,13.9h390.5c10.3,0,19.4-5.6,23.7-14.4C962.2,610,961.1,599.7,955.2,592z
		 M594.9,581.7l22.1-30.3h240l23.2,30.3H594.9z"/>
	<path class="st1" d="M811.2,727.2H650.4c-15.1,0-27-11.3-27-25.7c0-14.4,11.9-25.7,27-25.7h160.7c15.1,0,27,11.3,27,25.7
		C838.1,715.9,826.3,727.2,811.2,727.2L811.2,727.2z"/>
	<path class="st2" d="M458.7,767.1"/>
	<path class="st2" d="M349.9,948H90c-13.4,0-23.8-10-23.8-22.7V87.7c0-12.7,10.5-22.7,23.8-22.7h683.4c13.4,0,23.8,10,23.8,22.7
		v245.9c0,12.7-10.5,22.7-23.8,22.7c-13.4,0-23.8-10-23.8-22.7V110.4H113.9v792.1h236.1c13.4,0,23.8,10,23.8,22.7
		C373.8,938,363.3,948,349.9,948L349.9,948z"/>
	<path class="st2" d="M349.9,948"/>
</g>
</svg>
