<?xml version="1.0" encoding="utf-8"?>
<!-- Generator: Adobe Illustrator 22.0.0, SVG Export Plug-In . SVG Version: 6.00 Build 0)  -->
<svg version="1.1" id="图层_1" xmlns="http://www.w3.org/2000/svg" xmlns:xlink="http://www.w3.org/1999/xlink" x="0px" y="0px"
	 viewBox="0 0 1024 1024" style="enable-background:new 0 0 1024 1024;" xml:space="preserve">
<style type="text/css">
	.st0{fill:#00B1FF;}
</style>
<g>
	<path class="st0" d="M749.6,320.3c0-68.6-26.7-133-75.2-181.5c-48.5-48.5-112.9-75.2-181.5-75.2s-133,26.7-181.5,75.2
		c-48.5,48.5-75.2,112.9-75.2,181.5c0,53.1,16.1,104.1,46.6,147.5c8.5,12.2,25.3,15.1,37.5,6.5c12.2-8.5,15.1-25.3,6.5-37.5
		c-24.1-34.2-36.8-74.5-36.8-116.5c0-111.9,91-202.9,202.9-202.9c111.9,0,202.9,91,202.9,202.9c0,111.9-91,202.9-202.9,202.9l0,0
		l0,0c-55.3,0-108.9,10.8-159.4,32.2c-48.8,20.6-92.6,50.1-130.2,87.7c-37.6,37.6-67.1,81.4-87.7,130.2
		c-21.4,50.5-32.2,104.1-32.2,159.4c0,14.9,12,26.9,26.9,26.9c14.9,0,26.9-12,26.9-26.9c0-196.1,159.6-355.7,355.7-355.7l0,0l0,0
		c68.6,0,133-26.7,181.5-75.2C722.9,453.3,749.6,388.9,749.6,320.3L749.6,320.3z"/>
	<path class="st0" d="M541.2,656c0,14.9,12,26.9,26.9,26.9h357.5c14.9,0,26.9-12,26.9-26.9c0-14.9-12-26.9-26.9-26.9H568.1
		C553.3,629.1,541.2,641.2,541.2,656L541.2,656z"/>
	<path class="st0" d="M925.6,766.1H568.1c-14.9,0-26.9,12-26.9,26.9c0,14.9,12,26.9,26.9,26.9h357.5c14.9,0,26.9-12,26.9-26.9
		C952.5,778.2,940.5,766.1,925.6,766.1L925.6,766.1z"/>
	<path class="st0" d="M925.6,903.1H568.1c-14.9,0-26.9,12-26.9,26.9c0,14.9,12,26.9,26.9,26.9h357.5c14.9,0,26.9-12,26.9-26.9
		C952.5,915.1,940.5,903.1,925.6,903.1L925.6,903.1z"/>
</g>
</svg>
