<?xml version="1.0" encoding="utf-8"?>
<!-- Generator: Adobe Illustrator 22.0.0, SVG Export Plug-In . SVG Version: 6.00 Build 0)  -->
<svg version="1.1" id="图层_1" xmlns="http://www.w3.org/2000/svg" xmlns:xlink="http://www.w3.org/1999/xlink" x="0px" y="0px"
	 viewBox="0 0 1024 1024" style="enable-background:new 0 0 1024 1024;" xml:space="preserve">
<style type="text/css">
	.st0{fill:#00B1FF;}
</style>
<g>
	<path class="st0" d="M956.8,515.6c0,93.5,0.1,187,0,280.5c-0.1,57.3-18.5,78.4-68.3,78.4c-41.6,0-83.2-1.8-124.6,0.6
		c-24.8,1.4-20.7-14.6-21.9-31.9c-1.5-20.8,5-26.1,22.7-25.5c40.8,1.4,81.6-0.2,122.5,0.8c16.2,0.4,21-6,21-23.9
		c-0.4-187-0.4-374,0-561c0.1-17.1-5-22-19.8-22c-111,0.6-222.1-0.6-333.1,1.1c-23.2,0.3-22.8-11.4-23.4-30.4
		c-0.6-20,2.5-28.2,22.9-28c112.5,1.3,224.9,0.6,337.3,0.6c43.9,0,64.3,22.3,64.5,72.5C957.1,323.8,956.8,419.7,956.8,515.6
		L956.8,515.6z"/>
	<path class="st0" d="M669.6,419.3c-14.2,0-22,0-24.6,3.3c-3.1,4-3.1,15.5-3.2,34.5l0,2.3c0,7.9,0.9,12.7,3,14.7
		c0.9,0.9,2.7,2.1,8.4,1.8c21.6-0.7,43.5-0.6,64.7-0.4c8.5,0.1,17.1,0.1,25.6,0.1l23.1,0c18.7,0,37.4,0.1,56.1-0.1
		c4.1,0,7.6,0,10.7,0.1c6.5,0.1,12.1,0.2,13.4-1c1.7-1.7,1.8-10.6,2-22c0.1-4.4,0.1-9.5,0.3-15.3c0.2-8.4-0.8-13.8-3-16.1
		c-1.7-1.7-4.9-2.4-10.6-2.3c-40.9,0.7-82.5,0.6-122.8,0.5L669.6,419.3z"/>
	<path class="st0" d="M842.4,554.8c-40.9,0.6-82.4,0.6-122.6,0.5l-43.3-0.1c-14.2,0-22,0-24.6,3.3c-3.1,4-3.1,15.5-3.2,34.5l0,2.3
		c0,7.9,0.9,12.7,3,14.7c0.9,0.9,2.7,2,8.4,1.8c21.6-0.7,43.4-0.6,64.5-0.4c8.6,0.1,17.1,0.1,25.7,0.1l22.6,0
		c18.8,0,37.7,0.1,56.6-0.1c4.1,0,7.6,0,10.7,0.1c6.5,0.1,12.1,0.2,13.4-1c1.7-1.7,1.8-10.6,2-22c0.1-4.4,0.1-9.5,0.3-15.3
		c0.2-8.5-0.8-13.8-3-16.1C851.3,555.3,848.1,554.5,842.4,554.8z"/>
	<path class="st0" d="M653.8,340c40.9-0.7,82.5-0.6,122.8-0.5c15,0,30,0.1,45.1,0.1c12.9,0,21.5,0,24.3-2.9c3.5-3.5,3.3-15.7,3-35.8
		l0-1.9c-0.1-6.6-1-10.7-2.6-12.3c-0.7-0.7-2.1-1.5-7-1.4c-22.1,0.6-44.6,0.5-66.3,0.4c-8.6-0.1-17.2-0.1-25.8-0.1h-79.4
		c-12.8,0-20.5,0-22.8,2.9c-2.8,3.5-3,14-3.3,31.3l0,3c-0.1,8.3,0.8,13.2,2.7,15.2C645.8,339.5,648.8,340.2,653.8,340z"/>
	<path class="st0" d="M478.7,587c-6.7-3.7-13.6-6.7-21-10c-3.8-1.7-7.8-3.4-11.8-5.3l-4.1-1.9l3.7-2.6
		c85.2-59.3,119.3-130.8,107.1-224.9c-11.4-87.9-82.7-163.4-166-175.6c-10.2-1.5-20.4-2.3-30.4-2.3c-78.4,0-147.7,45.6-181.8,121.9
		c-39.1,87.7-20.4,212.2,91,280.6l4.2,2.6l-12.4,5.6c-5.3,2.4-9.7,4.3-14.1,6.5c-108,54-166.6,144.3-174,268.4
		c-0.1,1.3-0.3,2.9-0.6,4.4c-1,5.5-1,7.9,1,8.6c16.3,5.1,33.6,3.6,51.3,1.5c6.7-0.8,7-4.2,5.9-12.8c-0.4-3.2-0.8-6.5-0.2-9.4
		c1.1-5.9,1.8-12,2.5-17.8c0.6-5.3,1.3-10.6,2.2-15.9C150.6,693.1,246.4,615.9,364,620.2c116,4.5,207.5,91.3,217.7,206.5
		c3.5,39.7,3.5,39.7,43.2,39.1l1.6,0c7-0.1,11.1-1.1,13.2-3.4c2-2.1,2.7-5.8,2.3-11.6C634,731.2,579.1,642.4,478.7,587z
		 M354.3,528.3c-0.1,0-0.3,0-0.4,0c-77.5-0.2-140.7-67.9-141-151.1c-0.2-85.3,61.9-152.5,141.2-152.9c0.2,0,0.5,0,0.7,0
		c79.8,0,142.9,66,143.9,150.7c0.5,41.5-15.7,82-44.5,110.9C427.1,513.3,391.7,528.3,354.3,528.3z"/>
</g>
</svg>
