<?xml version="1.0" encoding="utf-8"?>
<!-- Generator: Adobe Illustrator 22.0.0, SVG Export Plug-In . SVG Version: 6.00 Build 0)  -->
<svg version="1.1" id="图层_1" xmlns="http://www.w3.org/2000/svg" xmlns:xlink="http://www.w3.org/1999/xlink" x="0px" y="0px"
	 viewBox="0 0 1024 1024" style="enable-background:new 0 0 1024 1024;" xml:space="preserve">
<style type="text/css">
	.st0{fill:#00B1FF;}
</style>
<g>
	<path class="st0" d="M102.2,354.3h118.7c14.3,0,25.8-12.1,25.8-26.8c0-14.8-11.6-26.9-25.8-26.9H102.2c-14.3,0-25.8,12.1-25.8,26.9
		C76.4,342.2,88,354.3,102.2,354.3z M102.2,546.8h118.7c14.3,0,25.8-12.1,25.8-26.8c0-7.2-2.7-13.9-7.6-19
		c-4.9-5.1-11.4-7.8-18.2-7.8H102.2c-14.3,0-25.8,12.1-25.8,26.9C76.4,535,88,546.8,102.2,546.8z M246.8,711.9
		c0-7.2-2.7-13.9-7.6-19c-4.9-5.1-11.4-7.8-18.2-7.8H102.2c-14.3,0-25.8,12.1-25.8,26.9c0,14.8,11.6,26.8,25.8,26.8h118.7
		C235.2,738.8,246.8,726.7,246.8,711.9z M329.7,739.2l-3.4,8.5h57.7l1.7-3.2c27-50.9,90.5-88.2,154.3-90.6h13.3
		c63.8,2.4,127.4,39.6,154.3,90.6l1.7,3.2H767l-3.4-8.5c-10.5-25.4-28.8-50.4-52.9-72.1c-19-17-41.6-32-65.2-43.4
		c23.3-15.1,43.2-35.6,57.4-59.2c16.9-28.1,25.8-60.2,25.8-93.1c0-100.5-81.8-182.3-182.3-182.3S364,370.9,364,471.4
		c0,32.9,9,65.2,25.9,93.2c14.3,23.6,34.3,44.1,57.7,59.2c-23.6,11.5-46,26.3-65,43.4C358.3,688.9,340.1,713.7,329.7,739.2
		L329.7,739.2z M546,342.1c71.3,0,129.3,58,129.3,129.3s-58,129.3-129.3,129.3c-71.3,0-129.3-58-129.3-129.3
		C416.7,400.2,474.8,342.1,546,342.1z"/>
	<path class="st0" d="M854.1,65.8H238c-53.8,0-97.5,43.8-97.5,97.5v73h52.3v-62.1c0-37,19.6-56.4,56.4-56.4h594.5
		c37,0,56.4,19.6,56.4,56.4v691.5c0,37-19.6,56.5-56.4,56.5H249.3c-37,0-56.4-19.6-56.4-56.5v-62.1h-52.3v72
		c0,53.8,43.8,97.5,97.5,97.5h616.1c53.8,0,97.5-43.8,97.5-97.5v-712C951.6,109.6,907.8,65.8,854.1,65.8z"/>
</g>
</svg>
