<?xml version="1.0" encoding="utf-8"?>
<!-- Generator: Adobe Illustrator 22.0.0, SVG Export Plug-In . SVG Version: 6.00 Build 0)  -->
<svg version="1.1" id="图层_1" xmlns="http://www.w3.org/2000/svg" xmlns:xlink="http://www.w3.org/1999/xlink" x="0px" y="0px"
	 viewBox="0 0 1024 1024" style="enable-background:new 0 0 1024 1024;" xml:space="preserve">
<style type="text/css">
	.st0{fill:#00B1FF;}
</style>
<g>
	<path class="st0" d="M933.7,377.2L561.9,87.6c-27.1-21.1-66.4-21.1-93.5,0L96.5,377.2c-10.7,8.7-12.1,24.2-3.1,34.6
		c9,10.3,25.4,12,36.5,3.7l5.7-4.3h-0.2l22.8-17.7v495.8c0,6.6,2.7,12.8,7.7,17.5c5,4.7,11.5,7.3,18.5,7.3h203.4
		c9.3,0,18-4.7,22.7-12.4c4.7-7.6,4.7-17.1,0-24.8c-4.7-7.6-13.4-12.4-22.7-12.4H210.5V352.7l291.2-226.8c7.8-6.1,19.1-6.1,26.9,0
		l281.9,219.5c-0.7,2.2-1,4.4-1.1,6.8v69.2c0,6.6,2.7,12.9,7.7,17.5c4.9,4.7,11.5,7.2,18.5,7.2c0,0,0,0,0,0
		c14.5,0,26.2-11.2,26.2-24.8v-35.9l38.7,30.1c11.3,8.3,27.2,6.6,36.3-3.8C945.8,401.2,944.5,386.1,933.7,377.2z"/>
	<path class="st0" d="M695.4,466.6c-130.5,0-236.6,108.8-236.6,242.5s106.2,242.5,236.6,242.5s236.6-108.8,236.6-242.5
		S825.9,466.6,695.4,466.6z M695.4,901.5c-103.5,0-187.6-86.3-187.6-192.4S592,516.7,695.4,516.7C798.9,516.7,883,603,883,709.1
		S798.9,901.5,695.4,901.5z"/>
	<path class="st0" d="M568.5,745.7c-7,0-13.4-7.8-13.4-22.2c0-13.7,5.1-22.2,13.4-22.2h192l-53-60.2c-5.1-5.2-3.8-16.3,6.4-25.5
		c10.2-9.2,19.8-11.1,25.5-3.9l79.7,90.3c3.2,2,6.4,4.6,7.7,9.2l1.9,1.3c0.6,1.3,1.9,3.3,1.9,4.6c7.7,11.1,7,21.6,1.3,26.2
		l-105.9,81.7c-7,5.9-16.6,2-24.9-9.2c-7.7-11.1-7-21.6-1.3-26.2l56.1-43.8H568.5z"/>
	<path class="st0" d="M715.7,725.5"/>
</g>
</svg>
