<?xml version="1.0" encoding="utf-8"?>
<!-- Generator: Adobe Illustrator 22.0.0, SVG Export Plug-In . SVG Version: 6.00 Build 0)  -->
<svg version="1.1" id="图层_1" xmlns="http://www.w3.org/2000/svg" xmlns:xlink="http://www.w3.org/1999/xlink" x="0px" y="0px"
	 viewBox="0 0 1024 1024" style="enable-background:new 0 0 1024 1024;" xml:space="preserve">
<style type="text/css">
	.st0{fill:#00B1FF;}
</style>
<g>
	<path class="st0" d="M696.7,123.7h76.7c21.8,0,41,18.2,41,38.8V401c14.5,6.9,27.8,15.6,41,25V160c0-43.8-38.4-77.6-82-77.6h-76.7
		c-11.2,0-22.5,7.5-22.5,20.7C674.2,116.2,682.8,123.7,696.7,123.7L696.7,123.7z"/>
	<path class="st0" d="M471,876.5H148.2c-21.8,0-41-20.7-41-44.3V171.3c0-23.6,19.2-44.3,41-44.3h85.3c10.6,0,21.8-8.6,21.8-23.6
		c0-15-8.6-23.6-21.8-23.6h-85.3c-46.3,0-82,38.6-82,88.7v660.9c0,50.1,35.7,88.7,82,88.7h370.4C501.4,905.9,484.9,892.3,471,876.5
		L471,876.5z"/>
	<path class="st0" d="M283.5,375.8h406c11.2,0,22.5-8.3,22.5-23.7c0-14.6-8.6-23.7-22.5-23.7h-406c-11.2,0-22.5,9-22.5,23.7
		C261,367.5,269,375.8,283.5,375.8L283.5,375.8z"/>
	<path class="st0" d="M354.7,125.9H565c11.2,0,22.5-9,22.5-23.7s-8.6-23.7-22.5-23.7H354.7c-11.2,0-22.5,8.4-22.5,23.7
		C332.3,116.9,343.5,125.9,354.7,125.9L354.7,125.9z"/>
	<path class="st0" d="M283.4,555.7h155.2c11.9-17.4,25.8-33.4,41.7-47.3H283.4c-11.2,0-22.5,9-22.5,23.7
		C260.9,546.7,268.8,555.7,283.4,555.7L283.4,555.7z"/>
	<path class="st0" d="M424.8,714.8c0-9,0-17.4,1.4-26.4H286.3c-12.2,0-24.4,9-24.4,23.7c0,15.3,8.6,23.7,24.4,23.7h139.2
		C424.8,728.7,424.8,721.7,424.8,714.8L424.8,714.8z"/>
	<path class="st0" d="M716.9,445.6c-133.6,0-241.3,110.5-241.3,247.4s107.8,247.4,241.3,247.4c133.6,0,241.3-110.5,241.3-247.4
		S850.4,445.6,716.9,445.6z M716.9,896.3c-109.8,0-198.4-90.8-198.4-203.3s88.6-203.3,198.4-203.3c109.8,0,198.4,90.8,198.4,203.3
		S826.6,896.3,716.9,896.3z"/>
	<path class="st0" d="M779.7,730.9l-58.2,45.4c-5.9,4.7-6.6,15.6,1.3,27.1c8.6,11.5,18.5,15.6,25.8,9.5l109.8-84.7
		c5.9-4.7,6.6-15.6-1.3-27.1c0-1.4-1.3-3.4-2-4.7l-2-1.4c-1.3-4.7-4.6-7.5-7.9-9.5l-82.6-93.5c-5.9-7.5-15.9-5.4-26.4,4.1
		c-10.6,9.5-11.9,21-6.6,26.4l54.9,62.4h-199c-8.6,0-13.9,8.8-13.9,23c0,14.9,6.6,23,13.9,23H779.7z"/>
	<path class="st0" d="M779.7,730.9"/>
</g>
</svg>
