<?xml version="1.0" encoding="utf-8"?>
<!-- Generator: Adobe Illustrator 22.0.0, SVG Export Plug-In . SVG Version: 6.00 Build 0)  -->
<svg version="1.1" id="图层_1" xmlns="http://www.w3.org/2000/svg" xmlns:xlink="http://www.w3.org/1999/xlink" x="0px" y="0px"
	 viewBox="0 0 1024 1024" style="enable-background:new 0 0 1024 1024;" xml:space="preserve">
<style type="text/css">
	.st0{fill:#00B1FF;}
</style>
<g>
	<path class="st0" d="M514.5,895.9H167.3V291.5h696.3v199.2c0,17.1,13.4,30.5,30.5,30.5s30.5-13.4,30.5-30.5V261
		c0-0.8-0.2-1.5-0.2-2.3c0-0.4-0.1-0.8-0.1-1.2c-0.6-5.7-2.7-10.9-6-15.2L795.1,76.6c-5.4-7.8-14.6-12.4-24.6-12.4H251.7
		c-10.2,0-19.8,5.2-25,13.4l-115,166c-3.1,4.6-5,10.1-5.3,16.1c0,0,0,0.1,0,0.1c0,0.5-0.1,0.9-0.1,1.3v665.4
		c0,17.1,13.4,30.5,30.5,30.5h377.8c17.1,0,30.5-13.4,30.5-30.5C545.1,909.3,531.6,895.9,514.5,895.9z M194.8,230.5l72.8-105.3
		h487.6l78.4,105.3H194.8z"/>
	<path class="st0" d="M966.4,898.9l-92.5-104.1c18.6-26.9,29.6-59.4,29.6-94.5c0-91.8-74.7-166.6-166.6-166.6
		s-166.6,74.7-166.6,166.6c0,91.8,74.7,166.6,166.6,166.6c34.6,0,66.8-10.6,93.4-28.8l90.1,101.4c5.4,6.6,14,10.6,22.8,10.6
		c7.8,0,14.9-2.7,20.8-8.1C976.2,930.5,977.3,911.6,966.4,898.9z M813.1,773c-0.8,0.7-1.3,1.5-2,2.3c-19.1,18.9-45.3,30.6-74.1,30.6
		c-58.2,0-105.5-47.3-105.5-105.5S678.8,594.8,737,594.8c58.2,0,105.5,47.3,105.5,105.5c0,28-11,53.4-28.9,72.3
		C813.4,772.8,813.2,772.9,813.1,773z"/>
	<path class="st0" d="M371.1,418.9c-17.1,0-30.5,13.4-30.5,30.5c0,17.1,13.4,30.5,30.5,30.5h289.1c17.1,0,30.5-13.4,30.5-30.5
		c0-17.1-13.4-30.5-30.5-30.5H371.1z"/>
</g>
</svg>
