<?xml version="1.0" encoding="utf-8"?>
<!-- Generator: Adobe Illustrator 22.0.0, SVG Export Plug-In . SVG Version: 6.00 Build 0)  -->
<svg version="1.1" id="图层_1" xmlns="http://www.w3.org/2000/svg" xmlns:xlink="http://www.w3.org/1999/xlink" x="0px" y="0px"
	 viewBox="0 0 1024 1024" style="enable-background:new 0 0 1024 1024;" xml:space="preserve">
<style type="text/css">
	.st0{fill:#00B1FF;}
</style>
<g>
	<path class="st0" d="M666.1,157h73.2c20.8,0,39.1,17.3,39.1,37v227.4c13.9,6.6,26.5,14.9,39.1,23.9V191.6c0-41.8-36.6-74-78.2-74
		h-73.2c-10.7,0-21.4,7.2-21.4,19.7C644.6,149.8,652.8,157,666.1,157L666.1,157z"/>
	<path class="st0" d="M450.8,875H143c-20.8,0-39.1-19.8-39.1-42.3V202.3c0-22.5,18.3-42.3,39.1-42.3h81.3c10.1,0,20.8-8.2,20.8-22.5
		c0-14.3-8.2-22.5-20.8-22.5H143c-44.1,0-78.2,36.8-78.2,84.6v630.3c0,47.8,34.1,84.6,78.2,84.6h353.3
		C479.9,902.9,464.1,890,450.8,875L450.8,875z"/>
	<path class="st0" d="M272,397.4h387.2c10.7,0,21.4-8,21.4-22.6c0-13.9-8.2-22.6-21.4-22.6H272c-10.7,0-21.4,8.6-21.4,22.6
		C250.6,389.5,258.1,397.4,272,397.4L272,397.4z"/>
	<path class="st0" d="M339.9,159.1h200.5c10.7,0,21.4-8.6,21.4-22.6s-8.2-22.6-21.4-22.6H339.9c-10.7,0-21.4,8-21.4,22.6
		C318.5,150.5,329.2,159.1,339.9,159.1L339.9,159.1z"/>
	<path class="st0" d="M271.9,569h148c11.3-16.6,24.6-31.9,39.7-45.1H271.9c-10.7,0-21.4,8.6-21.4,22.6
		C250.4,560.4,258,569,271.9,569L271.9,569z"/>
	<path class="st0" d="M406.8,720.7c0-8.6,0-16.6,1.4-25.2H274.7c-11.6,0-23.2,8.6-23.2,22.6c0,14.6,8.2,22.6,23.2,22.6h132.8
		C406.8,734,406.8,727.3,406.8,720.7L406.8,720.7z"/>
	<g>
		<path class="st0" d="M730,488.8c-127.4,0-230.2,105.4-230.2,235.9c0,130.6,102.8,235.9,230.2,235.9
			c127.4,0,230.2-105.4,230.2-235.9C960.2,594.1,857.4,488.8,730,488.8z M730,918.6c-104.7,0-189.2-86.6-189.2-193.9
			c0-107.3,84.5-193.9,189.2-193.9c104.7,0,189.2,86.6,189.2,193.9C919.2,832,834.7,918.6,730,918.6z"/>
		<path class="st0" d="M856.1,760.9c6.9,0,13.2-7.8,13.2-22c0-13.6-5-22-13.2-22H666.2l52.3-59.5c5-5.2,3.8-16.2-6.3-25.2
			c-10.1-9.1-19.5-11-25.2-3.9l-78.8,89.2c-3.2,1.9-6.3,4.5-7.6,9l-1.9,1.3c-0.6,1.3-1.9,3.2-1.9,4.5c-7.6,11-6.9,21.3-1.3,25.9
			l104.7,80.8c6.9,5.8,16.4,1.9,24.6-9.1c7.6-11,6.9-21.3,1.3-25.9l-55.5-43.3H856.1z"/>
		<path class="st0" d="M789.9,760.9"/>
	</g>
</g>
</svg>
