<?xml version="1.0" encoding="utf-8"?>
<!-- Generator: Adobe Illustrator 22.0.0, SVG Export Plug-In . SVG Version: 6.00 Build 0)  -->
<svg version="1.1" id="图层_1" xmlns="http://www.w3.org/2000/svg" xmlns:xlink="http://www.w3.org/1999/xlink" x="0px" y="0px"
	 viewBox="0 0 1024 1024" style="enable-background:new 0 0 1024 1024;" xml:space="preserve">
<style type="text/css">
	.st0{fill:#00B1FF;stroke:#00B1FF;stroke-width:1.5977;stroke-miterlimit:10;}
</style>
<g>
	<path class="st0" d="M449.2,532.9H114.6c-24.6,0-44.5,20-44.5,44.5V912c0,24.6,20,44.5,44.5,44.5h334.6c24.6,0,44.6-20,44.6-44.5
		V577.5C493.7,552.9,473.7,532.9,449.2,532.9z M449.8,912c0,0.4-0.3,0.7-0.7,0.7H114.6c-0.4,0-0.7-0.3-0.7-0.7V577.5
		c0-0.4,0.3-0.7,0.7-0.7h334.6c0.4,0,0.7,0.3,0.7,0.7V912z M113.7,575.4c-0.4,0.2-0.7,0.4-0.9,0.8
		C113,575.8,113.3,575.5,113.7,575.4z M451.4,912c0,0.3-0.1,0.6-0.2,0.9C451.3,912.7,451.4,912.4,451.4,912V577.5
		c0-0.3-0.1-0.6-0.2-0.9c-0.2-0.4-0.5-0.8-0.9-1c0.4,0.2,0.7,0.6,0.9,1c0.1,0.3,0.2,0.6,0.2,0.9V912z M71.6,912V577.5
		c0-8.9,2.7-17.1,7.3-24c-4.6,6.9-7.3,15.1-7.3,24V912c0,8.9,2.7,17.1,7.3,24C74.3,929.2,71.6,920.9,71.6,912z"/>
	<path class="st0" d="M910.9,532.9H576.3c-24.6,0-44.5,20-44.5,44.5V912c0,24.6,20,44.5,44.5,44.5h334.6c24.6,0,44.5-20,44.5-44.5
		V577.5C955.4,552.9,935.5,532.9,910.9,532.9z M574.2,912.9c-0.1-0.3-0.2-0.6-0.2-0.9V577.5c0-1.2,1-2.3,2.3-2.3l0,0
		c-1.2,0-2.3,1-2.3,2.3V912C574.1,912.4,574.1,912.7,574.2,912.9c0.3,0.8,1.1,1.4,2.1,1.4l0,0C575.4,914.3,574.6,913.7,574.2,912.9z
		 M910.9,575.2L910.9,575.2c0.6,0,1.2,0.3,1.6,0.7C912.1,575.5,911.5,575.2,910.9,575.2z M911.6,577.5V912c0,0.4-0.3,0.7-0.7,0.7
		H576.3c-0.4,0-0.7-0.3-0.7-0.7V577.5c0-0.4,0.3-0.7,0.7-0.7h334.6C911.3,576.8,911.6,577.1,911.6,577.5z M912.5,913.6
		c-0.4,0.4-1,0.7-1.6,0.7l0,0C911.5,914.3,912.1,914.1,912.5,913.6z M953.8,912c0,8.9-2.7,17.1-7.3,24
		C951.1,929.2,953.8,920.9,953.8,912V577.5c0-8.9-2.7-17.1-7.3-24c4.6,6.9,7.3,15.1,7.3,24V912z"/>
	<path class="st0" d="M345.4,495.4H680c24.6,0,44.6-20,44.6-44.6V116.3c0-24.6-20-44.5-44.6-44.5H345.4c-24.6,0-44.6,20-44.6,44.5
		v334.6C300.9,475.4,320.9,495.4,345.4,495.4z M345.4,493.8c-7.4,0-14.4-1.9-20.5-5.2C331.1,491.9,338,493.8,345.4,493.8
		L345.4,493.8z M680.7,450.9c0,0.4-0.3,0.7-0.7,0.7H345.4c-0.2,0-0.3-0.1-0.5-0.2c-0.1-0.1-0.2-0.3-0.2-0.5V116.3
		c0-0.2,0.1-0.3,0.2-0.5c0.1-0.1,0.3-0.2,0.5-0.2H680c0.4,0,0.7,0.3,0.7,0.7V450.9z M692.8,491.9c2-0.6,3.9-1.4,5.8-2.4
		C696.7,490.4,694.8,491.3,692.8,491.9z M698.6,77.6c-1.9-0.9-3.8-1.7-5.8-2.4C694.8,75.9,696.7,76.7,698.6,77.6z M345.4,73.3
		L345.4,73.3c-7.4,0-14.4,1.9-20.5,5.2C331.1,75.2,338,73.3,345.4,73.3z"/>
	<path class="st0" d="M569.2,320.4h-113c-12.1,0-21.9,9.8-21.9,21.9c0,12.1,9.8,21.9,21.9,21.9h113c12.1,0,21.9-9.8,21.9-21.9
		C591.2,330.3,581.3,320.4,569.2,320.4z M580.6,325.5c-2.2-1.5-4.6-2.5-7.3-3.1C576,323,578.5,324,580.6,325.5z M444.8,359.2
		c-5.4-3.7-9-9.8-9-16.9s3.6-13.2,9-16.9c2.2-1.5,4.6-2.5,7.3-3.1c-2.6,0.5-5.1,1.6-7.3,3.1c-5.4,3.7-9,9.8-9,16.9
		S439.4,355.6,444.8,359.2c2.2,1.5,4.6,2.5,7.3,3.1C449.5,361.8,447,360.7,444.8,359.2z M573.3,362.3c2.6-0.5,5.1-1.6,7.3-3.1
		C578.5,360.7,576,361.8,573.3,362.3z M583.6,356.7c3.7-3.7,6-8.8,6-14.4s-2.3-10.7-6-14.4c3.7,3.7,6,8.8,6,14.4
		S587.3,353.1,583.6,356.7z"/>
	<path class="st0" d="M338.4,769.5h-113c-12.1,0-21.9,9.8-21.9,21.9c0,12.1,9.8,21.9,21.9,21.9h113c12.1,0,21.9-9.8,21.9-21.9
		C360.3,779.4,350.5,769.5,338.4,769.5z M350.3,807.9c-0.7,0.5-1.4,0.9-2.1,1.3C348.9,808.8,349.6,808.4,350.3,807.9z M344.6,810.8
		c-1.7,0.6-3.5,0.9-5.4,1C341.1,811.7,342.9,811.3,344.6,810.8z M205,791.5c0-7,3.6-13.2,9-16.9C208.6,778.3,205,784.5,205,791.5
		c0,11.2,9.1,20.3,20.3,20.3C214.1,811.8,205,802.7,205,791.5z M354.1,804.2c2.8-3.5,4.6-7.9,4.6-12.7c0-3.5-0.9-6.7-2.5-9.5
		c1.5,2.8,2.5,6,2.5,9.5C358.7,796.3,357,800.7,354.1,804.2z"/>
	<path class="st0" d="M800.1,769.5h-113c-12.1,0-21.9,9.8-21.9,21.9c0,12.1,9.8,21.9,21.9,21.9h113c12.1,0,21.9-9.8,21.9-21.9
		C822.1,779.4,812.2,769.5,800.1,769.5z M817.9,781.7c-0.9-1.7-2-3.3-3.3-4.6C815.8,778.4,816.9,780,817.9,781.7z M687.1,811.8
		c-2.8,0-5.5-0.6-7.9-1.6c-2.4-1-4.6-2.5-6.5-4.4c-3.7-3.7-6-8.8-6-14.4c0-5.6,2.3-10.7,6-14.4c-3.7,3.7-6,8.8-6,14.4
		c0,5.6,2.3,10.7,6,14.4c1.8,1.8,4,3.3,6.5,4.4C681.6,811.3,684.3,811.8,687.1,811.8L687.1,811.8z M814.5,805.9
		c-1.8,1.8-4,3.3-6.5,4.4c-2.4,1-5.1,1.6-7.9,1.6c2.8,0,5.5-0.6,7.9-1.6C810.5,809.2,812.7,807.7,814.5,805.9c3.7-3.7,6-8.8,6-14.4
		v0C820.5,797.1,818.2,802.2,814.5,805.9z"/>
</g>
</svg>
