<?xml version="1.0" encoding="utf-8"?>
<!-- Generator: Adobe Illustrator 22.0.0, SVG Export Plug-In . SVG Version: 6.00 Build 0)  -->
<svg version="1.1" id="图层_1" xmlns="http://www.w3.org/2000/svg" xmlns:xlink="http://www.w3.org/1999/xlink" x="0px" y="0px"
	 viewBox="0 0 1024 1024" style="enable-background:new 0 0 1024 1024;" xml:space="preserve">
<style type="text/css">
	.st0{fill:#00B1FF;}
</style>
<g>
	<path class="st0" d="M131.9,124.6V840c0,4,3.2,7.2,7.2,7.2h337v52.2h-337c-32.8,0-59.4-26.6-59.4-59.4V124.6
		c0-32.8,26.6-59.4,59.4-59.4h602c32.8,0,59.4,26.6,59.4,59.4v288.6h-52.2V124.6c0-4-3.2-7.2-7.2-7.2h-602
		C135.1,117.4,131.9,120.6,131.9,124.6L131.9,124.6z"/>
	<path class="st0" d="M288,522.2h104.2c9.3,0,17.9,5,22.6,13c4.7,8.1,4.7,18,0,26.1c-4.7,8.1-13.3,13.1-22.6,13H288
		c-9.3,0-17.9-5-22.6-13c-4.7-8.1-4.7-18,0-26.1C270.1,527.2,278.7,522.2,288,522.2L288,522.2z"/>
	<path class="st0" d="M614.3,407.1c0,6.9-2.8,13.6-7.7,18.5c-4.9,4.9-11.6,7.6-18.5,7.6H288c-9.3,0-17.9-5-22.6-13
		c-4.7-8.1-4.7-18,0-26.1c4.7-8.1,13.3-13,22.6-13h300.3C602.6,381,614.3,392.7,614.3,407.1L614.3,407.1z"/>
	<path class="st0" d="M588.2,244.9c14.4,0,26.1,11.7,26.1,26.1c0,14.4-11.7,26.1-26.1,26.1H287.9c-9.3,0-17.9-5-22.6-13
		c-4.7-8.1-4.7-18,0-26.1c4.7-8.1,13.3-13,22.6-13H588.2z"/>
	<g>
		<path class="st0" d="M929,573.8L745,467.6c-4.9-2.8-10.5-4.4-16.2-4.4c0,0,0,0-0.1,0c-5.7,0-11.3,1.5-16.2,4.3l-184,106.2
			c-10,5.8-16.2,16.6-16.2,28.1v212.5c0,11.6,6.2,22.3,16.2,28.1l184,106.2c4.9,2.8,10.5,4.3,16.2,4.3c5.7,0,11.3-1.5,16.2-4.3
			l184-106.2c10-5.8,16.2-16.6,16.2-28.1V601.9C945.2,590.4,939,579.6,929,573.8z M903.8,607.1v202.1l-175,101l-175-101V607.1
			l175-101L903.8,607.1z"/>
		<path class="st0" d="M600.9,610.4L600.9,610.4c-9.9-5.7-22.6-2.3-28.3,7.6c-5.7,9.9-2.3,22.6,7.6,28.3L708,720.1v141.3
			c0,11.4,9.3,20.7,20.7,20.7s20.7-9.3,20.7-20.7V720.1l127.9-73.8c4.8-2.8,8.2-7.2,9.7-12.6c1.4-5.3,0.7-10.9-2.1-15.7
			c-2.8-4.8-7.2-8.2-12.6-9.7c-5.4-1.4-10.9-0.7-15.7,2.1l-127.9,73.8L600.9,610.4z"/>
	</g>
</g>
</svg>
