<?xml version="1.0" encoding="utf-8"?>
<!-- Generator: Adobe Illustrator 22.0.0, SVG Export Plug-In . SVG Version: 6.00 Build 0)  -->
<svg version="1.1" id="图层_1" xmlns="http://www.w3.org/2000/svg" xmlns:xlink="http://www.w3.org/1999/xlink" x="0px" y="0px"
	 viewBox="0 0 1024 1024" style="enable-background:new 0 0 1024 1024;" xml:space="preserve">
<style type="text/css">
	.st0{fill:#00B1FF;}
</style>
<g>
	<path class="st0" d="M940.3,374.5L565.9,82.9c-27.3-21.3-66.9-21.2-94.2,0L97.1,374.6c-10.8,8.8-12.2,24.4-3.2,34.8
		c9.1,10.4,25.5,12.1,36.7,3.7l5.7-4.3h-0.2l22.9-17.9v499.3c0,6.7,2.7,12.9,7.7,17.7c5,4.7,11.6,7.3,18.7,7.3h204.8
		c9.4,0,18.2-4.8,22.9-12.5c4.7-7.7,4.7-17.3,0-25c-4.7-7.7-13.5-12.5-22.9-12.5H211.9V349.9l293.3-228.4c7.8-6.1,19.2-6.1,27.1,0
		l283.9,221.1c-0.7,2.2-1.1,4.5-1.1,6.8V419c0,6.7,2.8,12.9,7.8,17.7c5,4.7,11.6,7.3,18.6,7.3c0,0,0,0,0,0c14.6,0,26.4-11.2,26.4-25
		v-36.2l39,30.3c11.4,8.3,27.4,6.6,36.6-3.9C952.5,398.8,951.2,383.5,940.3,374.5z"/>
	<path class="st0" d="M700.3,464.6C568.9,464.6,462,574.2,462,708.8s106.9,244.2,238.3,244.2s238.3-109.6,238.3-244.2
		S831.8,464.6,700.3,464.6z M700.3,902.6c-104.2,0-189-86.9-189-193.8s84.8-193.8,189-193.8c104.2,0,189,86.9,189,193.8
		S804.5,902.6,700.3,902.6z"/>
	<path class="st0" d="M828.8,745.7c7.1,0,13.5-7.9,13.5-22.4c0-13.8-5.1-22.4-13.5-22.4H635.4l53.3-60.6c5.1-5.3,3.9-16.5-6.4-25.7
		c-10.3-9.2-19.9-11.2-25.7-4l-80.3,90.9c-3.2,2-6.4,4.6-7.7,9.2l-1.9,1.3c-0.6,1.3-1.9,3.3-1.9,4.6c-7.7,11.2-7.1,21.7-1.3,26.3
		l106.7,82.3c7.1,5.9,16.7,2,25.1-9.2c7.7-11.2,7.1-21.7,1.3-26.3l-56.5-44.1H828.8z"/>
	<path class="st0" d="M720.7,725.4"/>
</g>
</svg>
