<?xml version="1.0" encoding="utf-8"?>
<!-- Generator: Adobe Illustrator 22.0.0, SVG Export Plug-In . SVG Version: 6.00 Build 0)  -->
<svg version="1.1" id="图层_1" xmlns="http://www.w3.org/2000/svg" xmlns:xlink="http://www.w3.org/1999/xlink" x="0px" y="0px"
	 viewBox="0 0 1024 1024" style="enable-background:new 0 0 1024 1024;" xml:space="preserve">
<style type="text/css">
	.st0{fill:#FFFFFF;}
</style>
<g>
	<path class="st0" d="M950.4,565.9c-4.1-21.5-18.2-35.4-36-35.4h-2.3c-30.9,0-56-25.1-56-56c0-8,3.5-18,4.9-21.1
		c8.4-18.9,1.9-42.1-15-53.9l-69.4-38.7l-0.7-0.3c-5.3-2.3-11.4-3.5-17.7-3.5c-13.3,0-26.2,5.2-34.6,13.9
		c-7.9,8.2-30.2,26.1-44.9,26.1c-14.8,0-37.2-18.3-45.2-26.6c-8.5-8.9-21.5-14.2-34.9-14.2c-6.2,0-12.3,1.2-18,3.7l-70.5,38.6
		l-1.4,0.9c-17,11.8-23.5,34.9-15.1,53.8c1.4,3.2,4.9,13.3,4.9,21.2c0,30.9-25.1,56-55.9,56h-2.8c-10.4,0-19.4,5-26,13.4H108.1
		V204.1c0-7.9,3.1-15.3,8.8-20.9c5.5-5.6,13-8.7,20.8-8.7h630.6c7.9,0,15.3,3.1,20.9,8.8c5.6,5.5,8.7,13,8.7,20.8v168.7l34.9,19.5
		V204.1c0-35.6-29-64.6-64.6-64.6H137.7c-35.6,0-64.6,29-64.6,64.6v445.5c0,35.6,29,64.6,64.6,64.6h207.9v79.6H196
		c-9.6,0-17.5,7.8-17.5,17.5c0,9.6,7.8,17.5,17.5,17.5h301c3.2,5.1,7.3,9.4,12.2,12.8l66.9,37.5l1.3,0.6c5.7,2.5,11.9,3.8,18.1,3.7
		c13.2,0,26.1-5.5,34.6-14.8c8.9-9.7,31.5-27.8,45.9-27.8c15.2,0,38.1,19.5,46.2,28.3c8.5,9.4,21.6,15,34.9,15
		c6.3,0,12.5-1.3,18.3-3.9l69.3-38.2l1.4-0.9c17-11.8,23.4-35,15.1-53.7c0-0.1-5-11.8-5-21.3c0-30.9,25.1-55.9,55.9-55.9h2.7
		c17.6,0,31.5-13.9,35.6-35.4c0.6-3.2,5.8-31.5,5.8-54.5C956.2,597.5,951,569.1,950.4,565.9z M137.7,679.3L137.7,679.3
		c-7.9,0-15.4-3.2-20.9-8.8c-5.6-5.5-8.7-13-8.7-20.8v-70.8h294.1l0,0l0,0l0,0c-1.7,11.1-3.6,27.4-3.6,41.6
		c0,22.9,5.2,51.3,5.8,54.5c0.3,1.5,0.7,2.8,1.1,4.2c-0.3,0-0.6,0.1-1,0.1H137.7z M493.7,787.4c-0.9,2.1-1.6,4.2-2.2,6.4h-111v-79.6
		H463c20.8,8.2,35.5,28.4,35.5,52C498.6,774.2,495,784.2,493.7,787.4z M906.9,666c-52.9,2.7-95.1,46.7-95.1,100.2
		c0,17.9,7,35.1,8.5,38.6l-63.1,34.9H757c-0.7,0-1.4-0.2-2.1-0.5c-1.1-1.2-10.3-11-23.4-20.8c-19.6-14.6-38.3-22-55.6-22
		c-17.1,0-35.6,7.3-55.1,21.6c-8.3,6.1-16.2,13-23.3,20.4c-0.6,0.3-1.3,0.5-2,0.5h-0.1l-60.9-34c1.5-3.5,8.5-20.7,8.5-38.7
		c0-53.6-42.2-97.5-95.1-100.2c-0.8-4.2-4.9-27.9-4.9-45.6s4.1-41.4,4.9-45.6c52.9-2.8,95.1-46.7,95.1-100.3c0-17.9-6.9-35-8.5-38.6
		l64.3-35.3h0.2c1.1,0,2.1,0.4,2.4,0.6c7.1,7.2,14.8,13.8,23.1,19.7c19.3,13.7,37.5,20.7,54.2,20.7c16.5,0,34.7-6.8,53.8-20.3
		c8.2-5.8,15.9-12.2,23-19.3c0.7-0.4,1.5-0.6,2.4-0.6h0.3l62.1,34.5c-1.5,3.5-8.5,20.7-8.5,38.7c0,53.6,42.2,97.5,95.1,100.3
		c0.8,4.2,4.9,27.9,4.9,45.6C911.7,638.2,907.6,661.8,906.9,666z"/>
	<path class="st0" d="M673.3,514.1c-60.2,0-109.2,49-109.2,109.2s49,109.2,109.2,109.2s109.2-49,109.2-109.2
		S733.5,514.1,673.3,514.1z M673.3,697.6c-39.7,0-74.3-34.6-74.3-74.3s34.6-74.3,74.3-74.3s74.3,34.6,74.3,74.3
		C747.6,663.1,713,697.6,673.3,697.6z"/>
</g>
</svg>
