<?xml version="1.0" encoding="utf-8"?>
<!-- Generator: Adobe Illustrator 22.0.0, SVG Export Plug-In . SVG Version: 6.00 Build 0)  -->
<svg version="1.1" id="图层_1" xmlns="http://www.w3.org/2000/svg" xmlns:xlink="http://www.w3.org/1999/xlink" x="0px" y="0px"
	 viewBox="0 0 1024 1024" style="enable-background:new 0 0 1024 1024;" xml:space="preserve">
<style type="text/css">
	.st0{fill:#00B1FF;}
</style>
<g>
	<path class="st0" d="M93.9,352c-15.4,0-28,12.5-28,27.9v267.3c0,15.4,12.5,28,28,28s28-12.5,28-28V379.9
		C121.8,364.5,109.3,352,93.9,352z"/>
	<path class="st0" d="M656.8,114.6c-8.2-5.1-18.5-5.5-27.2-1.2L191.3,333c-9.5,4.7-15.4,14.4-15.4,25v311.2c0,10.6,6,20.3,15.4,25
		l438.3,219.6c4,2,8.2,3,12.5,3c5.1,0,10.2-1.4,14.7-4.2c8.2-5.1,13.3-14.1,13.3-23.8V138.4C670,128.7,665,119.7,656.8,114.6z
		 M614.1,843.6L614.1,843.6L567,820V447.2c0-10.3-8.3-18.6-18.6-18.6c-10.3,0-18.6,8.3-18.6,18.6v354L231.7,652V375.2l298.1-149.4
		V343c0,10.3,8.3,18.6,18.6,18.6c10.3,0,18.6-8.3,18.6-18.6V207.2l47.1-23.6V843.6h0.1H614.1z"/>
	<path class="st0" d="M749.6,222.3L749.6,222.3c-6.1-2-12.5-1.5-18.1,1.4c-5.7,2.9-9.9,7.8-11.8,13.8c-4.1,12.5,2.7,25.9,15.2,30
		c106.4,35.1,178,134,178,246.1s-71.6,211.1-178.1,246.1c-6,2-10.9,6.2-13.8,11.9s-3.4,12.1-1.4,18.1c3.3,9.7,12.3,16.3,22.6,16.3
		c2.6,0,5.2-0.4,7.4-1.3c126-41.4,210.7-158.5,210.7-291.2C960.3,380.8,875.6,263.8,749.6,222.3z"/>
	<path class="st0" d="M731.1,682.3c-11.6,6.1-16,20.5-9.9,32.1c4.1,7.8,12.1,12.7,21,12.7c3.9,0,7.7-1,11.1-2.8
		c78.5-41.4,127.3-122.2,127.3-210.8c0-88.6-48.8-169.4-127.3-210.8c-11.6-6.1-26-1.7-32.1,9.9c-6.1,11.6-1.7,26,9.9,32.1
		C793.9,377.9,833,442.6,833,513.5C833,584.4,793.9,649.1,731.1,682.3z"/>
</g>
</svg>
