<?xml version="1.0" encoding="utf-8"?>
<!-- Generator: Adobe Illustrator 22.0.0, SVG Export Plug-In . SVG Version: 6.00 Build 0)  -->
<svg version="1.1" id="图层_1" xmlns="http://www.w3.org/2000/svg" xmlns:xlink="http://www.w3.org/1999/xlink" x="0px" y="0px"
	 viewBox="0 0 1024 1024" style="enable-background:new 0 0 1024 1024;" xml:space="preserve">
<style type="text/css">
	.st0{fill:#00B1FF;}
</style>
<g>
	<path class="st0" d="M133.5,135.3v744.2c0,4.1,3.3,7.5,7.5,7.5h350.6v54.3H140.9c-34.1,0-61.8-27.7-61.8-61.8V135.3
		c0-34.1,27.7-61.8,61.8-61.8h626.2c34.1,0,61.8,27.7,61.8,61.8v300.3h-54.3V135.3c0-4.1-3.3-7.5-7.5-7.5H140.9
		C136.8,127.8,133.5,131.2,133.5,135.3L133.5,135.3z"/>
	<path class="st0" d="M295.9,549h108.4c9.7,0,18.7,5.2,23.5,13.6c4.9,8.4,4.9,18.8,0,27.2c-4.8,8.4-13.8,13.6-23.5,13.6H295.9
		c-9.7,0-18.7-5.2-23.5-13.6c-4.9-8.4-4.9-18.7,0-27.2C277.2,554.1,286.2,549,295.9,549L295.9,549z"/>
	<path class="st0" d="M635.3,429.2c0,7.2-2.9,14.1-8,19.2c-5.1,5.1-12,7.9-19.2,7.9H295.9c-9.7,0-18.7-5.2-23.5-13.6
		c-4.9-8.4-4.9-18.8,0-27.2c4.9-8.4,13.8-13.6,23.5-13.6h312.3C623.2,402.1,635.3,414.2,635.3,429.2L635.3,429.2z"/>
	<path class="st0" d="M608.2,260.5c15,0,27.1,12.2,27.1,27.2c0,15-12.2,27.1-27.1,27.1H295.8c-9.7,0-18.7-5.2-23.5-13.6
		c-4.8-8.4-4.8-18.8,0-27.2c4.9-8.4,13.8-13.6,23.5-13.6H608.2z"/>
	<path class="st0" d="M876.1,741.5c3.3,0,6.6,0,9.9,1.3h0.7c2,0.7,3.9,2,5.3,2.6c0.7,0,0.7,0.7,1.3,0.7l28.3,12.5
		c5.3,2,11.2,2,15.8-1.3c4.6-3.3,7.2-8.5,7.2-13.8V596.3c0-9.2-7.2-16.4-16.4-16.4H808.4l3.3-7.9c1.3-2.6,2.6-5.9,3.9-9.2
		c0-0.7,0.7-1.3,0.7-2c2-6.6,3.3-13.1,3.3-19.7c0-35.5-28.9-65.1-65.1-65.1c-35.5,0-65.1,28.9-65.1,65.1c0,5.9,0.7,12.5,2.6,18.4
		v0.7c1.3,5.9,3.9,11.2,7.2,16.4l2,3.9H594.2c-9.2,0-16.4,7.2-16.4,16.4v120.9l-1.3-0.7c-2.6-1.3-5.9-2.6-9.2-3.9
		c-0.7,0-1.3-0.7-2-0.7c-6.6-2-13.1-3.3-19.7-3.3c-35.5,0-65.1,28.9-65.1,65.1c0,35.5,28.9,65.1,65.1,65.1c5.9,0,12.5-0.7,18.4-2.6
		h0.7c4.6-1.3,9.2-3.3,13.1-5.9v99.9c0,9.2,7.2,16.4,16.4,16.4H928c9.2,0,16.4-7.2,16.4-16.4V801.9c0-5.3-3.3-11.2-7.9-13.8
		c-4.6-2.6-10.5-3.3-15.8-0.7l-25,11.8c-0.7,0.7-1.3,0.7-2,1.3c-2.6,1.3-5.3,3.3-8.5,3.9c-2.6,0.7-5.9,1.3-9.2,1.3
		c-17.7,0-32.2-14.5-32.2-32.2C843.9,755.9,858.4,741.5,876.1,741.5z M868.6,832.4c5.6,0,11.9-0.6,17.5-2.5h0.6
		c5.6-1.9,10.6-4.4,15.6-7.5h0.6v81.3H616.6V798.6c0-5-3.1-10-7.5-13.1c-4.4-2.5-10-3.1-15-0.6l-20.6,10c-0.6,0.6-1.2,0.6-1.9,1.2
		c-2.5,1.3-5,3.1-8.1,3.8c-2.5,0.6-5.6,1.2-8.8,1.2c-16.9,0-30.6-13.8-30.6-30.6c0-16.9,13.8-30.6,30.6-30.6c3.1,0,6.3,0,9.4,1.2
		h0.6c1.9,0.6,3.8,1.9,5,2.5c0.6,0,0.6,0.6,1.2,0.6l23.8,10.6c5,1.9,10.6,1.9,15-1.3c4.4-3.1,6.9-8.1,6.9-13.1V617.9h110.7
		c5,0,10.6-3.1,13.1-7.5c2.5-4.4,3.1-10,0.6-15l-12.5-26.9c-0.6-0.6-0.6-1.3-1.3-1.9c-1.2-2.5-3.1-5-3.7-8.1
		c-0.6-2.5-1.3-5.6-1.3-8.8c0-16.9,13.8-30.6,30.6-30.6c16.9,0,30.6,13.8,30.6,30.6c0,3.1,0,6.3-1.3,9.4v0.6c-0.6,1.9-1.9,3.8-2.5,5
		c0,0.6-0.6,0.6-0.6,1.3L766,596c-1.9,5-1.9,10.6,1.3,15c3.1,4.4,8.1,6.9,13.1,6.9h121.9v100.1L898,716c-2.5-1.2-5.6-2.5-8.8-3.8
		c-0.6,0-1.2-0.6-1.9-0.6c-6.3-1.9-12.5-3.1-18.8-3.1c-33.8,0-61.9,27.5-61.9,61.9C806.7,804.2,834.2,832.4,868.6,832.4z"/>
</g>
</svg>
