<?xml version="1.0" encoding="utf-8"?>
<!-- Generator: Adobe Illustrator 22.0.0, SVG Export Plug-In . SVG Version: 6.00 Build 0)  -->
<svg version="1.1" id="图层_1" xmlns="http://www.w3.org/2000/svg" xmlns:xlink="http://www.w3.org/1999/xlink" x="0px" y="0px"
	 viewBox="0 0 1024 1024" style="enable-background:new 0 0 1024 1024;" xml:space="preserve">
<style type="text/css">
	.st0{fill:#00B1FF;}
</style>
<path class="st0" d="M368,192.4v234H127.8v-234H368 M375.3,135.4H120.5c-27.4,0-49.7,22.2-49.7,49.7v248.5
	c0,27.4,22.2,49.7,49.7,49.7h254.8c27.4,0,49.7-22.2,49.7-49.7V185.1C425,157.6,402.7,135.4,375.3,135.4z M368,652.1v234H127.8v-234
	H368 M375.3,595.1H120.5c-27.4,0-49.7,22.2-49.7,49.7v248.5c0,27.4,22.2,49.7,49.7,49.7h254.8c27.4,0,49.7-22.2,49.7-49.7V644.9
	C425,617.5,402.7,595.1,375.3,595.1L375.3,595.1z M834,652.1v234H593.8v-234H834 M841.3,595.1H586.5c-27.4,0-49.7,22.2-49.7,49.7
	v248.5c0,27.4,22.2,49.7,49.7,49.7h254.8c27.4,0,49.7-22.2,49.7-49.7V644.9C891,617.5,868.7,595.1,841.3,595.1L841.3,595.1z
	 M729.4,135.4l165.5,165.5L725.1,470.8L559.5,305.3L729.4,135.4 M729.4,75.4c-12.7,0-25.5,4.8-35.1,14.6L514.1,270.1
	c-19.4,19.5-19.4,50.8,0,70.3l175.7,175.7c9.7,9.7,22.4,14.6,35.1,14.6c12.7,0,25.5-4.8,35.1-14.6L940.2,336
	c19.4-19.5,19.4-50.9,0-70.3L764.6,90.1C754.9,80.4,742.1,75.4,729.4,75.4z"/>
</svg>
