<?xml version="1.0" encoding="utf-8"?>
<!-- Generator: Adobe Illustrator 22.0.0, SVG Export Plug-In . SVG Version: 6.00 Build 0)  -->
<svg version="1.1" id="图层_1" xmlns="http://www.w3.org/2000/svg" xmlns:xlink="http://www.w3.org/1999/xlink" x="0px" y="0px"
	 viewBox="0 0 1024 1024" style="enable-background:new 0 0 1024 1024;" xml:space="preserve">
<style type="text/css">
	.st0{fill:#00B1FF;}
</style>
<g>
	<path class="st0" d="M713,810.1l-189.5-107l47-26.6l134.1,75.8c2.6,1.5,5.4,2.3,8.4,2.2c2.9,0,5.8-0.7,8.4-2.2l134.1-75.8l47,26.6
		L713,810.1L713,810.1z M902.5,799.6L713,906.6l-189.5-107l46.7-26.4l134.4,75.9c2.6,1.5,5.4,2.3,8.4,2.2c2.9,0,5.8-0.7,8.4-2.2
		l134.4-75.9L902.5,799.6z M713,499.3l189.5,107L713,713.3l-189.5-107L713,499.3L713,499.3z M959.2,703.1c0-7.2-3.7-13.8-9.7-17.1
		l-55.4-31.3l55.4-31.3c5.9-3.3,9.6-9.9,9.7-17.1c0-7.2-3.7-13.8-9.7-17.1L721.3,460.4c-5.2-3-11.5-3-16.7,0L476.4,589.2
		c-5.9,3.3-9.6,9.9-9.7,17.1c0,7.2,3.7,13.8,9.7,17.1l55.4,31.3L476.4,686c-5.9,3.3-9.7,9.9-9.7,17.1c0,7.2,3.7,13.8,9.7,17.1
		l55.1,31.1l-55.1,31.1c-5.9,3.3-9.7,9.9-9.7,17.1c0,7.2,3.7,13.8,9.7,17.1l228.2,128.8c2.6,1.5,5.4,2.3,8.4,2.2
		c2.9,0,5.8-0.7,8.4-2.2l228.2-128.8c5.9-3.3,9.6-9.9,9.7-17.1c0-7.2-3.7-13.8-9.7-17.1l-55.1-31.1l55.1-31.1
		C955.5,716.9,959.2,710.3,959.2,703.1L959.2,703.1z M959.2,703.1"/>
	<path class="st0" d="M118.5,135.9v687.9c0,3.8,3.1,6.9,6.9,6.9h324V881h-324c-31.5,0-57.1-25.6-57.1-57.1V135.9
		c0-31.5,25.6-57.1,57.1-57.1h578.8c31.5,0,57.1,25.6,57.1,57.1v277.5h-50.2V135.9c0-3.8-3.1-6.9-6.9-6.9H125.4
		C121.6,129,118.5,132.1,118.5,135.9L118.5,135.9z"/>
	<path class="st0" d="M268.6,518.2h100.2c9,0,17.3,4.8,21.7,12.5c4.5,7.8,4.5,17.3,0,25.1c-4.5,7.8-12.8,12.6-21.7,12.5H268.6
		c-9,0-17.3-4.8-21.7-12.5c-4.5-7.8-4.5-17.3,0-25.1C251.4,523,259.7,518.2,268.6,518.2L268.6,518.2z"/>
	<path class="st0" d="M582.4,407.5c0,6.7-2.6,13.1-7.4,17.8c-4.7,4.7-11.1,7.3-17.8,7.3H268.6c-9,0-17.3-4.8-21.7-12.5
		c-4.5-7.8-4.5-17.3,0-25.1c4.5-7.8,12.8-12.5,21.7-12.5h288.7C571.2,382.4,582.4,393.7,582.4,407.5L582.4,407.5z"/>
	<path class="st0" d="M557.3,251.6c13.9,0,25.1,11.2,25.1,25.1c0,13.9-11.2,25.1-25.1,25.1H268.6c-9,0-17.3-4.8-21.7-12.5
		c-4.5-7.8-4.5-17.3,0-25.1c4.5-7.8,12.8-12.5,21.7-12.5H557.3z"/>
</g>
</svg>
