<?xml version="1.0" encoding="utf-8"?>
<!-- Generator: Adobe Illustrator 22.0.0, SVG Export Plug-In . SVG Version: 6.00 Build 0)  -->
<svg version="1.1" id="图层_1" xmlns="http://www.w3.org/2000/svg" xmlns:xlink="http://www.w3.org/1999/xlink" x="0px" y="0px"
	 viewBox="0 0 1024 1024" style="enable-background:new 0 0 1024 1024;" xml:space="preserve">
<style type="text/css">
	.st0{fill:#00B1FF;}
</style>
<g>
	<path class="st0" d="M69.2,911.6c0,14.3,11.6,25.9,25.9,25.9h826.5c14.3,0,25.9-11.6,25.9-25.9c0-36.1-4.5-72.7-13.4-107.9
		c-4-13.8-18.7-21.4-32.6-17.4c-12.9,4-20.5,16.9-17.8,30.3c4.9,20.1,8.5,41,10.3,61.6l0.4,7.1H121.8l0.4-7.1
		c8-95.9,51.7-184.7,122.7-250.7c71.4-66,163.7-103,260.9-103.5h2.2c123.1,0,223-99.9,223-223c0-123.1-99.9-223-223-223
		c-123.1,0-223,99.9-223,223c0,71.4,33.5,136.9,91.9,179.3l10.7,7.6l-12.5,4c-87,27.7-165,83.4-219.9,157
		C99.1,726.5,69.2,817,69.2,911.6L69.2,911.6z M341.3,301.9c0-92.3,74.9-167.3,167.3-167.3c92.3,0,167.3,74.9,167.3,167.3
		c0,92.3-74.9,167.7-167.3,167.7C416.2,469.6,341.3,394.2,341.3,301.9L341.3,301.9z M341.3,301.9"/>
	<path class="st0" d="M661.5,732.3l-96.8-96.8c-5.4-5.4-12.5-8-19.6-8c-7.1,0-14.3,2.7-19.6,8c-10.7,10.7-10.7,28.5,0,39.2
		l116.4,116.4c5.4,5.4,12,8,19.6,8c7.6,0,14.3-2.7,19.6-8l246.7-246.7c10.7-10.7,10.7-28.5,0-39.2c-10.7-10.7-28.5-10.7-39.3,0
		L661.5,732.3z M661.5,732.3"/>
</g>
</svg>
