<?xml version="1.0" encoding="utf-8"?>
<!-- Generator: Adobe Illustrator 22.0.0, SVG Export Plug-In . SVG Version: 6.00 Build 0)  -->
<svg version="1.1" id="图层_1" xmlns="http://www.w3.org/2000/svg" xmlns:xlink="http://www.w3.org/1999/xlink" x="0px" y="0px"
	 viewBox="0 0 1024 1024" style="enable-background:new 0 0 1024 1024;" xml:space="preserve">
<style type="text/css">
	.st0{fill:#00B1FF;}
</style>
<g>
	<path class="st0" d="M793.8,93.8H226.6c-90.3,0-163.7,79-163.7,176.2v227.8c0,15.8,12.1,28.6,27.1,28.6s27.1-12.8,27.1-28.6V270
		c0-65.6,49.2-118.9,109.6-118.9h567.2c60.4,0,109.6,53.4,109.6,118.9v227.8c0,15.8,12.1,28.6,27.1,28.6c14.9,0,27-12.8,27-28.6V270
		C957.5,172.8,884.1,93.8,793.8,93.8z"/>
	<path class="st0" d="M799,684c-7.4,0.3-14.1,3.7-19,9.4c-9.8,11.5-9.1,29.5,1.6,40.1c29.5,29.3,46.5,70.9,46.5,114.2
		c0,15.8,12.1,28.6,27.1,28.6c14.9,0,27.1-12.8,27.1-28.6c0-59.1-23.2-116-63.6-156C813.3,686.4,806.3,683.6,799,684z"/>
	<path class="st0" d="M344.1,688.1c7.7-5.2,12.4-13.4,12.8-22.6c0.7-15.7-10.8-29.2-25.7-29.9c-42.8-2.2-76.3-40.3-76.3-86.8
		c0-38.5,23.8-72.9,57.9-83.6c14.2-4.4,22.4-20.3,18.3-35.3c-2-7.6-7-14-13.6-17.6c-6.2-3.4-13.4-4.1-20.1-2
		c-56.9,17.9-96.7,74.8-96.7,138.5c0,42.1,17.2,82.1,46.6,109.3c-66.7,35.4-109.2,108.6-109.2,189.7c0,15.8,12.1,28.6,27.1,28.6
		c14.9,0,27.1-12.8,27.1-28.6c0-83.6,60.5-151.4,137.6-154.4C334.8,693.2,339.5,691.5,344.1,688.1z"/>
	<path class="st0" d="M689.2,635.6c-14.9,0.8-26.4,14.2-25.7,30c0.7,15.3,12.6,27.3,27,27.3l1.3,0c71.7-3.7,127.8-67,127.8-144.1
		c0-63.8-39.7-120.7-96.6-138.6c-6.7-2.1-13.9-1.4-20.1,2c-6.6,3.6-11.6,10-13.6,17.6c-4,15,4.2,30.9,18.3,35.3
		c34.1,10.7,57.9,45.1,57.9,83.6C765.5,595.2,732,633.4,689.2,635.6z"/>
	<path class="st0" d="M510.2,343.7c-91.3,0-165.5,79.9-165.5,178.2c0,57,25,109.6,67.4,143.2c-89.2,42-148.2,138-148.2,243.2
		c0,15.8,12.1,28.6,27.1,28.6c14.9,0,27.1-12.8,27.1-28.6c0-114.8,86.3-208.2,192.3-208.2c91.3,0,165.6-79.9,165.6-178.2
		C675.8,423.6,601.5,343.7,510.2,343.7z M621.7,521.9c0,66.7-50,120.9-111.4,120.9c-61.5,0-111.5-54.3-111.5-120.9
		c0-66.7,50-120.9,111.5-120.9C571.7,401,621.7,455.3,621.7,521.9z"/>
	<path class="st0" d="M657.4,705.1c-7.4,0.3-14.1,3.6-19.1,9.4l0,0c-9.8,11.5-9.1,29.5,1.6,40.1c39.7,39.4,62.5,95.4,62.5,153.7
		c0,15.8,12.1,28.6,27.1,28.6c14.9,0,27.1-12.8,27.1-28.6c0-74.1-29-145.3-79.7-195.5C671.7,707.6,664.7,704.9,657.4,705.1z"/>
</g>
</svg>
