<?xml version="1.0" encoding="utf-8"?>
<!-- Generator: Adobe Illustrator 22.0.0, SVG Export Plug-In . SVG Version: 6.00 Build 0)  -->
<svg version="1.1" id="图层_1" xmlns="http://www.w3.org/2000/svg" xmlns:xlink="http://www.w3.org/1999/xlink" x="0px" y="0px"
	 viewBox="0 0 1024 1024" style="enable-background:new 0 0 1024 1024;" xml:space="preserve">
<style type="text/css">
	.st0{fill:#00B1FF;}
</style>
<g>
	<path class="st0" d="M554.4,63.9H151.1c-12.7,0-22.7,10-22.7,22.7V937c0,12.7,10,22.7,22.7,22.7h403.3c12.7,0,22.7-10,22.7-22.7
		V86.7C577.2,73.9,567.2,63.9,554.4,63.9z M531.7,914.3H173.8V794.6c2.4,0.9,5,1.4,7.7,1.4h243.3c12.7,0,22.7-10,22.7-22.7
		c0-12.7-10-22.7-22.7-22.7H181.6c-2.7,0-5.3,0.5-7.7,1.4V620.5c2.4,0.9,5,1.4,7.7,1.4h145.1c12.7,0,22.7-10,22.7-22.7
		c0-12.7-10-22.7-22.7-22.7H181.6c-2.7,0-5.3,0.5-7.7,1.4V447.2c2.4,0.9,5,1.4,7.7,1.4h243.3c12.7,0,22.7-10,22.7-22.7
		c0-12.7-10-22.7-22.7-22.7H181.6c-2.7,0-5.3,0.5-7.7,1.4v-131c2.4,0.9,5,1.4,7.7,1.4h145.1c12.7,0,22.7-10,22.7-22.7
		c0-12.7-10-22.7-22.7-22.7H181.6c-2.7,0-5.3,0.5-7.7,1.4V109.4h357.9V914.3z"/>
	<path class="st0" d="M872.3,250.4H649.5c-12.7,0-22.7,10-22.7,22.7v526.1c0,5,1.8,10,5,14.1l111.4,137.8c4.5,5.5,10.9,8.6,17.7,8.6
		c6.8,0,13.2-3.2,17.7-8.6L890,813.3c3.2-3.6,5-9.1,5-14.1V273.1C895,260.4,885,250.4,872.3,250.4z M672.2,758.3v-361h177.3v361
		H672.2z M849.5,295.8v55.9H672.2v-55.9H849.5z M760.9,900.6l-78.4-96.9h156.7L760.9,900.6z"/>
</g>
</svg>
