<?xml version="1.0" encoding="utf-8"?>
<!-- Generator: Adobe Illustrator 22.0.0, SVG Export Plug-In . SVG Version: 6.00 Build 0)  -->
<svg version="1.1" id="图层_1" xmlns="http://www.w3.org/2000/svg" xmlns:xlink="http://www.w3.org/1999/xlink" x="0px" y="0px"
	 viewBox="0 0 1024 1024" style="enable-background:new 0 0 1024 1024;" xml:space="preserve">
<style type="text/css">
	.st0{fill:#00B1FF;}
</style>
<g>
	<path class="st0" d="M809.1,953.1H215.5c-67.7,0-123.3-52.3-123.3-117.1V187.9C92.2,123.1,147.5,71,215.5,71h105.3v48.6H215.5
		c-41.2,0-74.7,30.6-74.7,68.3V836c0,37.7,33.5,68.3,74.7,68.3h593.7c41.2,0,74.7-30.6,74.7-68.3V187.9c0-37.7-33.5-68.3-74.7-68.3
		H711V71h98.1c67.7-0.2,123.3,52.1,123.3,116.9V836C932.4,900.8,876.9,953.1,809.1,953.1L809.1,953.1z"/>
	<path class="st0" d="M594.4,119.5H441.8c-13.4,0-24.3-10.9-24.3-24.3s10.9-24.3,24.3-24.3h152.5c13.4,0,24.3,10.9,24.3,24.3
		S607.8,119.5,594.4,119.5z M755.3,390.5H290c-13.4,0-24.3-10.9-24.3-24.3c0-13.4,10.9-24.3,24.3-24.3h465.4
		c13.4,0,24.3,10.9,24.3,24.3C779.7,379.6,768.8,390.5,755.3,390.5z M755.3,550.1H290c-13.4,0-24.3-10.9-24.3-24.3
		s10.9-24.3,24.3-24.3h465.4c13.4,0,24.3,10.9,24.3,24.3S768.8,550.1,755.3,550.1z M755.3,709.6H290c-13.4,0-24.3-10.9-24.3-24.3
		c0-13.4,10.9-24.3,24.3-24.3h465.4c13.4,0,24.3,10.9,24.3,24.3C779.6,698.7,768.7,709.5,755.3,709.6z"/>
</g>
</svg>
