<?xml version="1.0" encoding="utf-8"?>
<!-- Generator: Adobe Illustrator 22.0.0, SVG Export Plug-In . SVG Version: 6.00 Build 0)  -->
<svg version="1.1" id="图层_1" xmlns="http://www.w3.org/2000/svg" xmlns:xlink="http://www.w3.org/1999/xlink" x="0px" y="0px"
	 viewBox="0 0 1024 1024" style="enable-background:new 0 0 1024 1024;" xml:space="preserve">
<style type="text/css">
	.st0{fill:#00B1FF;}
</style>
<g>
	<path class="st0" d="M616.3,829.5c-13.4,0-23.9-10.4-23.9-23.7V606.7c0-46.4-37.8-83.7-84.8-83.7c-73.3,0-132.7-58.7-132.7-131
		V211.7c0-13.2,10.5-23.7,23.9-23.7c13.4,0,23.9,10.4,23.9,23.7v180.3c0,46.4,37.8,83.7,84.8,83.7c73.3,0,132.7,58.7,132.7,131
		v199.2C640.2,819.1,629.7,829.5,616.3,829.5L616.3,829.5z M616.3,829.5"/>
	<path class="st0" d="M398.4,829.5c-13.4,0-23.9-10.4-23.9-23.7V606.7c0-72.4,59.4-131,132.7-131c46.9,0,84.8-37.4,84.8-83.7V211.7
		c0-13.2,10.5-23.7,23.9-23.7c13.4,0,23.9,10.4,23.9,23.7v180.3c0,72.4-59.4,131-132.7,131c-46.9,0-84.8,37.4-84.8,83.7v199.2
		C422.3,819.1,411.8,829.5,398.4,829.5L398.4,829.5z M461.6,279.3c-6.2,0-12.4-2.4-16.8-7.1l-46-45.4l-46.5,45.4c-9.6,9-24.4,9-34,0
		c-9.1-9.5-9.1-24.1,0-33.6l63.2-62c9.6-9,24.4-9,34,0l62.7,62c9.6,9.5,9.6,24.1,0,33.6C474,276.9,467.8,279.3,461.6,279.3
		L461.6,279.3z M461.6,279.3"/>
	<path class="st0" d="M679,279.3c-6.2,0-12-2.4-16.8-7.1l-46.5-45.4l-46,45.4c-9.6,9.5-24.4,9.5-34,0c-9.6-9.5-9.6-24.1,0-33.6
		l62.7-62c9.1-9,24.4-9.5,34,0l63.2,62c9.6,9,9.6,24.1,0,33.6C691.5,276.9,685.2,279.3,679,279.3L679,279.3z M398.9,860.3
		c-6.2,0-12-2.4-16.8-7.1l-63.2-62c-9.6-9-9.6-24.1,0-33.6c9.1-9.5,24.4-9.5,34,0l46.5,45.4l46-45.4c9.6-9.5,24.4-9.5,34,0
		c9.6,9.5,9.6,24.1,0,33.6l-62.7,62C411.3,857.9,405.1,860.3,398.9,860.3L398.9,860.3z M615.8,860.3c-6.2,0-12.5-2.4-16.8-7.1
		l-62.7-62c-9.6-9.5-9.6-24.1,0-33.6c9.6-9.5,24.4-9.5,34,0l46,45.4l46.5-45.4c9.6-9,24.4-9,34,0c9.6,9,9.1,24.1,0,33.6l-63.2,62
		C627.8,857.9,622,860.3,615.8,860.3L615.8,860.3z M615.8,860.3"/>
	<path class="st0" d="M929.5,950.2H95.2c-13.4,0-23.9-10.4-23.9-23.7V102.4c0-13.2,10.5-23.7,23.9-23.7h834.3
		c13.4,0,23.9,10.4,23.9,23.7v824.2C953.4,939.8,942.9,950.2,929.5,950.2L929.5,950.2z M119.2,902.9h786.4V126H119.2V902.9z
		 M119.2,902.9"/>
</g>
</svg>
