<?xml version="1.0" encoding="utf-8"?>
<!-- Generator: Adobe Illustrator 22.0.0, SVG Export Plug-In . SVG Version: 6.00 Build 0)  -->
<svg version="1.1" id="图层_1" xmlns="http://www.w3.org/2000/svg" xmlns:xlink="http://www.w3.org/1999/xlink" x="0px" y="0px"
	 viewBox="0 0 1024 1024" style="enable-background:new 0 0 1024 1024;" xml:space="preserve">
<style type="text/css">
	.st0{fill:#00B1FF;}
</style>
<g>
	<rect x="349.6" y="731.6" class="st0" width="500.8" height="47.6"/>
	<rect x="349.6" y="557.2" class="st0" width="500.8" height="47.6"/>
	<path class="st0" d="M868.2,69.5H331.9c-47.9,0-86.8,39.5-86.8,88.1v121h-83c-50.3,0-91.3,40-91.3,89.1v496.8
		c0,49.1,41,89.1,91.3,89.1h706.1c47.9,0,86.8-39.5,86.8-88v-708C955,109,916,69.5,868.2,69.5z M907.4,865.6
		c0,22.3-17.6,40.5-39.2,40.5H146.8c-15.8,0-28.5-12.8-28.5-28.5V354.7c0-15.8,12.8-28.5,28.5-28.5H245v488.1h47.6V157.5
		c0-22.3,17.6-40.5,39.2-40.5h536.3c21.7,0,39.2,18.2,39.2,40.5V865.6z"/>
	<path class="st0" d="M849.5,238.2H345.7v221.2h503.8V238.2z M805.6,415.5h-416V282.1h416V415.5z"/>
</g>
</svg>
