<?xml version="1.0" encoding="utf-8"?>
<!-- Generator: Adobe Illustrator 22.0.0, SVG Export Plug-In . SVG Version: 6.00 Build 0)  -->
<svg version="1.1" id="图层_1" xmlns="http://www.w3.org/2000/svg" xmlns:xlink="http://www.w3.org/1999/xlink" x="0px" y="0px"
	 viewBox="0 0 1024 1024" style="enable-background:new 0 0 1024 1024;" xml:space="preserve">
<style type="text/css">
	.st0{fill:#00B1FF;}
</style>
<g>
	<path class="st0" d="M129.1,871.9V131.9c0-4.1,3.3-7.4,7.4-7.5h622.7c4.1,0,7.4,3.4,7.4,7.5v298.6h54V131.9
		c0-33.9-27.6-61.5-61.5-61.5H136.5C102.6,70.4,75,98,75,131.9v740.1c0,33.9,27.6,61.5,61.5,61.5h348.6v-54H136.5
		C132.4,879.4,129.1,876.1,129.1,871.9z"/>
	<path class="st0" d="M398.3,543.2H290.5c-9.6,0-18.6,5.1-23.4,13.5c-4.8,8.4-4.8,18.6,0,27c4.8,8.4,13.7,13.5,23.4,13.5h107.8
		c9.6,0,18.6-5.1,23.4-13.5c4.8-8.4,4.8-18.6,0-27C416.9,548.3,408,543.2,398.3,543.2z"/>
	<path class="st0" d="M620.2,443.2c5.1-5.1,7.9-11.9,7.9-19.1h0c0-14.9-12.1-27-26.9-27H290.5c-9.6,0-18.6,5.1-23.4,13.5
		c-4.8,8.4-4.8,18.6,0,27c4.8,8.4,13.7,13.5,23.4,13.5h310.5C608.3,451.1,615.1,448.3,620.2,443.2z"/>
	<path class="st0" d="M601.1,256.3H290.5c-9.6,0-18.6,5.1-23.4,13.5c-4.8,8.4-4.8,18.6,0,27c4.8,8.4,13.7,13.5,23.4,13.5h310.6
		c14.9,0,27-12.1,27-27C628.1,268.4,616,256.3,601.1,256.3z"/>
	<path class="st0" d="M921.6,729.4c0-10.1,7.2-19,17.1-21.1l15.9-24.2c-4.9-24.5-13.9-47.9-26.6-69.4l-29.1-6.7
		c-3.5,2.3-7.6,3.6-11.9,3.6c0,0,0,0,0,0c-11.9,0-21.6-9.7-21.6-21.6c0-4.9,1.7-9.8,4.8-13.6l-3.8-29.6c-26.1-19-55.2-32-86.7-38.6
		L755.4,525c-1.7,10.4-10.7,18-21.3,18c-10.5,0-19.6-7.8-21.3-18.1L688.4,508c-31.6,6.4-60.9,19.3-87,38.3l-3.6,29.9
		c2.3,2.7,5.1,7.4,5.1,13.9c0,11.9-9.7,21.6-21.6,21.6c0,0,0,0,0,0c-4.4,0-8.6-1.3-12.2-3.8l-29.5,6.4
		c-12.8,21.6-21.9,45.1-26.9,69.8l16.4,24.3c10.2,1.9,17.6,10.8,17.6,21.2c0,10.3-7.3,19.3-17.5,21.2L512.9,775
		c5.6,26.9,15.9,52.2,30.7,75.3l27.2,6.9c3.2-1.8,6.9-2.7,10.4-2.7c11.9,0,21.6,9.7,21.6,21.6c0,3.9-1,7.7-3,11l6,27.5
		c25.2,17.4,53.2,29.3,83.1,35.3L713,934c2.1-9.9,11-17.1,21.1-17.1c10.1,0,19,7.1,21.1,17l24.3,15.8c29.9-6.2,57.7-18.2,82.8-35.6
		l6-27.2c-1.9-3.3-2.9-7-2.9-10.8c0-11.9,9.7-21.6,21.6-21.6c0,0,0,0,0,0c3.4,0,6.9,0.8,9.9,2.5l26.9-7.2
		c14.7-23.1,24.9-48.3,30.5-75l-15.8-24.3C928.7,748.4,921.6,739.5,921.6,729.4z M910,782.6c-3.3,10.9-7.6,21.5-12.9,31.6
		c-3.3-0.5-6.8-1-10.1-0.8c-34.6,0-62.7,28.1-62.7,62.6c0,4.3,0.4,8.5,1.3,12.6c-12.1,7-25,12.6-38.3,16.6
		c-11.2-17.9-31.2-29.5-53.2-29.5c-22.1,0-42.1,11.8-53.3,29.8c-13.3-4-26.1-9.4-38.3-16.4c0.9-4.3,1.4-8.7,1.4-13.1
		c0-34.6-28.1-62.7-62.6-62.7c-3.7,0.2-7.4,0.3-11.1,1c-5.2-10-9.5-20.4-12.8-31.2c18.4-11.1,30.4-31.2,30.4-53.7
		c0-22.6-12.1-42.9-30.6-53.9c2.5-8.4,5.7-16.6,9.4-24.5c4.8,1.2,9.9,1.7,14.8,1.7c34.6,0,62.7-28.1,62.7-62.7
		c0-7-1.2-13.8-3.4-20.3c12.4-7.3,25.4-13,39.1-17.2c10.9,19.1,31.3,31.5,54.5,31.5c23,0,43.4-12.3,54.3-31.3
		c13.7,4.2,26.8,10.1,39.1,17.4c-2.1,6.4-3.2,13-3.2,19.8c0,34.6,28.1,62.7,62.6,62.7c0,0,0.1,0,0.1,0c4.7,0,9.3-0.5,13.7-1.5
		c3.8,8.1,6.9,16.4,9.4,24.9c-18,11.2-29.8,31.2-29.8,53.3C880.5,751.4,892.1,771.3,910,782.6z"/>
	<path class="st0" d="M733.6,625.6c-57,0-103.3,46.3-103.3,103.3c0,57,46.3,103.3,103.3,103.3c57,0,103.3-46.3,103.3-103.3
		C836.9,672,790.6,625.6,733.6,625.6z M733.6,791.1c-34.3,0-62.2-27.9-62.2-62.2c0-34.3,27.9-62.2,62.2-62.2
		c34.3,0,62.2,27.9,62.2,62.2C795.8,763.2,767.9,791.1,733.6,791.1z"/>
</g>
</svg>
