<?xml version="1.0" encoding="utf-8"?>
<!-- Generator: Adobe Illustrator 22.0.0, SVG Export Plug-In . SVG Version: 6.00 Build 0)  -->
<svg version="1.1" id="图层_1" xmlns="http://www.w3.org/2000/svg" xmlns:xlink="http://www.w3.org/1999/xlink" x="0px" y="0px"
	 viewBox="0 0 1024 1024" style="enable-background:new 0 0 1024 1024;" xml:space="preserve">
<style type="text/css">
	.st0{fill:#00B1FF;}
</style>
<g>
	<path class="st0" d="M947.3,649.5c-9.3-9.3-21.6-14.4-34.8-14.4h-74.3V512.3c0-40.5-33-73.5-73.5-73.5h-499
		c-40.5,0-73.5,33-73.5,73.5V635h-76.9c-27.1,0-49.1,22-49.1,49.1v197.8c0,27.1,22,49.1,49.1,49.1h197.8c27.1,0,49.1-22,49.1-49.1
		V684.1c0-27.1-22-49.1-49.1-49.1h-71.8V512.3c0-13.4,10.9-24.3,24.3-24.3h499c13.4,0,24.3,10.9,24.3,24.3V635h-74.3
		c-27.1,0-49.1,22-49.1,49.1v197.8c0,27.1,22,49.1,49.1,49.1h197.8c27.1,0,49.1-22,49.1-49.1V684.1
		C961.6,671.1,956.5,658.7,947.3,649.5z M912.5,684.3v197.4H715.1V684.3H912.5z M115.6,881.7V684.3H313v197.4H115.6z"/>
	<path class="st0" d="M406,386.2h207.5c24.6,0,44.6-20,44.6-44.6v-207c0-24.5-20-44.4-44.6-44.4H406c-24.6,0-44.6,20-44.6,44.6
		v206.8C361.5,366.2,381.5,386.2,406,386.2z M412.3,335.4V140.9h195v194.5H412.3z"/>
</g>
</svg>
