<?xml version="1.0" encoding="utf-8"?>
<!-- Generator: Adobe Illustrator 22.0.0, SVG Export Plug-In . SVG Version: 6.00 Build 0)  -->
<svg version="1.1" id="图层_1" xmlns="http://www.w3.org/2000/svg" xmlns:xlink="http://www.w3.org/1999/xlink" x="0px" y="0px"
	 viewBox="0 0 1024 1024" style="enable-background:new 0 0 1024 1024;" xml:space="preserve">
<style type="text/css">
	.st0{fill:#00B1FF;}
</style>
<g>
	<path class="st0" d="M711.1,694.7c19.3-2.1,30.1-17.2,27.9-34.4l-51.6-376.1L810,271.3l51.6,378.3c2.1,17.2,17.2,27.9,34.4,25.8
		c17.2-2.1,27.9-17.2,25.8-34.4L868,254.1c-4.3-27.9-30.1-47.3-58-45.1l-137.6,15c-27.9,4.3-47.3,30.1-45.1,58l53.7,386.9
		C683.2,683.9,696.1,694.7,711.1,694.7z"/>
	<path class="st0" d="M951.4,763.4c-4.5-5.4-11-8.5-18.2-8.7c-7.1-0.3-14.4,2.3-20,7L777.4,884.4l-51.6-65.1
		c-5.6-6.7-14.5-11.3-23.3-11.3c-5.2,0-10.4,1.6-14.9,5.4c-10.8,9-16.1,26.2-6,38.3l70.9,81.6l6.3,6.3c4.8,5.7,10.7,8.7,17.4,9
		c6.3,0.3,13.2-2.2,19-7l154.6-139.6c5.5-4.6,8.6-11,8.8-18.3C958.7,776.4,956.1,769.1,951.4,763.4z"/>
	<path class="st0" d="M571.4,69.2H403.8C388.8,69.2,378,80,378,95v825.3c0,15,10.7,25.8,25.8,25.8h167.6c15,0,25.8-10.7,25.8-25.8
		V95C597.2,80,586.5,69.2,571.4,69.2z M540.4,889.3H434.8V126.1h105.6V889.3z"/>
	<path class="st0" d="M257.7,309H87.9c-13.2,0-22.4,9.2-22.4,22.4v588.9c0,13.2,9.2,22.4,22.4,22.4h169.8c13.2,0,22.4-9.2,22.4-22.4
		V331.5C280.1,318.2,270.9,309,257.7,309z M226.6,889.3H118.9V362.5h107.7V889.3z"/>
</g>
</svg>
