<?xml version="1.0" encoding="utf-8"?>
<!-- Generator: Adobe Illustrator 22.0.0, SVG Export Plug-In . SVG Version: 6.00 Build 0)  -->
<svg version="1.1" id="图层_1" xmlns="http://www.w3.org/2000/svg" xmlns:xlink="http://www.w3.org/1999/xlink" x="0px" y="0px"
	 viewBox="0 0 1024 1024" style="enable-background:new 0 0 1024 1024;" xml:space="preserve">
<style type="text/css">
	.st0{fill:#00B1FF;}
</style>
<g>
	<g>
		<path class="st0" d="M701.5,711.3c-36.5-6.5-65.1-37.8-65.1-76.8c0-43,35.2-78.1,78.1-78.1c43,0,78.1,35.2,78.1,78.1
			c0,39.1-28.6,70.3-65.1,76.8v72.9c0,7.8-5.2,13-13,13c-7.8,0-13-5.2-13-13V711.3z M310.9,711.3c-36.5-6.5-65.1-37.8-65.1-76.8
			c0-43,35.2-78.1,78.1-78.1s78.1,35.2,78.1,78.1c0,39.1-28.6,70.3-65.1,76.8v72.9c0,7.8-5.2,13-13,13c-7.8,0-13-5.2-13-13V711.3z
			 M506.2,323.3c-36.5,6.5-65.1,37.8-65.1,76.8c0,43,35.2,78.1,78.1,78.1s78.1-35.2,78.1-78.1c0-39.1-28.6-70.3-65.1-76.8v-72.9
			c0-7.8-5.2-13-13-13c-7.8,0-13,5.2-13,13V323.3L506.2,323.3z M310.9,250.4c0-7.8,5.2-13,13-13c7.8,0,13,5.2,13,13v260.4
			c0,7.8-5.2,13-13,13c-7.8,0-13-5.2-13-13V250.4z M701.5,250.4c0-7.8,5.2-13,13-13c7.8,0,13,5.2,13,13v260.4c0,7.8-5.2,13-13,13
			c-7.8,0-13-5.2-13-13V250.4z M519.2,452.2c-28.6,0-52.1-23.4-52.1-52.1s23.4-52.1,52.1-52.1c28.6,0,52.1,23.4,52.1,52.1
			S547.9,452.2,519.2,452.2z M506.2,523.8c0-7.8,5.2-13,13-13c7.8,0,13,5.2,13,13v260.4c0,7.8-5.2,13-13,13c-7.8,0-13-5.2-13-13
			V523.8z M324,686.6c28.6,0,52.1-23.4,52.1-52.1c0-28.6-23.4-52.1-52.1-52.1s-52.1,23.4-52.1,52.1
			C271.9,663.1,295.3,686.6,324,686.6z M714.5,686.6c28.6,0,52.1-23.4,52.1-52.1c0-28.6-23.4-52.1-52.1-52.1
			c-28.6,0-52.1,23.4-52.1,52.1C662.4,663.1,685.9,686.6,714.5,686.6z"/>
		<path class="st0" d="M714.5,806.8c-13.1,0-22.6-9.5-22.6-22.6V719c-38.2-10.4-65.1-44.8-65.1-84.5c0-48.4,39.4-87.7,87.7-87.7
			c48.4,0,87.7,39.4,87.7,87.7c0,39.7-26.9,74.1-65.1,84.5v65.2C737.2,797.3,727.6,806.8,714.5,806.8z M714.5,566
			c-37.8,0-68.5,30.7-68.5,68.5c0,33.1,24,61.4,57.2,67.3l7.9,1.4v81c0,2.5,0.9,3.4,3.4,3.4c2.5,0,3.4-0.9,3.4-3.4v-81l7.9-1.4
			c33.1-5.9,57.2-34.2,57.2-67.3C783,596.7,752.3,566,714.5,566z M519.2,806.8c-13.1,0-22.6-9.5-22.6-22.6V523.8
			c0-13.1,9.5-22.6,22.6-22.6c13.1,0,22.6,9.5,22.6,22.6v260.4C541.9,797.3,532.4,806.8,519.2,806.8z M519.2,520.4
			c-2.5,0-3.4,0.9-3.4,3.4v260.4c0,2.5,0.9,3.4,3.4,3.4s3.4-0.9,3.4-3.4V523.8C522.6,521.3,521.7,520.4,519.2,520.4z M324,806.8
			c-13.1,0-22.6-9.5-22.6-22.6V719c-38.2-10.4-65.1-44.8-65.1-84.5c0-48.4,39.4-87.7,87.7-87.7s87.7,39.4,87.7,87.7
			c0,39.7-26.9,74.1-65.1,84.5v65.2C346.6,797.3,337.1,806.8,324,806.8z M324,566c-37.8,0-68.5,30.7-68.5,68.5
			c0,33.1,24,61.4,57.2,67.3l7.9,1.4v81c0,2.5,0.9,3.4,3.4,3.4s3.4-0.9,3.4-3.4v-81l7.9-1.4c33.1-5.9,57.2-34.2,57.2-67.3
			C392.4,596.7,361.7,566,324,566z M714.5,696.2c-34,0-61.7-27.7-61.7-61.7s27.7-61.7,61.7-61.7s61.7,27.7,61.7,61.7
			S748.5,696.2,714.5,696.2z M714.5,592c-23.4,0-42.5,19-42.5,42.5c0,23.4,19,42.5,42.5,42.5c23.4,0,42.5-19,42.5-42.5
			C757,611.1,737.9,592,714.5,592z M324,696.2c-34,0-61.7-27.7-61.7-61.7s27.7-61.7,61.7-61.7s61.7,27.7,61.7,61.7
			S358,696.2,324,696.2z M324,592c-23.4,0-42.5,19-42.5,42.5c0,23.4,19,42.5,42.5,42.5s42.5-19,42.5-42.5
			C366.4,611.1,347.4,592,324,592z M714.5,533.4c-13.1,0-22.6-9.5-22.6-22.6V250.4c0-13.1,9.5-22.6,22.6-22.6
			c13.1,0,22.6,9.5,22.6,22.6v260.4C737.2,523.9,727.6,533.4,714.5,533.4z M714.5,247c-2.5,0-3.4,0.9-3.4,3.4v260.4
			c0,2.5,0.9,3.4,3.4,3.4c2.5,0,3.4-0.9,3.4-3.4V250.4C717.9,247.9,717,247,714.5,247z M324,533.4c-13.1,0-22.6-9.5-22.6-22.6V250.4
			c0-13.1,9.5-22.6,22.6-22.6s22.6,9.5,22.6,22.6v260.4C346.6,523.9,337.1,533.4,324,533.4z M324,247c-2.5,0-3.4,0.9-3.4,3.4v260.4
			c0,2.5,0.9,3.4,3.4,3.4s3.4-0.9,3.4-3.4V250.4C327.3,247.9,326.5,247,324,247z M519.2,487.9c-48.4,0-87.7-39.4-87.7-87.7
			c0-39.7,26.9-74.1,65.1-84.5v-65.2c0-13.1,9.5-22.6,22.6-22.6c13.1,0,22.6,9.5,22.6,22.6v65.2c38.2,10.4,65.1,44.8,65.1,84.5
			C607,448.5,567.6,487.9,519.2,487.9z M519.2,247c-2.5,0-3.4,0.9-3.4,3.4v81l-7.9,1.4c-33.1,5.9-57.2,34.2-57.2,67.3
			c0,37.8,30.7,68.5,68.5,68.5c37.8,0,68.5-30.7,68.5-68.5c0-33.1-24-61.4-57.2-67.3l-7.9-1.4v-81C522.6,247.9,521.7,247,519.2,247z
			 M519.2,461.8c-34,0-61.7-27.7-61.7-61.7s27.7-61.7,61.7-61.7s61.7,27.7,61.7,61.7S553.3,461.8,519.2,461.8z M519.2,357.7
			c-23.4,0-42.5,19-42.5,42.5s19,42.5,42.5,42.5c23.4,0,42.5-19,42.5-42.5S542.6,357.7,519.2,357.7z"/>
	</g>
	<path class="st0" d="M958.5,907.3H68V114.7h890.5V907.3z M116.2,859h794V162.9h-794V859z"/>
</g>
</svg>
