<?xml version="1.0" encoding="utf-8"?>
<!-- Generator: Adobe Illustrator 22.0.0, SVG Export Plug-In . SVG Version: 6.00 Build 0)  -->
<svg version="1.1" id="图层_1" xmlns="http://www.w3.org/2000/svg" xmlns:xlink="http://www.w3.org/1999/xlink" x="0px" y="0px"
	 viewBox="0 0 1024 1024" style="enable-background:new 0 0 1024 1024;" xml:space="preserve">
<style type="text/css">
	.st0{fill:#00B1FF;}
</style>
<g>
	<path class="st0" d="M390.7,883.7H216.1V355.2c0-0.2-0.1-0.4-0.1-0.6L499.9,121c8.5-7,20.7-7,29.2,0l275.1,226.5
		c-0.9,2.5-1.4,5.1-1.4,7.8v71.1c0,12.7,10.3,23,23,23c12.7,0,23-10.3,23-23v-42.1l41.5,34.2c9.8,7.6,24,6,31.9-3.6
		c7.9-9.6,6.7-23.8-2.6-32L558.4,85.5c-25.5-21-62.2-21-87.7,0L109.5,382.8c-9.5,8.2-10.7,22.4-2.8,32.1c8,9.7,22.2,11.2,32,3.5h0
		l31.4-25.9v514.2c0,6.1,2.4,12,6.7,16.3c4.3,4.3,10.2,6.7,16.3,6.7h197.5c8.2,0,15.8-4.4,19.9-11.5c4.1-7.1,4.1-15.9,0-23
		C406.5,888,398.9,883.7,390.7,883.7L390.7,883.7z M390.7,883.7"/>
	<g>
		<path class="st0" d="M905.4,509c-5.7-0.9-11.4,0.4-16.1,3.7c-4.8,3.4-8,8.6-9,14.6l-11.2,69.4H514.5c-12.2,0-23.4,5.7-30.8,15.7
			c-7.3,9.9-9.6,22.5-6.4,34.5l52.8,195.6c3.9,18.1,19.8,31.3,37.9,31.3h267.7c18.9,0,34.9-13.9,38.1-33.1l49.5-306.1
			C925.2,522.5,917.2,511.1,905.4,509z M861.9,641.3l-30.4,188H571.6l-50.7-188H861.9z"/>
		<path class="st0" d="M622.9,899c-5.7-5.9-13.3-9.1-21.4-9.1c0,0,0,0,0,0c-16.6,0-30.2,13.9-30.1,31c0,8.2,3.1,16,8.8,21.8
			c5.7,5.9,13.3,9.1,21.4,9.1c0,0,0,0,0,0c16.6,0,30.2-13.9,30.1-31h-4.9l4.9,0C631.7,912.6,628.5,904.9,622.9,899z"/>
		<path class="st0" d="M792.6,889.9C792.6,889.9,792.6,889.9,792.6,889.9c-16.7,0-30.2,13.9-30.2,31c0,17.1,13.5,31,30.2,31
			c16.6,0,30.2-13.9,30.2-31v0c0-8.2-3.1-16-8.8-21.8C808.3,893.1,800.7,889.9,792.6,889.9z"/>
		<path class="st0" d="M612.9,801.8h168.4c12,0,21.7-10,21.7-22.3v-31H591.2v31C591.2,791.8,600.9,801.8,612.9,801.8z"/>
	</g>
</g>
</svg>
