<?xml version="1.0" encoding="utf-8"?>
<!-- Generator: Adobe Illustrator 22.0.0, SVG Export Plug-In . SVG Version: 6.00 Build 0)  -->
<svg version="1.1" id="图层_1" xmlns="http://www.w3.org/2000/svg" xmlns:xlink="http://www.w3.org/1999/xlink" x="0px" y="0px"
	 viewBox="0 0 1024 1024" style="enable-background:new 0 0 1024 1024;" xml:space="preserve">
<style type="text/css">
	.st0{fill:#4D4D4D;}
	.st1{fill:#00B1FF;}
	.st2{fill:none;}
</style>
<g>
	<path class="st0" d="M522.2,892.8"/>
	<path class="st1" d="M884.3,547.2l-168-92.1c-23-12.6-50.9-12.6-74,0l-168,92.1c-23.9,13.1-38.8,37.9-38.8,64.9v182.3
		c0.1,27.1,15,52,38.8,64.9l168,92.1c23,12.6,50.9,12.6,74,0l168-92.1c23.9-13.1,38.8-37.9,38.8-64.9V612.1
		C923,584.9,908.1,560.1,884.3,547.2L884.3,547.2z M876.3,794.4c0,9.8-5.5,18.9-14.5,23.8l-168,92.1c-9,4.9-19.9,4.9-28.9,0
		l-168-92.1c-9-5-14.5-14-14.5-23.8V612c0-9.8,5.5-18.9,14.5-23.8l168-92.1c9-4.9,19.9-4.9,28.9,0l168,92.1c9,4.9,14.5,14,14.5,23.8
		V794.4z M876.3,794.4"/>
	<path class="st1" d="M758.3,727.7l-56.6-56.6l-0.8,165.2c-0.2,12.8-10.7,23.1-23.5,23c-12.8-0.1-23.2-10.4-23.3-23.2l0.9-166.6
		l-58.2,58.2c-9.1,8.8-23.5,8.8-32.5,0c-4.5-4.3-7-10.2-7.2-16.4c-0.1-6.2,2.3-12.2,6.6-16.7l85.7-85.7c7.5-7.5,17.7-11.7,28.2-11.7
		c10.6,0,20.8,4.2,28.2,11.7l85.7,85.7c8.9,9.2,8.8,23.8-0.2,32.9C782.1,736.4,767.5,736.6,758.3,727.7L758.3,727.7z M758.3,727.7"
		/>
	<path class="st1" d="M387.8,892.8H210.1V354.7c0-0.2-0.1-0.4-0.1-0.6l289-237.9c8.6-7.1,21.1-7.1,29.7,0L809,346.7
		c-0.9,2.5-1.4,5.2-1.5,7.9V427c0,12.9,10.5,23.4,23.5,23.4c12.9,0,23.4-10.5,23.4-23.5v-42.8l42.3,34.8c10,7.8,24.4,6.1,32.4-3.6
		c8.1-9.8,6.9-24.2-2.7-32.5L558.7,80c-25.9-21.4-63.4-21.4-89.3,0L101.5,382.7c-9.7,8.3-10.9,22.8-2.8,32.7
		c8.1,9.8,22.6,11.4,32.6,3.5h0l32-26.3v523.6c0,6.2,2.5,12.2,6.9,16.6c4.4,4.4,10.4,6.9,16.6,6.9h201.1c8.4,0,16.1-4.5,20.3-11.7
		c4.2-7.2,4.2-16.2,0-23.4C403.9,897.3,396.2,892.8,387.8,892.8L387.8,892.8z"/>
	<rect x="66.4" y="70.7" class="st2" width="857.6" height="891.3"/>
</g>
</svg>
