<?xml version="1.0" encoding="utf-8"?>
<!-- Generator: Adobe Illustrator 22.0.0, SVG Export Plug-In . SVG Version: 6.00 Build 0)  -->
<svg version="1.1" id="图层_1" xmlns="http://www.w3.org/2000/svg" xmlns:xlink="http://www.w3.org/1999/xlink" x="0px" y="0px"
	 viewBox="0 0 1024 1024" style="enable-background:new 0 0 1024 1024;" xml:space="preserve">
<style type="text/css">
	.st0{fill:#FFFFFF;}
</style>
<g>
	<path class="st0" d="M322.5,825.3C322.5,825.3,322.4,825.3,322.5,825.3c-35.5,0-64.4,29.6-64.4,66.1c0,36.4,28.9,66,64.4,66l0,0
		c35.5,0,64.4-29.6,64.3-66v-0.1c0-17.6-6.7-34.1-18.7-46.5C355.9,832.3,339.7,825.3,322.5,825.3z"/>
	<path class="st0" d="M708.6,825.3L708.6,825.3c-17.3,0-33.5,6.9-45.7,19.5c-12.1,12.5-18.7,29-18.7,46.5c0,36.4,28.9,66,64.4,66
		s64.4-29.6,64.4-66v-0.1c0-17.6-6.7-34.1-18.7-46.5C742.1,832.3,725.9,825.3,708.6,825.3z"/>
	<path class="st0" d="M927.2,68.1c-1.4-0.2-2.9-0.4-4.3-0.4c-5.4,0-10.6,1.7-15,4.9c-5.9,4.3-9.9,10.7-11.1,18.1L874.6,228
		l-2.8,17.5H854H140.2c-19,0-36.6,9-48.2,24.7C80.4,286,76.7,306,81.9,325.1l106.6,395l0.1,0.5l0.1,0.5
		c6.2,28.7,31.2,49.5,59.5,49.5h541c29.7,0,54.8-22,59.7-52.3l100-618.5C951.5,84.9,941.7,70.6,927.2,68.1z M858.9,325l-60.3,373
		l-2.8,17.5H778H258.4h-16l-4.2-15.4l-100.7-373l-7.1-26.3h27.2h680.6h24.5L858.9,325z"/>
	<path class="st0" d="M332.3,583.5c0,9,5.9,16.2,13.2,16.2h340.2c7.3,0,13.2-7.3,13.2-16.2v-36.2H332.3V583.5z"/>
</g>
</svg>
