<?xml version="1.0" encoding="utf-8"?>
<!-- Generator: Adobe Illustrator 22.0.0, SVG Export Plug-In . SVG Version: 6.00 Build 0)  -->
<svg version="1.1" id="图层_1" xmlns="http://www.w3.org/2000/svg" xmlns:xlink="http://www.w3.org/1999/xlink" x="0px" y="0px"
	 viewBox="0 0 1024 1024" style="enable-background:new 0 0 1024 1024;" xml:space="preserve">
<style type="text/css">
	.st0{fill:#00B1FF;stroke:#00B1FF;stroke-width:12.5203;stroke-miterlimit:10;}
</style>
<path class="st0" d="M385.5,835.6c0.4,1.3,0.8,2.6,1.2,3.9c11.4,42.5-13.8,86.2-56.3,97.6c-42.5,11.4-86.2-13.8-97.6-56.3
	c-11.4-42.5,13.8-86.2,56.3-97.6c1.7-0.4,3.3-0.8,5-1.2L155.5,265c-1-3.7-3.4-6.9-6.8-8.8l-68.4-39.5c-7-4-9.4-12.9-5.3-19.9
	l7.3-12.6c4-7,12.9-9.4,19.9-5.3l84.1,48.5c3.3,1.9,5.8,5.1,6.8,8.8l147.5,550.5c6.6,2.8,12.7,6.4,18.3,10.8l569.5-152.6
	c7.8-2.1,15.8,2.5,17.8,10.3l3.8,14.1c2.1,7.8-2.5,15.8-10.3,17.8L385.5,835.6L385.5,835.6z M319,894.9c19.2-5.1,30.6-24.9,25.4-44
	c-5.1-19.2-24.9-30.6-44-25.4c-19.2,5.1-30.6,24.9-25.4,44C280.1,888.7,299.8,900.1,319,894.9L319,894.9z M287.6,266.1l112.6,420.4
	c2.1,7.8,10.1,12.4,17.8,10.3l420.4-112.6c7.8-2.1,12.4-10.1,10.3-17.8L736.2,145.9c-2.1-7.8-10.1-12.4-17.8-10.3L297.9,248.3
	C290.2,250.4,285.5,258.3,287.6,266.1L287.6,266.1z M258.5,213.6L735.2,85.9c15.5-4.2,31.5,5.1,35.7,20.6l127.7,476.7
	c4.2,15.5-5.1,31.5-20.6,35.7L401.3,746.6c-15.5,4.2-31.5-5.1-35.7-20.6L237.9,249.3C233.7,233.7,242.9,217.8,258.5,213.6
	L258.5,213.6z M495,612.6l-3.8-14.1c-2.1-7.8,2.5-15.8,10.3-17.8L769,509c7.8-2.1,15.8,2.5,17.8,10.3l3.8,14.1
	c2.1,7.8-2.5,15.8-10.3,17.8l-267.5,71.7C505.1,625,497.1,620.4,495,612.6L495,612.6z M594.2,499.3l-3.8-14.1
	c-2.1-7.8,2.5-15.8,10.3-17.8l146.6-39.3c7.8-2.1,15.8,2.5,17.8,10.3l3.8,14.1c2.1,7.8-2.5,15.8-10.3,17.8l-146.6,39.3
	C604.3,511.7,596.3,507,594.2,499.3L594.2,499.3z M591.1,413.8l-3.8-14.1c-2.1-7.8,2.5-15.8,10.3-17.8l128.1-34.3
	c7.8-2.1,15.8,2.5,17.8,10.3l3.8,14.1c2.1,7.8-2.5,15.8-10.3,17.8L609,424.1C601.2,426.2,593.2,421.6,591.1,413.8L591.1,413.8z"/>
</svg>
