<?xml version="1.0" encoding="utf-8"?>
<!-- Generator: Adobe Illustrator 22.0.0, SVG Export Plug-In . SVG Version: 6.00 Build 0)  -->
<svg version="1.1" id="图层_1" xmlns="http://www.w3.org/2000/svg" xmlns:xlink="http://www.w3.org/1999/xlink" x="0px" y="0px"
	 viewBox="0 0 1024 1024" style="enable-background:new 0 0 1024 1024;" xml:space="preserve">
<style type="text/css">
	.st0{fill:#00B1FF;}
</style>
<g>
	<path class="st0" d="M808.6,207.6H708.1c-0.6-40.5-33.3-73.3-73.7-74c-4-37.8-36-67.3-74.8-67.3h-91.9c-38.8,0-70.8,29.5-74.8,67.3
		c-40.4,0.8-73.1,33.6-73.7,74H218.7c-40.7,0-73.7,33-73.7,73.7v599.1c0,40.7,33,73.7,73.7,73.7h589.9c40.7,0,73.7-33,73.7-73.7
		V281.4C882.3,240.6,849.3,207.6,808.6,207.6z M371.2,259.6v-50.9c0-0.4,0-0.7,0-1.1c0.6-12.2,10.7-22,23.1-22h24.2
		c14.4,0,26-11.6,26-26v-18.1c0-12.8,10.4-23.1,23.1-23.1h91.9c12.8,0,23.1,10.4,23.1,23.1v18.1c0,14.4,11.6,26,26,26h24.2
		c12.4,0,22.5,9.8,23.1,22c0,0.4,0,0.7,0,1.1v59.9c0,12.8-10.4,23.1-23.1,23.1H394.4c-12.8,0-23.1-10.4-23.1-23.1V259.6z
		 M830.3,880.5c0,12-9.7,21.7-21.7,21.7H218.7c-12,0-21.7-9.7-21.7-21.7V281.4c0-12,9.7-21.7,21.7-21.7h100.5v8.9
		c0,41.4,33.7,75.2,75.2,75.2h238.5c41.4,0,75.2-33.7,75.2-75.2v-8.9h100.5c12,0,21.7,9.7,21.7,21.7V880.5z"/>
	<path class="st0" d="M703,469.2l-142.6,146l-61.9-83l-0.1-0.1l-0.2-0.3c-0.1-0.1-0.2-0.2-0.2-0.3c-0.2-0.3-0.5-0.6-0.7-0.9
		c-0.2-0.2-0.4-0.4-0.5-0.6c-0.2-0.2-0.4-0.4-0.5-0.6c-0.3-0.3-0.6-0.6-0.8-0.9c-0.1-0.1-0.2-0.2-0.2-0.3L495,528
		c-0.3-0.3-0.7-0.7-1-1c-0.1-0.1-0.1-0.1-0.2-0.2c-0.4-0.3-0.7-0.7-1.1-1c-0.1-0.1-0.1-0.1-0.2-0.2c-0.4-0.3-0.7-0.6-1.1-0.9
		c-0.1-0.1-0.2-0.1-0.3-0.2c-0.3-0.2-0.7-0.5-1-0.7c-0.1-0.1-0.3-0.2-0.4-0.3c-0.3-0.2-0.6-0.4-0.9-0.6c-0.2-0.1-0.4-0.3-0.6-0.4
		c-0.2-0.1-0.5-0.3-0.7-0.4c-0.3-0.2-0.6-0.3-0.8-0.5c-0.2-0.1-0.3-0.2-0.5-0.2c-0.4-0.2-0.7-0.4-1.1-0.5c-0.1,0-0.2-0.1-0.2-0.1
		c-0.4-0.2-0.9-0.4-1.3-0.6l0,0c-2.6-1-5.2-1.8-8-2.2c-0.1,0-0.2,0-0.2,0c-0.5-0.1-0.9-0.1-1.4-0.2c-0.2,0-0.4,0-0.5,0
		c-0.4,0-0.7-0.1-1.1-0.1c-0.3,0-0.6,0-0.9,0c-0.3,0-0.5,0-0.8,0c-0.4,0-0.8,0-1.2,0c-0.2,0-0.3,0-0.5,0c-0.5,0-0.9,0.1-1.4,0.1
		c-0.1,0-0.2,0-0.3,0c-0.5,0-1,0.1-1.4,0.2c-0.1,0-0.1,0-0.2,0c-0.5,0.1-0.9,0.1-1.4,0.2c-0.1,0-0.2,0-0.2,0
		c-0.4,0.1-0.9,0.2-1.3,0.3c-0.1,0-0.2,0-0.3,0.1c-0.4,0.1-0.8,0.2-1.1,0.3c-0.2,0-0.3,0.1-0.5,0.1c-0.3,0.1-0.6,0.2-0.9,0.3
		c-0.2,0.1-0.5,0.1-0.7,0.2c-0.2,0.1-0.5,0.2-0.7,0.3c-0.3,0.1-0.6,0.2-0.9,0.3c-0.2,0.1-0.3,0.1-0.5,0.2c-0.4,0.2-0.7,0.3-1.1,0.5
		c-0.1,0.1-0.2,0.1-0.3,0.2c-0.4,0.2-0.8,0.4-1.2,0.6l-0.2,0.1c-0.4,0.2-0.9,0.5-1.3,0.7c-0.1,0-0.1,0.1-0.2,0.1
		c-0.4,0.3-0.9,0.5-1.3,0.8c-0.1,0-0.1,0.1-0.2,0.1c-0.4,0.3-0.8,0.6-1.2,0.9l-0.1,0.1c-0.1,0.1-0.2,0.1-0.3,0.2
		c-0.3,0.2-0.6,0.5-1,0.8c-0.2,0.2-0.4,0.4-0.6,0.5c-0.2,0.2-0.4,0.4-0.6,0.5c-0.3,0.3-0.6,0.6-0.9,0.8c-0.1,0.1-0.2,0.2-0.3,0.2
		l-0.3,0.3l-0.1,0.1L275.1,696.6c-13.6,13.5-13.8,35.4-0.3,49c6.8,6.9,15.7,10.3,24.7,10.3c8.8,0,17.6-3.3,24.4-10l142.6-140.9
		l62.6,84c0.4,0.6,0.9,1.1,1.3,1.7c0.1,0.1,0.2,0.3,0.4,0.4c0.3,0.3,0.6,0.7,0.9,1c0.2,0.2,0.5,0.5,0.7,0.7c0.1,0.1,0.2,0.2,0.4,0.4
		c0.1,0.1,0.2,0.1,0.2,0.2c0.4,0.4,0.9,0.8,1.4,1.2c0.3,0.3,0.6,0.5,0.9,0.8c0.2,0.1,0.4,0.3,0.6,0.4c0.3,0.2,0.6,0.5,0.9,0.7
		c0.3,0.2,0.6,0.4,0.9,0.6c0.3,0.2,0.7,0.5,1.1,0.7c0.4,0.2,0.7,0.5,1.1,0.7c0.2,0.1,0.4,0.2,0.5,0.3c0.4,0.2,0.8,0.4,1.2,0.6
		c0.6,0.3,1.2,0.6,1.8,0.8c0.1,0.1,0.3,0.1,0.4,0.2c0.5,0.2,1,0.4,1.6,0.6l0.2,0.1c1.2,0.4,2.5,0.8,3.7,1.1c0.1,0,0.1,0,0.2,0
		c0.7,0.2,1.4,0.3,2.1,0.4c0.4,0.1,0.9,0.1,1.3,0.2c0.2,0,0.4,0,0.6,0.1c0.4,0,0.8,0.1,1.3,0.1c0.2,0,0.4,0,0.6,0c0.5,0,1,0,1.4,0
		c0.1,0,0.2,0,0.4,0c0.5,0,1.1,0,1.6,0l0.1,0c0.5,0,1-0.1,1.6-0.1l0.2,0c0.5-0.1,1.1-0.1,1.6-0.2l0,0c1.1-0.2,2.2-0.4,3.3-0.7h0
		c0.6-0.2,1.2-0.3,1.8-0.5c0.4-0.1,0.8-0.3,1.2-0.4c0.1,0,0.2-0.1,0.4-0.1c0.4-0.1,0.8-0.3,1.2-0.5c0.1,0,0.2-0.1,0.3-0.1
		c0.5-0.2,0.9-0.4,1.4-0.6c0.2-0.1,0.5-0.2,0.7-0.3c0.2-0.1,0.4-0.2,0.7-0.3c0.3-0.1,0.6-0.3,0.8-0.4c0.5-0.3,0.9-0.5,1.4-0.8
		c0.1-0.1,0.3-0.2,0.4-0.2c1.4-0.9,2.8-1.9,4.1-3.1c0.8-0.7,1.5-1.3,2.2-2.1l170.8-174.9c13.4-13.7,13.1-35.7-0.6-49
		C738.3,455.2,716.4,455.5,703,469.2z"/>
</g>
</svg>
