<?xml version="1.0" encoding="utf-8"?>
<!-- Generator: Adobe Illustrator 22.0.0, SVG Export Plug-In . SVG Version: 6.00 Build 0)  -->
<svg version="1.1" id="图层_1" xmlns="http://www.w3.org/2000/svg" xmlns:xlink="http://www.w3.org/1999/xlink" x="0px" y="0px"
	 viewBox="0 0 1024 1024" style="enable-background:new 0 0 1024 1024;" xml:space="preserve">
<style type="text/css">
	.st0{fill:#00B1FF;}
</style>
<g>
	<path class="st0" d="M353.4,483.8h-92.5c-18.3,0-33.1,15.5-33.1,34.5c0,19.1,14.9,34.5,33.1,34.5h92.5c18.3,0,33.1-15.5,33.1-34.5
		C386.5,499.3,371.7,483.8,353.4,483.8z"/>
	<path class="st0" d="M260.9,251c-18.3,0-33.1,15.5-33.1,34.5c0,19.1,14.9,34.5,33.1,34.5h392.5c18.3,0,33.1-15.5,33.1-34.5
		c0-19-14.9-34.5-33.1-34.5H260.9z"/>
	<path class="st0" d="M353.4,891.2h-219V137.3h658.2v175.9c0,19.1,14.9,34.6,33.1,34.6s33.1-15.5,33.1-34.5V102.8
		c0-19.1-14.9-34.5-33.1-34.5H101.3c-18.3,0-33.1,15.5-33.1,34.5v822.9c0,19.1,14.9,34.5,33.1,34.5h252.1
		c18.3,0,33.1-15.5,33.1-34.5S371.7,891.2,353.4,891.2z"/>
	<path class="st0" d="M327.9,785.7c18.3,0,33.1-15.5,33.1-34.5s-14.9-34.5-33.1-34.5h-67c-18.3,0-33.1,15.5-33.1,34.5
		s14.9,34.5,33.1,34.5H327.9z"/>
	<path class="st0" d="M896.3,860.2l2.9-3.6c39.9-50.8,61-111.1,61-174.4c0-153.3-120.2-278.1-268-278.1
		C544.3,404.1,424,528.9,424,682.2s120.3,278.1,268.2,278.1c54.5,0,107.2-17.2,152.2-49.8l3.7-2.7l40.9,42.5
		c12.5,12.9,34.5,12.7,46.7,0c13.1-13.5,13.1-35.5,0-49L896.3,860.2z M692.2,891.2c-111.3,0-201.9-93.7-201.9-209
		c0-115.2,90.6-209,201.9-209c111.2,0,201.7,93.7,201.7,209C893.9,797.4,803.4,891.2,692.2,891.2z"/>
</g>
</svg>
