<?xml version="1.0" encoding="utf-8"?>
<!-- Generator: Adobe Illustrator 22.0.0, SVG Export Plug-In . SVG Version: 6.00 Build 0)  -->
<svg version="1.1" id="图层_1" xmlns="http://www.w3.org/2000/svg" xmlns:xlink="http://www.w3.org/1999/xlink" x="0px" y="0px"
	 viewBox="0 0 1024 1024" style="enable-background:new 0 0 1024 1024;" xml:space="preserve">
<style type="text/css">
	.st0{fill:#00B1FF;}
</style>
<g>
	<path class="st0" d="M903.7,550.2L738,459.4c-22.7-12.4-50.2-12.4-72.9,0l-165.7,90.8c-23.6,12.9-38.3,37.4-38.3,64V794
		c0.1,26.7,14.8,51.3,38.3,64L665,948.9c22.7,12.4,50.2,12.4,72.9,0L903.7,858c23.6-12.9,38.3-37.4,38.3-64V614.2
		C941.8,587.5,927.2,563,903.7,550.2z M895.7,794c0,9.6-5.4,18.6-14.3,23.5l-165.7,90.8c-8.9,4.9-19.6,4.9-28.5,0l-165.7-90.8
		c-8.9-4.9-14.3-13.8-14.3-23.5V614.2c0-9.6,5.4-18.6,14.3-23.5l165.7-90.8c8.9-4.8,19.6-4.8,28.5,0l165.7,90.8
		c8.9,4.9,14.3,13.8,14.3,23.5V794z"/>
	<path class="st0" d="M785.3,703.9l-55.8,55.8l-0.8-162.9c-0.2-12.6-10.6-22.7-23.2-22.7c-12.6,0.1-22.9,10.3-23,22.9l0.8,164.3
		l-57.4-57.4c-9-8.7-23.1-8.7-32.1,0c-4.4,4.3-6.9,10.1-7.1,16.2c-0.1,6.1,2.2,12,6.5,16.4l84.5,84.6c7.4,7.4,17.4,11.5,27.9,11.5
		c10.4,0,20.5-4.2,27.9-11.5l84.5-84.5c8.8-9.1,8.7-23.5-0.2-32.4C808.8,695.3,794.4,695.1,785.3,703.9z"/>
	<path class="st0" d="M389,881.3H213.7V350.6c0-0.2-0.1-0.4-0.1-0.6l285.1-234.7c8.5-7,20.8-7,29.3,0l276.3,227.4
		c-0.9,2.5-1.4,5.1-1.5,7.8V422c0,12.8,10.4,23.1,23.1,23.1c12.8,0,23.1-10.4,23.1-23.1v-42.2l41.7,34.3c9.9,7.7,24.1,6.1,32-3.6
		c7.9-9.7,6.8-23.9-2.6-32.1L557.4,79.7c-25.6-21.1-62.5-21.1-88.1,0L106.6,378.3c-9.5,8.2-10.8,22.5-2.8,32.2
		c8,9.7,22.3,11.3,32.1,3.5h0l31.5-26v516.4c0,6.1,2.4,12,6.8,16.3c4.3,4.3,10.2,6.8,16.3,6.8H389c8.3,0,15.9-4.4,20-11.6
		c4.1-7.1,4.1-16,0-23.1C404.9,885.8,397.2,881.3,389,881.3z"/>
</g>
</svg>
