<?xml version="1.0" encoding="utf-8"?>
<!-- Generator: Adobe Illustrator 22.0.0, SVG Export Plug-In . SVG Version: 6.00 Build 0)  -->
<svg version="1.1" id="图层_1" xmlns="http://www.w3.org/2000/svg" xmlns:xlink="http://www.w3.org/1999/xlink" x="0px" y="0px"
	 viewBox="0 0 1024 1024" style="enable-background:new 0 0 1024 1024;" xml:space="preserve">
<style type="text/css">
	.st0{fill:#00B1FF;}
</style>
<g>
	<path class="st0" d="M737.8,739.1l-403.5,0l-1.1,0l-0.9,0c-6.8,0.2-13.1,3.1-17.8,8.1c-4.6,5-7.1,11.5-6.8,18.3
		c0.5,13.8,11.7,24.6,25.5,24.6l403.5,0l1.1,0l0.9,0c6.8-0.2,13.1-3.1,17.8-8.1s7.1-11.5,6.8-18.3
		C762.8,749.9,751.6,739.1,737.8,739.1z"/>
	<path class="st0" d="M737.8,599l-404.9,0c-6.8,0.2-13.2,3-17.8,7.9c-4.7,4.9-7.2,11.4-7,18.2c0.4,13.9,11.6,24.9,26.1,24.9
		c0,0,0,0,0,0l397.6,0l1.7-0.1l4.3,0.1l0.9,0c6.8-0.2,13.1-3.1,17.8-8.1c4.6-5,7.1-11.5,6.8-18.3C762.8,609.8,751.6,599,737.8,599z"
		/>
	<path class="st0" d="M801.4,176.5l-90.3,0v-56H635l-0.8-0.9c-28.9-35.1-71.5-55.2-116.9-55.2c-1.6,0-3.3,0-4.7,0.1
		c-2-0.1-3.6-0.1-5.2-0.1c-45.4,0-88,20.1-116.9,55.2l-0.8,0.9h-76.1v56h-88.7l-1.5,0c-60.4,0-110.2,49.2-111,109.6v560.3
		c0.8,60.4,50.6,109.5,111,109.5l576.5,0l1.5,0c60.4,0,110.2-49.2,111-109.6V286C911.6,225.6,861.8,176.5,801.4,176.5z M366.1,288.5
		V171.4h63.9l0.3-2.2c3.4-30.2,39.5-53.8,82.1-53.8c42.6,0,78.7,23.6,82.1,53.8l0.3,2.2h63.9v117.1H366.1z M711.2,339.5V227.5h88.8
		l0.8,0c32.3,0,58.8,26.3,59.2,58.5v560.4c-0.5,32.3-27,58.6-59.2,58.6l-575.9,0l-0.8,0c-32.3,0-58.8-26.3-59.2-58.5l0-560.3
		c0.5-32.3,27-58.6,59.2-58.6l89.6,0v112.1H711.2z"/>
	<path class="st0" d="M333.5,510l404.6,0c6.8-0.2,13.2-3,17.9-7.9c4.7-4.9,7.2-11.4,7-18.2c-0.4-13.9-11.5-24.9-26.1-24.9
		c0,0,0,0,0,0h-404c-6.8,0.2-13.1,3-17.8,7.9c-4.7,4.9-7.2,11.4-7,18.2C308.4,499.1,319.6,510,333.5,510z"/>
</g>
</svg>
