<?xml version="1.0" encoding="utf-8"?>
<!-- Generator: Adobe Illustrator 22.0.0, SVG Export Plug-In . SVG Version: 6.00 Build 0)  -->
<svg version="1.1" id="图层_1" xmlns="http://www.w3.org/2000/svg" xmlns:xlink="http://www.w3.org/1999/xlink" x="0px" y="0px"
	 viewBox="0 0 1024 1024" style="enable-background:new 0 0 1024 1024;" xml:space="preserve">
<style type="text/css">
	.st0{fill:#00B1FF;}
</style>
<g>
	<path class="st0" d="M119.1,848.8V139.1c0-3.9,3.2-7.1,7.2-7.2h604.5c4,0,7.2,3.2,7.2,7.2v286.3h52.5V139.1
		c0-32.5-26.8-58.9-59.7-58.9H126.4c-32.9,0-59.7,26.4-59.7,58.9v709.7c0,32.5,26.8,58.9,59.7,58.9h338.4V856H126.4
		C122.4,856,119.1,852.7,119.1,848.8z"/>
	<path class="st0" d="M380.5,533.5H275.9c-9.4,0-18,4.9-22.7,12.9c-4.7,8-4.7,17.9,0,25.9c4.7,8,13.3,12.9,22.7,12.9h104.6
		c9.4,0,18-4.9,22.7-12.9c4.7-8,4.7-17.9,0-25.9C398.6,538.5,389.9,533.5,380.5,533.5z"/>
	<path class="st0" d="M595.9,437.6c4.9-4.9,7.7-11.4,7.7-18.3h0c0-14.3-11.7-25.9-26.2-25.9H275.9c-9.4,0-18,4.9-22.7,12.9
		c-4.7,8-4.7,17.9,0,25.9c4.7,8,13.3,12.9,22.7,12.9h301.5C584.3,445.2,591,442.5,595.9,437.6z"/>
	<path class="st0" d="M577.4,258.5H275.8c-9.4,0-18,4.9-22.7,12.9c-4.7,8-4.7,17.9,0,25.9c4.7,8,13.3,12.9,22.7,12.9h301.5
		c14.5,0,26.2-11.6,26.2-25.9C603.6,270,591.9,258.5,577.4,258.5z"/>
	<path class="st0" d="M734.3,494.9c-117.2,0-213.9,87-224.8,202.3l-1.5,16.2l53.4-52.8l0.4-1.3c25.3-72.7,94.7-121.6,172.5-121.7
		c100.7,0,182.6,80.9,182.6,180.4S835,898.4,734.3,898.4c-75.5,0-142.1-44.9-169.7-114.3l-3.3-8.3l-33.2,32.8l1.8,3.7
		c36.9,78.2,117.1,128.8,204.5,128.8c124.5,0,225.9-100.1,225.9-223.1S858.9,494.9,734.3,494.9z"/>
	<path class="st0" d="M717.5,779.3L717.5,779.3c4.5,4.4,10.5,6.7,16.2,6.3c6.1,0.4,12.4-1.9,16.9-6.3l72.1-71.2v10
		c0,11.8,9.7,21.4,21.6,21.4s21.6-9.6,21.6-21.4v-62.1c0-8.8-5.7-16.9-13.9-19.8c-3.4-1.4-7.1-1.9-10-1.5h-60.5
		c-11.9,0-21.6,9.6-21.6,21.4s9.7,21.4,21.6,21.4h9.1l-56.4,55.7l-93.4-92.3c-4.4-4.3-10.5-6.6-16.2-6.3c-6.2-0.2-12.2,2-16.6,6.3
		L483,764c-8.2,9-7.4,22.9,1.7,31c4.2,3.7,9.5,5.6,14.8,5.6c5.4,0,10.8-1.9,15.1-5.8l109.4-108L717.5,779.3z"/>
</g>
</svg>
