<?xml version="1.0" encoding="utf-8"?>
<!-- Generator: Adobe Illustrator 22.0.0, SVG Export Plug-In . SVG Version: 6.00 Build 0)  -->
<svg version="1.1" id="图层_1" xmlns="http://www.w3.org/2000/svg" xmlns:xlink="http://www.w3.org/1999/xlink" x="0px" y="0px"
	 viewBox="0 0 1024 1024" style="enable-background:new 0 0 1024 1024;" xml:space="preserve">
<style type="text/css">
	.st0{fill:#00B1FF;}
</style>
<g>
	<path class="st0" d="M935.3,388.1l-369-303.8c-27.4-22.5-67.1-22.5-94.4,0L102.8,388.1c-11.2,9.6-12.6,26.6-3.3,38
		s26.4,13.2,37.9,4.1l8.5-6.7h-0.4l17.9-14.7v517.5c0,7.3,2.8,14.1,8,19.3c5.2,5.1,12,8,19.3,8h201.8c9.7,0,18.8-5.2,23.6-13.6
		c4.9-8.4,4.9-18.8,0-27.3c-4.9-8.4-13.9-13.6-23.6-13.6H217.9l-0.1-535l288.7-237.6c7.3-6,17.8-6,25.1,0l279.1,229.8
		c-0.6,2.2-0.9,4.4-0.9,6.6v72.6c0,7.3,2.9,14.1,8,19.3c5.1,5.1,12,8,19.3,8c0,0,0,0,0,0c15,0,27.3-12.3,27.2-27.3v-35l36.4,29.9
		c11.7,9.1,28.3,7.2,37.8-4.2C948,414.5,946.6,397.9,935.3,388.1z"/>
	<g>
		<path class="st0" d="M668.2,465.6c-135.4,0-245.5,110.1-245.5,245.5s110.1,245.5,245.5,245.5s245.5-110.1,245.5-245.5
			S803.5,465.6,668.2,465.6z M866.9,711.1c0,109.6-89.2,198.8-198.8,198.8c-109.6,0-198.8-89.2-198.8-198.8s89.2-198.8,198.8-198.8
			C777.8,512.3,866.9,601.5,866.9,711.1z"/>
		<polygon class="st0" points="724.3,589.4 668.8,681.9 613.4,589.4 564.3,589.4 629.8,691.7 583.9,691.7 583.9,723.9 646.8,723.9 
			646.8,740.2 583.9,740.2 583.9,771.1 646.8,771.1 646.8,832.7 689.5,832.7 689.5,771.1 753.8,771.1 753.8,740.2 689.5,740.2 
			689.5,723.9 753.8,723.9 753.8,691.7 707.7,691.7 771.9,589.4 		"/>
	</g>
</g>
</svg>
