<?xml version="1.0" encoding="utf-8"?>
<!-- Generator: Adobe Illustrator 22.0.0, SVG Export Plug-In . SVG Version: 6.00 Build 0)  -->
<svg version="1.1" id="图层_1" xmlns="http://www.w3.org/2000/svg" xmlns:xlink="http://www.w3.org/1999/xlink" x="0px" y="0px"
	 viewBox="0 0 1024 1024" style="enable-background:new 0 0 1024 1024;" xml:space="preserve">
<style type="text/css">
	.st0{fill:#00B1FF;}
</style>
<g>
	<path class="st0" d="M129.5,133v760.5c0,4.2,3.4,7.7,7.6,7.7h358.2v55.5H137.2c-34.8,0-63.2-28.3-63.2-63.2V133
		c0-34.8,28.3-63.2,63.2-63.2H777c34.8,0,63.2,28.3,63.2,63.2v306.8h-55.5V133c0-4.2-3.4-7.7-7.6-7.7H137.2
		C132.9,125.3,129.5,128.8,129.5,133L129.5,133z"/>
	<path class="st0" d="M295.4,555.7h110.8c9.9,0,19.1,5.3,24,13.9c5,8.6,5,19.2,0,27.7c-5,8.6-14.1,13.9-24,13.9H295.4
		c-9.9,0-19.1-5.3-24-13.9c-5-8.6-5-19.2,0-27.7C276.4,561,285.5,555.7,295.4,555.7L295.4,555.7z"/>
	<path class="st0" d="M642.3,433.3c0,7.4-2.9,14.4-8.1,19.6c-5.2,5.2-12.3,8.1-19.6,8.1H295.4c-9.9,0-19.1-5.3-24-13.9
		c-5-8.6-5-19.2,0-27.7c5-8.6,14.1-13.9,24-13.9h319.1C629.9,405.6,642.3,418,642.3,433.3L642.3,433.3z"/>
	<path class="st0" d="M614.6,260.9c15.3,0,27.7,12.4,27.7,27.7c0,15.3-12.4,27.7-27.7,27.7H295.4c-9.9,0-19.1-5.3-24-13.9
		c-5-8.6-5-19.2,0-27.7c5-8.6,14.1-13.9,24-13.9H614.6z"/>
	<path class="st0" d="M752.6,950.5c-11.9,0-23.7-1.1-35.5-3.3c-7.2-1.3-13.1-6.4-15.6-13.2c-2.4-6.9-1-14.5,3.7-20.1
		c4.7-5.6,12.1-8.2,19.2-6.8c36.6,6.8,74.5,0,106.5-18.9c36.9-21.1,63.9-56.1,75-97.1c11.1-41.1,5.3-84.8-16-121.6
		c-9.8-17-22.6-32.1-37.8-44.4c-8.8-7.1-10.1-20-3-28.7c7.1-8.8,20-10.1,28.7-3c19.1,15.5,34.6,33.7,47.4,55.6
		c26.8,46,34.1,100.8,20.3,152.3c-13.7,51.7-47.6,95.8-94,122.4C821.6,941.2,787.4,950.5,752.6,950.5L752.6,950.5z"/>
	<path class="st0" d="M627.3,900.1c-5.2,0-10.2-2-13.9-5.5c-14.1-12.9-25.9-28.2-35-45c-26.7-46-33.9-100.7-20.2-152.1
		c13.7-51.8,47.6-95.8,94.1-122.4c33.5-19.3,71.8-28.5,110.4-26.5c11.3,0.6,20,10.1,19.4,21.4c-0.6,11.3-10.1,20-21.4,19.4
		c-30.8-1.6-61.3,5.7-88,21.1c-37.1,21.2-64.1,56.3-75.1,97.6c-11,40.9-5.2,84.5,16.1,121.2l0.4,0.7c6.7,12.6,15.5,24,27,34.8
		c6.2,5.7,8.2,14.6,5.1,22.4C643.3,895,635.7,900.1,627.3,900.1L627.3,900.1z"/>
	<path class="st0" d="M735.2,719.3l-0.2-0.2l-36.6-39.2c-8.8-8.7-7.9-23.1,0.8-31.8c8.8-8.7,23.1-7.9,32,1.1l36.7,39.1
		c8.7,8.7,7.9,23.1-2,32.8C756.5,728.2,743.5,727.4,735.2,719.3L735.2,719.3z"/>
	<path class="st0" d="M736.9,688.3l0.2-0.2l39.2-36.7c8.7-8.7,23.1-7.9,32.4,1.5c7.5,9,6.8,22.3-1.7,30.5l-39.1,36.7
		c-8.8,8.7-23,8.7-31.8,0C727.3,711.3,728.2,697,736.9,688.3L736.9,688.3z"/>
	<path class="st0" d="M915.2,638.5c-1.6,0-3.1-0.1-4.7-0.5l-56.4-10.8c-5.8-1.5-10.9-5-14.3-10c-3.7-5.3-5-11.7-3.8-15.6l0.3-3.2
		v-0.2c3.2-12.6,15.7-20.9,27.5-18l56.4,10.8c5.7,1.5,10.9,5.1,14.3,10c3.7,5.3,5,11.7,3.8,15.6l-0.3,3.2c-1.5,5.9-5,11-10,14.5
		C924.3,637,919.8,638.4,915.2,638.5L915.2,638.5z"/>
	<path class="st0" d="M640.3,862.8c11.8,2.9,19.9,14.7,17.2,24.2l-0.3,3.2c-2.9,11.8-14.7,19.9-26,17l-56.3-10.7
		c-11.7-2.9-19.9-14.7-17.2-24.2l0.1-2c0.9-6,4.3-11.3,9.3-14.8c5-3.4,11.2-4.7,17.1-3.4L640.3,862.8z"/>
	<path class="st0" d="M812.6,749.1H692.1c-5.6,0.1-11.1-2.1-15.1-6.1c-4-4-6.2-9.4-6.1-15v-2.5c-0.1-5.6,2.1-11.1,6.1-15.1
		c4-4,9.4-6.2,15.1-6.1h120.5c5.7-0.1,11.1,2.1,15.1,6.1s6.2,9.4,6.1,15.1v2.4c0.1,5.7-2.1,11.1-6.1,15.1
		C823.7,747.1,818.2,749.3,812.6,749.1L812.6,749.1z"/>
	<path class="st0" d="M730.8,828v-91c-0.1-5.6,2.1-11.1,6.1-15.1c4-4,9.4-6.2,15.1-6.1h2.4c5.7-0.1,11.1,2.1,15.1,6.1
		c4,4,6.2,9.4,6.1,15.1v91.8c0.1,5.7-2.1,11.1-6.1,15.1c-4,4-9.4,6.2-15.1,6.1l-4.6-0.1C738.9,848.4,730.8,839,730.8,828L730.8,828z
		"/>
	<path class="st0" d="M812.6,806.6H692.1c-5.6,0.1-11.1-2.1-15.1-6.1c-4-4-6.2-9.4-6.1-15.1v-2.5c-0.1-5.6,2.1-11.1,6.1-15.1
		c4-4,9.4-6.2,15.1-6.1h120.5c5.7-0.1,11.1,2.1,15.1,6.1c4,4,6.2,9.4,6.1,15.1v2.4c0.1,5.7-2.1,11.1-6.1,15.1
		C823.7,804.5,818.2,806.7,812.6,806.6L812.6,806.6z"/>
	<path class="st0" d="M812.6,806.6"/>
</g>
</svg>
