<?xml version="1.0" encoding="utf-8"?>
<!-- Generator: Adobe Illustrator 22.0.0, SVG Export Plug-In . SVG Version: 6.00 Build 0)  -->
<svg version="1.1" id="图层_1" xmlns="http://www.w3.org/2000/svg" xmlns:xlink="http://www.w3.org/1999/xlink" x="0px" y="0px"
	 viewBox="0 0 1024 1024" style="enable-background:new 0 0 1024 1024;" xml:space="preserve">
<style type="text/css">
	.st0{fill:#FFFFFF;}
</style>
<g>
	<path class="st0" d="M423.7,500.9C423.8,500.9,423.8,500.9,423.7,500.9c11.9,0,21.5-9.7,21.5-21.5V461c0-5,4.2-9,9-9l0.5-0.1
		c0.1,0,0.2,0.1,0.2,0.1h113.8c4.9,0,8.9,4,8.9,9v157.2c0,11.9,9.6,21.5,21.5,21.5s21.5-9.6,21.5-21.5V461c0-28.7-23.4-52-51.9-52
		H455.2l-0.4,0.1l-0.5-0.1c-28.6,0-51.9,23.3-51.9,52v18.4C402.3,491.3,411.9,500.9,423.7,500.9z"/>
	<path class="st0" d="M284.6,504.7c-11.9,0-21.5,9.6-21.5,21.5v390.2H130.8V119.1c0-5,4.2-9,9-9h114.3c5,0,9,4,9,9v122.5
		c-0.5,11.9,8.6,21.9,20.5,22.4s21.9-8.6,22.4-20.5c0-0.7,0-1.3,0-2V119.1c0-28.7-23.3-52.1-52-52.1H139.8
		c-28.7,0-51.9,23.4-51.9,52.1v840.5h218.2V526.2C306.1,514.4,296.5,504.8,284.6,504.7z"/>
	<path class="st0" d="M738.3,557.9c11.9,0,21.5-9.6,21.5-21.4v-0.1V288.6c0-4.9,4-9,9-9h114.4c5,0,9.1,4,9.1,9v105.5
		c0,11.8,9.4,21.4,21.4,21.4c11.8,0,21.5-9.6,21.5-21.4V288.6c0-28.7-23.4-51.9-52.1-51.9H768.7c-1.5,0-2.9,0.1-4.3,0.4
		c-26.8,2.2-47.6,24.6-47.7,51.5v247.7C716.7,548.2,726.4,557.9,738.3,557.9z"/>
	<path class="st0" d="M913.7,614c-11.8,0-21.4,9.5-21.4,21.3c0,0.1,0,0.1,0,0.2v280.8H759.8V706.7c0-11.9-9.6-21.5-21.5-21.5
		s-21.5,9.6-21.5,21.5v252.8h218.4v-324C935.2,623.7,925.5,614.1,913.7,614z"/>
	<path class="st0" d="M599.1,838.3L599.1,838.3c-11.9,0-21.5,9.6-21.5,21.4v56.8H445.2V684.4c0.8-11.8-8.2-22.1-20.1-22.8
		c-11.8-0.8-22.1,8.2-22.8,20.1c-0.1,0.9-0.1,1.8,0,2.8v275.2h218.3v-99.9C620.6,847.8,611,838.2,599.1,838.3z"/>
	<path class="st0" d="M833.6,571.7c12.5,9.6,28,15.4,44.8,15.4c40.8,0,74-33,74-73.8c-1-40.9-34.9-73.2-75.8-72.1
		c-39.4,1-71.2,32.7-72.1,72.1c0,8.2,1.7,15.9,4.3,23.5L609.3,685.2c-13.2-11.3-30-17.5-47.3-17.6c-11.4,0-22.2,2.8-31.7,7.4
		L301.4,412c12.4-13.3,20-30.8,20-50.1c-1.4-40.8-35.7-72.8-76.5-71.3c-38.8,1.4-70,32.5-71.3,71.3c0,40.8,33.1,74,73.8,74
		c5.6,0,10.9-0.8,16.2-2l235,270.2c-6.8,11.3-10.5,24.3-10.6,37.5c0,40.7,33.2,73.9,73.9,73.9s73.9-33.2,73.9-73.9
		c0-7.1-1.3-13.8-3.2-20.2L833.6,571.7z M861.2,487.6c5.1-3.4,11.1-5.2,17.2-5.2c17.1,0,31,13.9,31,31c0,16.9-14,30.9-31,30.9
		c-10.2-0.1-19.8-5.1-25.6-13.5v-0.1c0,0-0.1,0-0.1-0.1C843.2,516.3,847,497.1,861.2,487.6z M247.4,392.8
		c-17.1,0-30.9-13.8-30.9-30.9c0.6-17.1,15-30.4,32.1-29.7c16.2,0.6,29.1,13.6,29.7,29.7C278.3,378.9,264.5,392.8,247.4,392.8z
		 M562,772.5c-17.1,0-30.9-13.8-30.9-30.9c0-17.1,13.8-30.9,30.9-30.9c17.1,0,30.9,13.8,30.9,30.9
		C592.9,758.6,579.1,772.5,562,772.5z"/>
</g>
</svg>
