<?xml version="1.0" encoding="utf-8"?>
<!-- Generator: Adobe Illustrator 22.0.0, SVG Export Plug-In . SVG Version: 6.00 Build 0)  -->
<svg version="1.1" id="图层_1" xmlns="http://www.w3.org/2000/svg" xmlns:xlink="http://www.w3.org/1999/xlink" x="0px" y="0px"
	 viewBox="0 0 1024 1024" style="enable-background:new 0 0 1024 1024;" xml:space="preserve">
<style type="text/css">
	.st0{fill:#00B1FF;}
</style>
<g>
	<path class="st0" d="M284.1,383.5c-49,0-87,38-87,87c0,49,38,87,87,87s87-38,87-87C371.1,421.5,333.1,383.5,284.1,383.5z
		 M284.1,511.3c-23.1,0-40.9-17.8-40.9-40.9c0-23.1,17.8-40.9,40.9-40.9c23.1,0,40.9,17.8,40.9,40.9
		C325.1,493.5,307.4,511.3,284.1,511.3z"/>
	<path class="st0" d="M747.6,354.2c-49,0-87,38-87,87s38,87,87,87s87-38,87-87C835.1,392.2,796.4,354.2,747.6,354.2z M747.6,482.1
		c-23.1,0-40.9-17.8-40.9-40.9c0-23.1,17.8-40.9,40.9-40.9c23.1,0,40.9,17.8,40.9,40.9C788.5,464.2,771.2,482.1,747.6,482.1z"/>
	<path class="st0" d="M502.2,190c-49,0-87,38-87,87c0,49,38,87,87,87c48.3,0,87-38,87-87C589.2,228,551.2,190,502.2,190z
		 M501.6,317.9c-23.1,0-40.9-17.8-40.9-40.9c0-23.1,17.8-40.9,40.9-40.9c23.1,0,40.9,17.8,40.9,40.9
		C542.5,300.1,525.2,317.9,501.6,317.9z"/>
	<path class="st0" d="M951.4,443.7L951.4,443.7C938.7,221.7,735.3,68.5,514,73.5C57.3,83.8-98.2,662.8,308,898.2
		c66.9,38.8,257.3,105.4,296.7-4.5c25.1-69.8-62.5-158.7,27.4-169.5c78-3.2,138.7-4.3,206.9-48.3C917.7,625,956.7,536.3,951.4,443.7
		z M697,677.6c-67.4-0.4-169.7-5.6-153.4,99.9c7.4,48.5,54.1,111.8-28.9,127.3c-45.7,8.6-106.4-12.4-147.8-28.9
		C160.1,794.4,64.5,543.9,158.7,344.2C263.1,122.7,549.1,54.6,750.3,188.4c92.2,61.1,159.6,165,157.8,278.1l0,0
		C906.4,581.5,788.5,678.1,697,677.6z"/>
</g>
</svg>
